G04 MADE WITH FRITZING*
G04 WWW.FRITZING.ORG*
G04 DOUBLE SIDED*
G04 HOLES PLATED*
G04 CONTOUR ON CENTER OF CONTOUR VECTOR*
%ASAXBY*%
%FSLAX23Y23*%
%MOIN*%
%OFA0B0*%
%SFA1.0B1.0*%
%ADD10C,0.075000*%
%ADD11C,0.078000*%
%ADD12C,0.140000*%
%ADD13C,0.024000*%
%LNCOPPER0*%
G90*
G70*
G54D10*
X1037Y789D03*
X937Y789D03*
X837Y789D03*
X337Y789D03*
X237Y789D03*
X137Y789D03*
X937Y289D03*
X937Y689D03*
X637Y289D03*
X637Y689D03*
G54D11*
X937Y189D03*
X837Y189D03*
X737Y189D03*
G54D12*
X337Y539D03*
X337Y299D03*
X527Y419D03*
G54D11*
X937Y1189D03*
X1037Y1189D03*
X537Y1189D03*
X637Y1189D03*
X237Y1189D03*
X137Y1189D03*
G54D13*
X380Y326D02*
X485Y392D01*
D02*
X637Y789D02*
X637Y706D01*
D02*
X355Y789D02*
X637Y789D01*
D02*
X1037Y689D02*
X955Y689D01*
D02*
X1037Y771D02*
X1037Y689D01*
D02*
X937Y889D02*
X1037Y889D01*
D02*
X1037Y889D02*
X1037Y1170D01*
D02*
X937Y806D02*
X937Y889D01*
D02*
X637Y189D02*
X718Y189D01*
D02*
X637Y271D02*
X637Y189D01*
D02*
X337Y89D02*
X937Y89D01*
D02*
X337Y249D02*
X337Y89D01*
D02*
X937Y89D02*
X937Y170D01*
D02*
X837Y289D02*
X920Y289D01*
D02*
X837Y208D02*
X837Y289D01*
D02*
X537Y1289D02*
X537Y1208D01*
D02*
X137Y1289D02*
X537Y1289D01*
D02*
X737Y1289D02*
X537Y1289D01*
D02*
X737Y1189D02*
X737Y1289D01*
D02*
X637Y989D02*
X637Y1170D01*
D02*
X237Y989D02*
X637Y989D01*
D02*
X237Y806D02*
X237Y989D01*
D02*
X237Y289D02*
X137Y289D01*
D02*
X288Y294D02*
X237Y289D01*
D02*
X137Y289D02*
X137Y771D01*
D02*
X1037Y538D02*
X1037Y189D01*
D02*
X837Y538D02*
X1037Y538D01*
D02*
X1037Y189D02*
X956Y189D01*
D02*
X837Y771D02*
X837Y538D01*
D02*
X137Y1289D02*
X137Y1208D01*
D02*
X137Y1089D02*
X137Y806D01*
D02*
X237Y1089D02*
X137Y1089D01*
D02*
X237Y1170D02*
X237Y1089D01*
D02*
X918Y1189D02*
X737Y1189D01*
D02*
X737Y538D02*
X737Y1189D01*
D02*
X387Y539D02*
X737Y538D01*
G04 End of Copper0*
M02*