; NON-PLATED HOLES START AT T1
; THROUGH (PLATED) HOLES START AT T100
M48
INCH
T100C0.035000
T101C0.038000
T102C0.100000
%
T100
X006374Y006889
X010374Y007889
X006374Y002889
X003374Y007889
X009374Y002889
X008374Y007889
X002374Y007889
X001374Y007889
X009374Y006889
X009374Y007889
T101
X007374Y001889
X001374Y011889
X009374Y011889
X005374Y011889
X008374Y001889
X002374Y011889
X009374Y001889
X010374Y011889
X006374Y011889
T102
X005274Y004189
X003374Y002989
X003374Y005389
T00
M30
