G04 MADE WITH FRITZING*
G04 WWW.FRITZING.ORG*
G04 DOUBLE SIDED*
G04 HOLES PLATED*
G04 CONTOUR ON CENTER OF CONTOUR VECTOR*
%ASAXBY*%
%FSLAX23Y23*%
%MOIN*%
%OFA0B0*%
%SFA1.0B1.0*%
%ADD10C,0.085433*%
%ADD11C,0.150000*%
%ADD12C,0.092000*%
%ADD13C,0.080000*%
%ADD14C,0.085000*%
%ADD15C,0.088000*%
%ADD16R,0.092000X0.092000*%
%ADD17R,0.085000X0.085000*%
%LNMASK0*%
G90*
G70*
G54D10*
X319Y1006D03*
X1119Y1006D03*
G54D11*
X649Y766D03*
X889Y766D03*
X769Y956D03*
G54D12*
X219Y706D03*
X219Y806D03*
X219Y906D03*
G54D13*
X419Y706D03*
X419Y806D03*
G54D14*
X219Y1356D03*
X219Y1256D03*
G54D15*
X1119Y1256D03*
X1019Y1256D03*
X919Y1256D03*
X819Y1256D03*
X719Y1256D03*
X619Y1256D03*
X519Y1256D03*
X419Y1256D03*
X1119Y356D03*
X1019Y356D03*
X919Y356D03*
X819Y356D03*
X719Y356D03*
X619Y356D03*
X519Y356D03*
X419Y356D03*
X1119Y1356D03*
X1019Y1356D03*
X919Y1356D03*
X819Y1356D03*
X719Y1356D03*
X619Y1356D03*
X519Y1356D03*
X419Y1356D03*
X1119Y256D03*
X1019Y256D03*
X919Y256D03*
X819Y256D03*
X719Y256D03*
X619Y256D03*
X519Y256D03*
X419Y256D03*
X1119Y1456D03*
X1019Y1456D03*
X919Y1456D03*
X819Y1456D03*
X719Y1456D03*
X619Y1456D03*
X519Y1456D03*
X419Y1456D03*
X1119Y156D03*
X1019Y156D03*
X919Y156D03*
X819Y156D03*
X719Y156D03*
X619Y156D03*
X519Y156D03*
X419Y156D03*
X1119Y1106D03*
X1019Y1106D03*
X919Y1106D03*
X819Y1106D03*
X719Y1106D03*
X619Y1106D03*
X519Y1106D03*
X419Y1106D03*
X1119Y506D03*
X1019Y506D03*
X919Y506D03*
X819Y506D03*
X719Y506D03*
X619Y506D03*
X519Y506D03*
X419Y506D03*
X219Y356D03*
X219Y256D03*
G54D16*
X219Y706D03*
G54D17*
X219Y1356D03*
G04 End of Mask0*
M02*