G04 MADE WITH FRITZING*
G04 WWW.FRITZING.ORG*
G04 DOUBLE SIDED*
G04 HOLES PLATED*
G04 CONTOUR ON CENTER OF CONTOUR VECTOR*
%ASAXBY*%
%FSLAX23Y23*%
%MOIN*%
%OFA0B0*%
%SFA1.0B1.0*%
%ADD10C,0.010000*%
%ADD11C,0.005000*%
%ADD12R,0.001000X0.001000*%
%LNSILK1*%
G90*
G70*
G54D10*
X889Y936D02*
X1184Y936D01*
D02*
X1184Y936D02*
X1184Y596D01*
D02*
X1184Y596D02*
X624Y596D01*
D02*
X624Y596D02*
X624Y646D01*
D02*
X664Y936D02*
X624Y936D01*
D02*
X624Y936D02*
X624Y886D01*
D02*
X1184Y936D02*
X1184Y596D01*
D02*
X1179Y936D02*
X1179Y596D01*
D02*
X1174Y936D02*
X1174Y596D01*
D02*
X1169Y936D02*
X1169Y596D01*
D02*
X1164Y936D02*
X1164Y596D01*
D02*
X1159Y936D02*
X1159Y596D01*
D02*
X1154Y936D02*
X1154Y596D01*
D02*
X1149Y936D02*
X1149Y596D01*
D02*
X1054Y936D02*
X1054Y596D01*
D02*
X1059Y936D02*
X1059Y596D01*
D02*
X1064Y936D02*
X1064Y596D01*
D02*
X1069Y936D02*
X1069Y596D01*
D02*
X1074Y936D02*
X1074Y596D01*
D02*
X1079Y936D02*
X1079Y596D01*
D02*
X1084Y936D02*
X1084Y596D01*
D02*
X1089Y936D02*
X1089Y596D01*
D02*
X99Y606D02*
X99Y1006D01*
D02*
X279Y606D02*
X99Y606D01*
D02*
X99Y606D02*
X99Y1006D01*
D02*
X99Y1006D02*
X159Y1006D01*
D02*
X159Y1006D02*
X159Y606D01*
D02*
X159Y606D02*
X99Y606D01*
G54D11*
D02*
X99Y736D02*
X159Y736D01*
D02*
X99Y876D02*
X159Y876D01*
G54D10*
D02*
X1169Y1306D02*
X369Y1306D01*
D02*
X369Y1306D02*
X369Y1206D01*
D02*
X369Y1206D02*
X1169Y1206D01*
D02*
X1169Y1206D02*
X1169Y1306D01*
D02*
X1169Y406D02*
X369Y406D01*
D02*
X369Y406D02*
X369Y306D01*
D02*
X369Y306D02*
X1169Y306D01*
D02*
X1169Y306D02*
X1169Y406D01*
D02*
X1169Y1406D02*
X369Y1406D01*
D02*
X369Y1406D02*
X369Y1306D01*
D02*
X369Y1306D02*
X1169Y1306D01*
D02*
X1169Y1306D02*
X1169Y1406D01*
D02*
X1169Y306D02*
X369Y306D01*
D02*
X369Y306D02*
X369Y206D01*
D02*
X369Y206D02*
X1169Y206D01*
D02*
X1169Y206D02*
X1169Y306D01*
D02*
X1169Y1506D02*
X369Y1506D01*
D02*
X369Y1506D02*
X369Y1406D01*
D02*
X369Y1406D02*
X1169Y1406D01*
D02*
X1169Y1406D02*
X1169Y1506D01*
D02*
X1169Y206D02*
X369Y206D01*
D02*
X369Y206D02*
X369Y106D01*
D02*
X369Y106D02*
X1169Y106D01*
D02*
X1169Y106D02*
X1169Y206D01*
D02*
X1169Y1156D02*
X369Y1156D01*
D02*
X369Y1156D02*
X369Y1056D01*
D02*
X369Y1056D02*
X1169Y1056D01*
D02*
X1169Y1056D02*
X1169Y1156D01*
D02*
X1169Y556D02*
X369Y556D01*
D02*
X369Y556D02*
X369Y456D01*
D02*
X369Y456D02*
X1169Y456D01*
D02*
X1169Y456D02*
X1169Y556D01*
D02*
X169Y406D02*
X169Y206D01*
D02*
X169Y206D02*
X269Y206D01*
D02*
X269Y206D02*
X269Y406D01*
D02*
X269Y406D02*
X169Y406D01*
G36*
X94Y1582D02*
X94Y1578D01*
X85Y1578D01*
X85Y1574D01*
X123Y1574D01*
X123Y1561D01*
X157Y1561D01*
X157Y1557D01*
X162Y1557D01*
X162Y1553D01*
X157Y1553D01*
X157Y1548D01*
X153Y1548D01*
X153Y1544D01*
X149Y1544D01*
X149Y1540D01*
X196Y1540D01*
X196Y1544D01*
X191Y1544D01*
X191Y1548D01*
X187Y1548D01*
X187Y1553D01*
X183Y1553D01*
X183Y1557D01*
X179Y1557D01*
X179Y1561D01*
X174Y1561D01*
X174Y1565D01*
X170Y1565D01*
X170Y1570D01*
X162Y1570D01*
X162Y1574D01*
X153Y1574D01*
X153Y1578D01*
X145Y1578D01*
X145Y1582D01*
X94Y1582D01*
G37*
D02*
G36*
X77Y1574D02*
X77Y1570D01*
X68Y1570D01*
X68Y1565D01*
X64Y1565D01*
X64Y1561D01*
X85Y1561D01*
X85Y1557D01*
X89Y1557D01*
X89Y1553D01*
X119Y1553D01*
X119Y1557D01*
X115Y1557D01*
X115Y1574D01*
X77Y1574D01*
G37*
D02*
G36*
X60Y1561D02*
X60Y1557D01*
X55Y1557D01*
X55Y1553D01*
X51Y1553D01*
X51Y1548D01*
X47Y1548D01*
X47Y1544D01*
X85Y1544D01*
X85Y1548D01*
X81Y1548D01*
X81Y1553D01*
X77Y1553D01*
X77Y1557D01*
X81Y1557D01*
X81Y1561D01*
X60Y1561D01*
G37*
D02*
G36*
X123Y1561D02*
X123Y1553D01*
X149Y1553D01*
X149Y1557D01*
X153Y1557D01*
X153Y1561D01*
X123Y1561D01*
G37*
D02*
G36*
X94Y1553D02*
X94Y1548D01*
X145Y1548D01*
X145Y1553D01*
X94Y1553D01*
G37*
D02*
G36*
X94Y1553D02*
X94Y1548D01*
X145Y1548D01*
X145Y1553D01*
X94Y1553D01*
G37*
D02*
G36*
X94Y1548D02*
X94Y1544D01*
X106Y1544D01*
X106Y1548D01*
X94Y1548D01*
G37*
D02*
G36*
X132Y1548D02*
X132Y1544D01*
X140Y1544D01*
X140Y1540D01*
X145Y1540D01*
X145Y1548D01*
X132Y1548D01*
G37*
D02*
G36*
X43Y1544D02*
X43Y1540D01*
X98Y1540D01*
X98Y1544D01*
X43Y1544D01*
G37*
D02*
G36*
X43Y1544D02*
X43Y1540D01*
X98Y1540D01*
X98Y1544D01*
X43Y1544D01*
G37*
D02*
G36*
X43Y1540D02*
X43Y1536D01*
X38Y1536D01*
X38Y1527D01*
X34Y1527D01*
X34Y1523D01*
X81Y1523D01*
X81Y1514D01*
X89Y1514D01*
X89Y1531D01*
X94Y1531D01*
X94Y1540D01*
X43Y1540D01*
G37*
D02*
G36*
X145Y1540D02*
X145Y1531D01*
X149Y1531D01*
X149Y1523D01*
X174Y1523D01*
X174Y1514D01*
X204Y1514D01*
X204Y1527D01*
X200Y1527D01*
X200Y1536D01*
X196Y1536D01*
X196Y1540D01*
X145Y1540D01*
G37*
D02*
G36*
X34Y1523D02*
X34Y1514D01*
X64Y1514D01*
X64Y1523D01*
X34Y1523D01*
G37*
D02*
G36*
X149Y1523D02*
X149Y1514D01*
X157Y1514D01*
X157Y1523D01*
X149Y1523D01*
G37*
D02*
G36*
X34Y1514D02*
X34Y1510D01*
X89Y1510D01*
X89Y1514D01*
X34Y1514D01*
G37*
D02*
G36*
X34Y1514D02*
X34Y1510D01*
X89Y1510D01*
X89Y1514D01*
X34Y1514D01*
G37*
D02*
G36*
X149Y1514D02*
X149Y1510D01*
X204Y1510D01*
X204Y1514D01*
X149Y1514D01*
G37*
D02*
G36*
X149Y1514D02*
X149Y1510D01*
X204Y1510D01*
X204Y1514D01*
X149Y1514D01*
G37*
D02*
G36*
X30Y1510D02*
X30Y1480D01*
X34Y1480D01*
X34Y1463D01*
X38Y1463D01*
X38Y1455D01*
X43Y1455D01*
X43Y1446D01*
X47Y1446D01*
X47Y1442D01*
X51Y1442D01*
X51Y1438D01*
X55Y1438D01*
X55Y1434D01*
X60Y1434D01*
X60Y1429D01*
X64Y1429D01*
X64Y1425D01*
X68Y1425D01*
X68Y1421D01*
X94Y1421D01*
X94Y1442D01*
X98Y1442D01*
X98Y1446D01*
X85Y1446D01*
X85Y1451D01*
X81Y1451D01*
X81Y1463D01*
X89Y1463D01*
X89Y1510D01*
X30Y1510D01*
G37*
D02*
G36*
X149Y1510D02*
X149Y1463D01*
X157Y1463D01*
X157Y1451D01*
X153Y1451D01*
X153Y1446D01*
X140Y1446D01*
X140Y1442D01*
X145Y1442D01*
X145Y1417D01*
X140Y1417D01*
X140Y1412D01*
X157Y1412D01*
X157Y1417D01*
X166Y1417D01*
X166Y1421D01*
X170Y1421D01*
X170Y1425D01*
X174Y1425D01*
X174Y1429D01*
X179Y1429D01*
X179Y1434D01*
X183Y1434D01*
X183Y1438D01*
X187Y1438D01*
X187Y1442D01*
X191Y1442D01*
X191Y1446D01*
X196Y1446D01*
X196Y1455D01*
X200Y1455D01*
X200Y1463D01*
X204Y1463D01*
X204Y1480D01*
X208Y1480D01*
X208Y1510D01*
X149Y1510D01*
G37*
D02*
G36*
X106Y1446D02*
X106Y1421D01*
X132Y1421D01*
X132Y1446D01*
X106Y1446D01*
G37*
D02*
G36*
X77Y1421D02*
X77Y1417D01*
X132Y1417D01*
X132Y1421D01*
X77Y1421D01*
G37*
D02*
G36*
X77Y1421D02*
X77Y1417D01*
X132Y1417D01*
X132Y1421D01*
X77Y1421D01*
G37*
D02*
G36*
X85Y1417D02*
X85Y1412D01*
X132Y1412D01*
X132Y1417D01*
X85Y1417D01*
G37*
D02*
G36*
X94Y1412D02*
X94Y1408D01*
X145Y1408D01*
X145Y1412D01*
X94Y1412D01*
G37*
D02*
G36*
X94Y1412D02*
X94Y1408D01*
X145Y1408D01*
X145Y1412D01*
X94Y1412D01*
G37*
D02*
G36*
X115Y1408D02*
X115Y1404D01*
X123Y1404D01*
X123Y1408D01*
X115Y1408D01*
G37*
D02*
G36*
X102Y1497D02*
X102Y1468D01*
X98Y1468D01*
X98Y1463D01*
X111Y1463D01*
X111Y1468D01*
X106Y1468D01*
X106Y1476D01*
X115Y1476D01*
X115Y1485D01*
X119Y1485D01*
X119Y1497D01*
X102Y1497D01*
G37*
D02*
G36*
X123Y1497D02*
X123Y1476D01*
X132Y1476D01*
X132Y1468D01*
X128Y1468D01*
X128Y1463D01*
X140Y1463D01*
X140Y1497D01*
X123Y1497D01*
G37*
D02*
G36*
X98Y1451D02*
X98Y1446D01*
X102Y1446D01*
X102Y1451D01*
X98Y1451D01*
G37*
D02*
G36*
X136Y1451D02*
X136Y1446D01*
X140Y1446D01*
X140Y1451D01*
X136Y1451D01*
G37*
D02*
G54D12*
X1Y1614D02*
X1299Y1614D01*
X1Y1613D02*
X1299Y1613D01*
X1Y1612D02*
X1299Y1612D01*
X1Y1611D02*
X1299Y1611D01*
X1Y1610D02*
X1299Y1610D01*
X1Y1609D02*
X1299Y1609D01*
X1Y1608D02*
X1299Y1608D01*
X1Y1607D02*
X1299Y1607D01*
X1Y1606D02*
X8Y1606D01*
X1292Y1606D02*
X1299Y1606D01*
X1Y1605D02*
X8Y1605D01*
X1292Y1605D02*
X1299Y1605D01*
X1Y1604D02*
X8Y1604D01*
X1292Y1604D02*
X1299Y1604D01*
X1Y1603D02*
X8Y1603D01*
X1292Y1603D02*
X1299Y1603D01*
X1Y1602D02*
X8Y1602D01*
X1292Y1602D02*
X1299Y1602D01*
X1Y1601D02*
X8Y1601D01*
X1292Y1601D02*
X1299Y1601D01*
X1Y1600D02*
X8Y1600D01*
X1292Y1600D02*
X1299Y1600D01*
X1Y1599D02*
X8Y1599D01*
X1292Y1599D02*
X1299Y1599D01*
X1Y1598D02*
X8Y1598D01*
X1292Y1598D02*
X1299Y1598D01*
X1Y1597D02*
X8Y1597D01*
X1292Y1597D02*
X1299Y1597D01*
X1Y1596D02*
X8Y1596D01*
X1292Y1596D02*
X1299Y1596D01*
X1Y1595D02*
X8Y1595D01*
X1292Y1595D02*
X1299Y1595D01*
X1Y1594D02*
X8Y1594D01*
X1292Y1594D02*
X1299Y1594D01*
X1Y1593D02*
X8Y1593D01*
X1292Y1593D02*
X1299Y1593D01*
X1Y1592D02*
X8Y1592D01*
X1292Y1592D02*
X1299Y1592D01*
X1Y1591D02*
X8Y1591D01*
X1292Y1591D02*
X1299Y1591D01*
X1Y1590D02*
X8Y1590D01*
X1292Y1590D02*
X1299Y1590D01*
X1Y1589D02*
X8Y1589D01*
X1292Y1589D02*
X1299Y1589D01*
X1Y1588D02*
X8Y1588D01*
X1292Y1588D02*
X1299Y1588D01*
X1Y1587D02*
X8Y1587D01*
X1292Y1587D02*
X1299Y1587D01*
X1Y1586D02*
X8Y1586D01*
X1292Y1586D02*
X1299Y1586D01*
X1Y1585D02*
X8Y1585D01*
X1292Y1585D02*
X1299Y1585D01*
X1Y1584D02*
X8Y1584D01*
X1292Y1584D02*
X1299Y1584D01*
X1Y1583D02*
X8Y1583D01*
X1292Y1583D02*
X1299Y1583D01*
X1Y1582D02*
X8Y1582D01*
X1292Y1582D02*
X1299Y1582D01*
X1Y1581D02*
X8Y1581D01*
X1292Y1581D02*
X1299Y1581D01*
X1Y1580D02*
X8Y1580D01*
X1292Y1580D02*
X1299Y1580D01*
X1Y1579D02*
X8Y1579D01*
X1292Y1579D02*
X1299Y1579D01*
X1Y1578D02*
X8Y1578D01*
X1292Y1578D02*
X1299Y1578D01*
X1Y1577D02*
X8Y1577D01*
X1292Y1577D02*
X1299Y1577D01*
X1Y1576D02*
X8Y1576D01*
X1292Y1576D02*
X1299Y1576D01*
X1Y1575D02*
X8Y1575D01*
X1292Y1575D02*
X1299Y1575D01*
X1Y1574D02*
X8Y1574D01*
X1292Y1574D02*
X1299Y1574D01*
X1Y1573D02*
X8Y1573D01*
X1292Y1573D02*
X1299Y1573D01*
X1Y1572D02*
X8Y1572D01*
X1292Y1572D02*
X1299Y1572D01*
X1Y1571D02*
X8Y1571D01*
X1292Y1571D02*
X1299Y1571D01*
X1Y1570D02*
X8Y1570D01*
X1292Y1570D02*
X1299Y1570D01*
X1Y1569D02*
X8Y1569D01*
X1292Y1569D02*
X1299Y1569D01*
X1Y1568D02*
X8Y1568D01*
X1292Y1568D02*
X1299Y1568D01*
X1Y1567D02*
X8Y1567D01*
X1292Y1567D02*
X1299Y1567D01*
X1Y1566D02*
X8Y1566D01*
X1292Y1566D02*
X1299Y1566D01*
X1Y1565D02*
X8Y1565D01*
X1292Y1565D02*
X1299Y1565D01*
X1Y1564D02*
X8Y1564D01*
X1292Y1564D02*
X1299Y1564D01*
X1Y1563D02*
X8Y1563D01*
X1292Y1563D02*
X1299Y1563D01*
X1Y1562D02*
X8Y1562D01*
X1292Y1562D02*
X1299Y1562D01*
X1Y1561D02*
X8Y1561D01*
X1292Y1561D02*
X1299Y1561D01*
X1Y1560D02*
X8Y1560D01*
X1292Y1560D02*
X1299Y1560D01*
X1Y1559D02*
X8Y1559D01*
X1292Y1559D02*
X1299Y1559D01*
X1Y1558D02*
X8Y1558D01*
X1292Y1558D02*
X1299Y1558D01*
X1Y1557D02*
X8Y1557D01*
X1292Y1557D02*
X1299Y1557D01*
X1Y1556D02*
X8Y1556D01*
X1292Y1556D02*
X1299Y1556D01*
X1Y1555D02*
X8Y1555D01*
X1292Y1555D02*
X1299Y1555D01*
X1Y1554D02*
X8Y1554D01*
X1292Y1554D02*
X1299Y1554D01*
X1Y1553D02*
X8Y1553D01*
X1292Y1553D02*
X1299Y1553D01*
X1Y1552D02*
X8Y1552D01*
X1292Y1552D02*
X1299Y1552D01*
X1Y1551D02*
X8Y1551D01*
X1292Y1551D02*
X1299Y1551D01*
X1Y1550D02*
X8Y1550D01*
X1292Y1550D02*
X1299Y1550D01*
X1Y1549D02*
X8Y1549D01*
X1292Y1549D02*
X1299Y1549D01*
X1Y1548D02*
X8Y1548D01*
X1292Y1548D02*
X1299Y1548D01*
X1Y1547D02*
X8Y1547D01*
X1292Y1547D02*
X1299Y1547D01*
X1Y1546D02*
X8Y1546D01*
X1292Y1546D02*
X1299Y1546D01*
X1Y1545D02*
X8Y1545D01*
X1292Y1545D02*
X1299Y1545D01*
X1Y1544D02*
X8Y1544D01*
X1292Y1544D02*
X1299Y1544D01*
X1Y1543D02*
X8Y1543D01*
X1292Y1543D02*
X1299Y1543D01*
X1Y1542D02*
X8Y1542D01*
X1292Y1542D02*
X1299Y1542D01*
X1Y1541D02*
X8Y1541D01*
X1292Y1541D02*
X1299Y1541D01*
X1Y1540D02*
X8Y1540D01*
X1292Y1540D02*
X1299Y1540D01*
X1Y1539D02*
X8Y1539D01*
X1292Y1539D02*
X1299Y1539D01*
X1Y1538D02*
X8Y1538D01*
X1292Y1538D02*
X1299Y1538D01*
X1Y1537D02*
X8Y1537D01*
X1292Y1537D02*
X1299Y1537D01*
X1Y1536D02*
X8Y1536D01*
X1292Y1536D02*
X1299Y1536D01*
X1Y1535D02*
X8Y1535D01*
X1292Y1535D02*
X1299Y1535D01*
X1Y1534D02*
X8Y1534D01*
X1292Y1534D02*
X1299Y1534D01*
X1Y1533D02*
X8Y1533D01*
X1292Y1533D02*
X1299Y1533D01*
X1Y1532D02*
X8Y1532D01*
X1292Y1532D02*
X1299Y1532D01*
X1Y1531D02*
X8Y1531D01*
X1292Y1531D02*
X1299Y1531D01*
X1Y1530D02*
X8Y1530D01*
X1292Y1530D02*
X1299Y1530D01*
X1Y1529D02*
X8Y1529D01*
X1292Y1529D02*
X1299Y1529D01*
X1Y1528D02*
X8Y1528D01*
X1292Y1528D02*
X1299Y1528D01*
X1Y1527D02*
X8Y1527D01*
X1292Y1527D02*
X1299Y1527D01*
X1Y1526D02*
X8Y1526D01*
X1292Y1526D02*
X1299Y1526D01*
X1Y1525D02*
X8Y1525D01*
X1292Y1525D02*
X1299Y1525D01*
X1Y1524D02*
X8Y1524D01*
X1292Y1524D02*
X1299Y1524D01*
X1Y1523D02*
X8Y1523D01*
X1292Y1523D02*
X1299Y1523D01*
X1Y1522D02*
X8Y1522D01*
X1292Y1522D02*
X1299Y1522D01*
X1Y1521D02*
X8Y1521D01*
X1292Y1521D02*
X1299Y1521D01*
X1Y1520D02*
X8Y1520D01*
X1292Y1520D02*
X1299Y1520D01*
X1Y1519D02*
X8Y1519D01*
X1292Y1519D02*
X1299Y1519D01*
X1Y1518D02*
X8Y1518D01*
X1292Y1518D02*
X1299Y1518D01*
X1Y1517D02*
X8Y1517D01*
X1292Y1517D02*
X1299Y1517D01*
X1Y1516D02*
X8Y1516D01*
X1292Y1516D02*
X1299Y1516D01*
X1Y1515D02*
X8Y1515D01*
X1292Y1515D02*
X1299Y1515D01*
X1Y1514D02*
X8Y1514D01*
X1292Y1514D02*
X1299Y1514D01*
X1Y1513D02*
X8Y1513D01*
X1292Y1513D02*
X1299Y1513D01*
X1Y1512D02*
X8Y1512D01*
X1292Y1512D02*
X1299Y1512D01*
X1Y1511D02*
X8Y1511D01*
X1292Y1511D02*
X1299Y1511D01*
X1Y1510D02*
X8Y1510D01*
X1292Y1510D02*
X1299Y1510D01*
X1Y1509D02*
X8Y1509D01*
X1292Y1509D02*
X1299Y1509D01*
X1Y1508D02*
X8Y1508D01*
X1136Y1508D02*
X1136Y1508D01*
X1292Y1508D02*
X1299Y1508D01*
X1Y1507D02*
X8Y1507D01*
X1135Y1507D02*
X1137Y1507D01*
X1292Y1507D02*
X1299Y1507D01*
X1Y1506D02*
X8Y1506D01*
X1134Y1506D02*
X1138Y1506D01*
X1292Y1506D02*
X1299Y1506D01*
X1Y1505D02*
X8Y1505D01*
X1133Y1505D02*
X1139Y1505D01*
X1292Y1505D02*
X1299Y1505D01*
X1Y1504D02*
X8Y1504D01*
X1134Y1504D02*
X1140Y1504D01*
X1292Y1504D02*
X1299Y1504D01*
X1Y1503D02*
X8Y1503D01*
X1135Y1503D02*
X1141Y1503D01*
X1292Y1503D02*
X1299Y1503D01*
X1Y1502D02*
X8Y1502D01*
X1136Y1502D02*
X1142Y1502D01*
X1292Y1502D02*
X1299Y1502D01*
X1Y1501D02*
X8Y1501D01*
X1137Y1501D02*
X1143Y1501D01*
X1292Y1501D02*
X1299Y1501D01*
X1Y1500D02*
X8Y1500D01*
X1138Y1500D02*
X1144Y1500D01*
X1292Y1500D02*
X1299Y1500D01*
X1Y1499D02*
X8Y1499D01*
X1139Y1499D02*
X1145Y1499D01*
X1292Y1499D02*
X1299Y1499D01*
X1Y1498D02*
X8Y1498D01*
X1140Y1498D02*
X1146Y1498D01*
X1292Y1498D02*
X1299Y1498D01*
X1Y1497D02*
X8Y1497D01*
X1141Y1497D02*
X1147Y1497D01*
X1292Y1497D02*
X1299Y1497D01*
X1Y1496D02*
X8Y1496D01*
X1142Y1496D02*
X1148Y1496D01*
X1292Y1496D02*
X1299Y1496D01*
X1Y1495D02*
X8Y1495D01*
X1143Y1495D02*
X1149Y1495D01*
X1292Y1495D02*
X1299Y1495D01*
X1Y1494D02*
X8Y1494D01*
X1144Y1494D02*
X1150Y1494D01*
X1292Y1494D02*
X1299Y1494D01*
X1Y1493D02*
X8Y1493D01*
X1145Y1493D02*
X1151Y1493D01*
X1292Y1493D02*
X1299Y1493D01*
X1Y1492D02*
X8Y1492D01*
X1146Y1492D02*
X1152Y1492D01*
X1292Y1492D02*
X1299Y1492D01*
X1Y1491D02*
X8Y1491D01*
X1148Y1491D02*
X1153Y1491D01*
X1292Y1491D02*
X1299Y1491D01*
X1Y1490D02*
X8Y1490D01*
X1149Y1490D02*
X1154Y1490D01*
X1292Y1490D02*
X1299Y1490D01*
X1Y1489D02*
X8Y1489D01*
X1150Y1489D02*
X1155Y1489D01*
X1292Y1489D02*
X1299Y1489D01*
X1Y1488D02*
X8Y1488D01*
X1151Y1488D02*
X1156Y1488D01*
X1292Y1488D02*
X1299Y1488D01*
X1Y1487D02*
X8Y1487D01*
X1152Y1487D02*
X1157Y1487D01*
X1292Y1487D02*
X1299Y1487D01*
X1Y1486D02*
X8Y1486D01*
X1153Y1486D02*
X1158Y1486D01*
X1292Y1486D02*
X1299Y1486D01*
X1Y1485D02*
X8Y1485D01*
X1154Y1485D02*
X1159Y1485D01*
X1292Y1485D02*
X1299Y1485D01*
X1Y1484D02*
X8Y1484D01*
X1154Y1484D02*
X1160Y1484D01*
X1292Y1484D02*
X1299Y1484D01*
X1Y1483D02*
X8Y1483D01*
X1155Y1483D02*
X1161Y1483D01*
X1292Y1483D02*
X1299Y1483D01*
X1Y1482D02*
X8Y1482D01*
X1156Y1482D02*
X1162Y1482D01*
X1292Y1482D02*
X1299Y1482D01*
X1Y1481D02*
X8Y1481D01*
X1157Y1481D02*
X1163Y1481D01*
X1292Y1481D02*
X1299Y1481D01*
X1Y1480D02*
X8Y1480D01*
X1158Y1480D02*
X1164Y1480D01*
X1292Y1480D02*
X1299Y1480D01*
X1Y1479D02*
X8Y1479D01*
X1159Y1479D02*
X1165Y1479D01*
X1292Y1479D02*
X1299Y1479D01*
X1Y1478D02*
X8Y1478D01*
X1160Y1478D02*
X1166Y1478D01*
X1292Y1478D02*
X1299Y1478D01*
X1Y1477D02*
X8Y1477D01*
X1161Y1477D02*
X1167Y1477D01*
X1292Y1477D02*
X1299Y1477D01*
X1Y1476D02*
X8Y1476D01*
X1162Y1476D02*
X1168Y1476D01*
X1292Y1476D02*
X1299Y1476D01*
X1Y1475D02*
X8Y1475D01*
X1163Y1475D02*
X1169Y1475D01*
X1292Y1475D02*
X1299Y1475D01*
X1Y1474D02*
X8Y1474D01*
X1164Y1474D02*
X1170Y1474D01*
X1292Y1474D02*
X1299Y1474D01*
X1Y1473D02*
X8Y1473D01*
X1165Y1473D02*
X1170Y1473D01*
X1292Y1473D02*
X1299Y1473D01*
X1Y1472D02*
X8Y1472D01*
X1166Y1472D02*
X1169Y1472D01*
X1292Y1472D02*
X1299Y1472D01*
X1Y1471D02*
X8Y1471D01*
X1167Y1471D02*
X1168Y1471D01*
X1292Y1471D02*
X1299Y1471D01*
X1Y1470D02*
X8Y1470D01*
X1292Y1470D02*
X1299Y1470D01*
X1Y1469D02*
X8Y1469D01*
X1292Y1469D02*
X1299Y1469D01*
X1Y1468D02*
X8Y1468D01*
X1292Y1468D02*
X1299Y1468D01*
X1Y1467D02*
X8Y1467D01*
X1292Y1467D02*
X1299Y1467D01*
X1Y1466D02*
X8Y1466D01*
X1292Y1466D02*
X1299Y1466D01*
X1Y1465D02*
X8Y1465D01*
X1292Y1465D02*
X1299Y1465D01*
X1Y1464D02*
X8Y1464D01*
X1292Y1464D02*
X1299Y1464D01*
X1Y1463D02*
X8Y1463D01*
X1292Y1463D02*
X1299Y1463D01*
X1Y1462D02*
X8Y1462D01*
X1292Y1462D02*
X1299Y1462D01*
X1Y1461D02*
X8Y1461D01*
X1292Y1461D02*
X1299Y1461D01*
X1Y1460D02*
X8Y1460D01*
X1292Y1460D02*
X1299Y1460D01*
X1Y1459D02*
X8Y1459D01*
X1292Y1459D02*
X1299Y1459D01*
X1Y1458D02*
X8Y1458D01*
X1292Y1458D02*
X1299Y1458D01*
X1Y1457D02*
X8Y1457D01*
X1292Y1457D02*
X1299Y1457D01*
X1Y1456D02*
X8Y1456D01*
X1292Y1456D02*
X1299Y1456D01*
X1Y1455D02*
X8Y1455D01*
X1292Y1455D02*
X1299Y1455D01*
X1Y1454D02*
X8Y1454D01*
X1292Y1454D02*
X1299Y1454D01*
X1Y1453D02*
X8Y1453D01*
X1292Y1453D02*
X1299Y1453D01*
X1Y1452D02*
X8Y1452D01*
X1292Y1452D02*
X1299Y1452D01*
X1Y1451D02*
X8Y1451D01*
X1292Y1451D02*
X1299Y1451D01*
X1Y1450D02*
X8Y1450D01*
X1292Y1450D02*
X1299Y1450D01*
X1Y1449D02*
X8Y1449D01*
X1292Y1449D02*
X1299Y1449D01*
X1Y1448D02*
X8Y1448D01*
X1292Y1448D02*
X1299Y1448D01*
X1Y1447D02*
X8Y1447D01*
X1292Y1447D02*
X1299Y1447D01*
X1Y1446D02*
X8Y1446D01*
X1292Y1446D02*
X1299Y1446D01*
X1Y1445D02*
X8Y1445D01*
X1292Y1445D02*
X1299Y1445D01*
X1Y1444D02*
X8Y1444D01*
X1292Y1444D02*
X1299Y1444D01*
X1Y1443D02*
X8Y1443D01*
X1292Y1443D02*
X1299Y1443D01*
X1Y1442D02*
X8Y1442D01*
X1292Y1442D02*
X1299Y1442D01*
X1Y1441D02*
X8Y1441D01*
X1292Y1441D02*
X1299Y1441D01*
X1Y1440D02*
X8Y1440D01*
X1292Y1440D02*
X1299Y1440D01*
X1Y1439D02*
X8Y1439D01*
X1292Y1439D02*
X1299Y1439D01*
X1Y1438D02*
X8Y1438D01*
X1292Y1438D02*
X1299Y1438D01*
X1Y1437D02*
X8Y1437D01*
X1292Y1437D02*
X1299Y1437D01*
X1Y1436D02*
X8Y1436D01*
X1292Y1436D02*
X1299Y1436D01*
X1Y1435D02*
X8Y1435D01*
X1292Y1435D02*
X1299Y1435D01*
X1Y1434D02*
X8Y1434D01*
X1292Y1434D02*
X1299Y1434D01*
X1Y1433D02*
X8Y1433D01*
X1292Y1433D02*
X1299Y1433D01*
X1Y1432D02*
X8Y1432D01*
X1292Y1432D02*
X1299Y1432D01*
X1Y1431D02*
X8Y1431D01*
X1292Y1431D02*
X1299Y1431D01*
X1Y1430D02*
X8Y1430D01*
X1292Y1430D02*
X1299Y1430D01*
X1Y1429D02*
X8Y1429D01*
X1292Y1429D02*
X1299Y1429D01*
X1Y1428D02*
X8Y1428D01*
X1292Y1428D02*
X1299Y1428D01*
X1Y1427D02*
X8Y1427D01*
X1292Y1427D02*
X1299Y1427D01*
X1Y1426D02*
X8Y1426D01*
X1292Y1426D02*
X1299Y1426D01*
X1Y1425D02*
X8Y1425D01*
X1292Y1425D02*
X1299Y1425D01*
X1Y1424D02*
X8Y1424D01*
X1292Y1424D02*
X1299Y1424D01*
X1Y1423D02*
X8Y1423D01*
X1292Y1423D02*
X1299Y1423D01*
X1Y1422D02*
X8Y1422D01*
X1292Y1422D02*
X1299Y1422D01*
X1Y1421D02*
X8Y1421D01*
X1292Y1421D02*
X1299Y1421D01*
X1Y1420D02*
X8Y1420D01*
X1292Y1420D02*
X1299Y1420D01*
X1Y1419D02*
X8Y1419D01*
X1292Y1419D02*
X1299Y1419D01*
X1Y1418D02*
X8Y1418D01*
X1292Y1418D02*
X1299Y1418D01*
X1Y1417D02*
X8Y1417D01*
X1292Y1417D02*
X1299Y1417D01*
X1Y1416D02*
X8Y1416D01*
X1292Y1416D02*
X1299Y1416D01*
X1Y1415D02*
X8Y1415D01*
X1292Y1415D02*
X1299Y1415D01*
X1Y1414D02*
X8Y1414D01*
X1292Y1414D02*
X1299Y1414D01*
X1Y1413D02*
X8Y1413D01*
X1292Y1413D02*
X1299Y1413D01*
X1Y1412D02*
X8Y1412D01*
X1292Y1412D02*
X1299Y1412D01*
X1Y1411D02*
X8Y1411D01*
X207Y1411D02*
X232Y1411D01*
X1292Y1411D02*
X1299Y1411D01*
X1Y1410D02*
X8Y1410D01*
X201Y1410D02*
X238Y1410D01*
X1292Y1410D02*
X1299Y1410D01*
X1Y1409D02*
X8Y1409D01*
X196Y1409D02*
X243Y1409D01*
X1292Y1409D02*
X1299Y1409D01*
X1Y1408D02*
X8Y1408D01*
X192Y1408D02*
X247Y1408D01*
X1136Y1408D02*
X1136Y1408D01*
X1292Y1408D02*
X1299Y1408D01*
X1Y1407D02*
X8Y1407D01*
X189Y1407D02*
X250Y1407D01*
X1135Y1407D02*
X1137Y1407D01*
X1292Y1407D02*
X1299Y1407D01*
X1Y1406D02*
X8Y1406D01*
X186Y1406D02*
X253Y1406D01*
X1134Y1406D02*
X1138Y1406D01*
X1292Y1406D02*
X1299Y1406D01*
X1Y1405D02*
X8Y1405D01*
X183Y1405D02*
X256Y1405D01*
X1133Y1405D02*
X1139Y1405D01*
X1292Y1405D02*
X1299Y1405D01*
X1Y1404D02*
X8Y1404D01*
X181Y1404D02*
X259Y1404D01*
X1134Y1404D02*
X1140Y1404D01*
X1292Y1404D02*
X1299Y1404D01*
X1Y1403D02*
X8Y1403D01*
X178Y1403D02*
X261Y1403D01*
X1135Y1403D02*
X1141Y1403D01*
X1292Y1403D02*
X1299Y1403D01*
X1Y1402D02*
X8Y1402D01*
X176Y1402D02*
X263Y1402D01*
X1136Y1402D02*
X1142Y1402D01*
X1292Y1402D02*
X1299Y1402D01*
X1Y1401D02*
X8Y1401D01*
X174Y1401D02*
X207Y1401D01*
X233Y1401D02*
X265Y1401D01*
X1137Y1401D02*
X1143Y1401D01*
X1292Y1401D02*
X1299Y1401D01*
X1Y1400D02*
X8Y1400D01*
X172Y1400D02*
X200Y1400D01*
X239Y1400D02*
X267Y1400D01*
X1138Y1400D02*
X1144Y1400D01*
X1292Y1400D02*
X1299Y1400D01*
X1Y1399D02*
X8Y1399D01*
X170Y1399D02*
X177Y1399D01*
X262Y1399D02*
X269Y1399D01*
X1139Y1399D02*
X1145Y1399D01*
X1292Y1399D02*
X1299Y1399D01*
X1Y1398D02*
X8Y1398D01*
X168Y1398D02*
X177Y1398D01*
X263Y1398D02*
X271Y1398D01*
X1140Y1398D02*
X1146Y1398D01*
X1292Y1398D02*
X1299Y1398D01*
X1Y1397D02*
X8Y1397D01*
X167Y1397D02*
X177Y1397D01*
X263Y1397D02*
X273Y1397D01*
X1141Y1397D02*
X1147Y1397D01*
X1292Y1397D02*
X1299Y1397D01*
X1Y1396D02*
X8Y1396D01*
X165Y1396D02*
X177Y1396D01*
X263Y1396D02*
X274Y1396D01*
X1142Y1396D02*
X1148Y1396D01*
X1292Y1396D02*
X1299Y1396D01*
X1Y1395D02*
X8Y1395D01*
X163Y1395D02*
X177Y1395D01*
X263Y1395D02*
X276Y1395D01*
X1143Y1395D02*
X1149Y1395D01*
X1292Y1395D02*
X1299Y1395D01*
X1Y1394D02*
X8Y1394D01*
X162Y1394D02*
X177Y1394D01*
X263Y1394D02*
X277Y1394D01*
X1144Y1394D02*
X1150Y1394D01*
X1292Y1394D02*
X1299Y1394D01*
X1Y1393D02*
X8Y1393D01*
X160Y1393D02*
X177Y1393D01*
X263Y1393D02*
X279Y1393D01*
X1145Y1393D02*
X1151Y1393D01*
X1292Y1393D02*
X1299Y1393D01*
X1Y1392D02*
X8Y1392D01*
X159Y1392D02*
X177Y1392D01*
X263Y1392D02*
X280Y1392D01*
X1146Y1392D02*
X1152Y1392D01*
X1292Y1392D02*
X1299Y1392D01*
X1Y1391D02*
X8Y1391D01*
X158Y1391D02*
X175Y1391D01*
X264Y1391D02*
X282Y1391D01*
X1148Y1391D02*
X1153Y1391D01*
X1292Y1391D02*
X1299Y1391D01*
X1Y1390D02*
X8Y1390D01*
X156Y1390D02*
X173Y1390D01*
X266Y1390D02*
X283Y1390D01*
X1149Y1390D02*
X1154Y1390D01*
X1292Y1390D02*
X1299Y1390D01*
X1Y1389D02*
X8Y1389D01*
X155Y1389D02*
X171Y1389D01*
X268Y1389D02*
X284Y1389D01*
X1150Y1389D02*
X1155Y1389D01*
X1292Y1389D02*
X1299Y1389D01*
X1Y1388D02*
X8Y1388D01*
X154Y1388D02*
X170Y1388D01*
X269Y1388D02*
X286Y1388D01*
X1151Y1388D02*
X1156Y1388D01*
X1292Y1388D02*
X1299Y1388D01*
X1Y1387D02*
X8Y1387D01*
X152Y1387D02*
X168Y1387D01*
X271Y1387D02*
X287Y1387D01*
X1152Y1387D02*
X1157Y1387D01*
X1292Y1387D02*
X1299Y1387D01*
X1Y1386D02*
X8Y1386D01*
X151Y1386D02*
X167Y1386D01*
X273Y1386D02*
X288Y1386D01*
X1153Y1386D02*
X1158Y1386D01*
X1292Y1386D02*
X1299Y1386D01*
X1Y1385D02*
X8Y1385D01*
X150Y1385D02*
X165Y1385D01*
X274Y1385D02*
X289Y1385D01*
X1154Y1385D02*
X1159Y1385D01*
X1292Y1385D02*
X1299Y1385D01*
X1Y1384D02*
X8Y1384D01*
X149Y1384D02*
X164Y1384D01*
X275Y1384D02*
X290Y1384D01*
X1154Y1384D02*
X1160Y1384D01*
X1292Y1384D02*
X1299Y1384D01*
X1Y1383D02*
X8Y1383D01*
X148Y1383D02*
X162Y1383D01*
X277Y1383D02*
X291Y1383D01*
X1155Y1383D02*
X1161Y1383D01*
X1292Y1383D02*
X1299Y1383D01*
X1Y1382D02*
X8Y1382D01*
X147Y1382D02*
X161Y1382D01*
X278Y1382D02*
X292Y1382D01*
X1156Y1382D02*
X1162Y1382D01*
X1292Y1382D02*
X1299Y1382D01*
X1Y1381D02*
X8Y1381D01*
X146Y1381D02*
X160Y1381D01*
X279Y1381D02*
X293Y1381D01*
X1157Y1381D02*
X1163Y1381D01*
X1292Y1381D02*
X1299Y1381D01*
X1Y1380D02*
X8Y1380D01*
X145Y1380D02*
X159Y1380D01*
X281Y1380D02*
X294Y1380D01*
X1158Y1380D02*
X1164Y1380D01*
X1292Y1380D02*
X1299Y1380D01*
X1Y1379D02*
X8Y1379D01*
X144Y1379D02*
X157Y1379D01*
X282Y1379D02*
X295Y1379D01*
X1159Y1379D02*
X1165Y1379D01*
X1292Y1379D02*
X1299Y1379D01*
X1Y1378D02*
X8Y1378D01*
X143Y1378D02*
X156Y1378D01*
X283Y1378D02*
X296Y1378D01*
X1160Y1378D02*
X1166Y1378D01*
X1292Y1378D02*
X1299Y1378D01*
X1Y1377D02*
X8Y1377D01*
X142Y1377D02*
X155Y1377D01*
X163Y1377D02*
X166Y1377D01*
X273Y1377D02*
X276Y1377D01*
X284Y1377D02*
X297Y1377D01*
X1161Y1377D02*
X1167Y1377D01*
X1292Y1377D02*
X1299Y1377D01*
X1Y1376D02*
X8Y1376D01*
X141Y1376D02*
X154Y1376D01*
X162Y1376D02*
X168Y1376D01*
X272Y1376D02*
X278Y1376D01*
X285Y1376D02*
X298Y1376D01*
X1162Y1376D02*
X1168Y1376D01*
X1292Y1376D02*
X1299Y1376D01*
X1Y1375D02*
X8Y1375D01*
X140Y1375D02*
X153Y1375D01*
X161Y1375D02*
X168Y1375D01*
X271Y1375D02*
X278Y1375D01*
X286Y1375D02*
X299Y1375D01*
X1163Y1375D02*
X1169Y1375D01*
X1292Y1375D02*
X1299Y1375D01*
X1Y1374D02*
X8Y1374D01*
X139Y1374D02*
X152Y1374D01*
X160Y1374D02*
X169Y1374D01*
X270Y1374D02*
X279Y1374D01*
X287Y1374D02*
X300Y1374D01*
X1164Y1374D02*
X1170Y1374D01*
X1292Y1374D02*
X1299Y1374D01*
X1Y1373D02*
X8Y1373D01*
X139Y1373D02*
X151Y1373D01*
X160Y1373D02*
X169Y1373D01*
X270Y1373D02*
X279Y1373D01*
X288Y1373D02*
X301Y1373D01*
X1165Y1373D02*
X1170Y1373D01*
X1292Y1373D02*
X1299Y1373D01*
X1Y1372D02*
X8Y1372D01*
X138Y1372D02*
X150Y1372D01*
X160Y1372D02*
X170Y1372D01*
X270Y1372D02*
X280Y1372D01*
X289Y1372D02*
X301Y1372D01*
X1166Y1372D02*
X1169Y1372D01*
X1292Y1372D02*
X1299Y1372D01*
X1Y1371D02*
X8Y1371D01*
X137Y1371D02*
X149Y1371D01*
X160Y1371D02*
X170Y1371D01*
X270Y1371D02*
X280Y1371D01*
X290Y1371D02*
X302Y1371D01*
X1167Y1371D02*
X1168Y1371D01*
X1292Y1371D02*
X1299Y1371D01*
X1Y1370D02*
X8Y1370D01*
X136Y1370D02*
X148Y1370D01*
X160Y1370D02*
X170Y1370D01*
X270Y1370D02*
X280Y1370D01*
X291Y1370D02*
X303Y1370D01*
X1292Y1370D02*
X1299Y1370D01*
X1Y1369D02*
X8Y1369D01*
X136Y1369D02*
X147Y1369D01*
X160Y1369D02*
X170Y1369D01*
X270Y1369D02*
X280Y1369D01*
X292Y1369D02*
X303Y1369D01*
X1292Y1369D02*
X1299Y1369D01*
X1Y1368D02*
X8Y1368D01*
X135Y1368D02*
X146Y1368D01*
X160Y1368D02*
X170Y1368D01*
X270Y1368D02*
X280Y1368D01*
X293Y1368D02*
X304Y1368D01*
X1292Y1368D02*
X1299Y1368D01*
X1Y1367D02*
X8Y1367D01*
X134Y1367D02*
X146Y1367D01*
X160Y1367D02*
X170Y1367D01*
X270Y1367D02*
X280Y1367D01*
X294Y1367D02*
X305Y1367D01*
X1292Y1367D02*
X1299Y1367D01*
X1Y1366D02*
X8Y1366D01*
X133Y1366D02*
X145Y1366D01*
X160Y1366D02*
X170Y1366D01*
X270Y1366D02*
X280Y1366D01*
X294Y1366D02*
X306Y1366D01*
X1292Y1366D02*
X1299Y1366D01*
X1Y1365D02*
X8Y1365D01*
X133Y1365D02*
X144Y1365D01*
X160Y1365D02*
X170Y1365D01*
X270Y1365D02*
X280Y1365D01*
X295Y1365D02*
X306Y1365D01*
X1292Y1365D02*
X1299Y1365D01*
X1Y1364D02*
X8Y1364D01*
X132Y1364D02*
X143Y1364D01*
X160Y1364D02*
X170Y1364D01*
X270Y1364D02*
X280Y1364D01*
X296Y1364D02*
X307Y1364D01*
X1292Y1364D02*
X1299Y1364D01*
X1Y1363D02*
X8Y1363D01*
X132Y1363D02*
X143Y1363D01*
X160Y1363D02*
X170Y1363D01*
X270Y1363D02*
X280Y1363D01*
X297Y1363D02*
X308Y1363D01*
X1292Y1363D02*
X1299Y1363D01*
X1Y1362D02*
X8Y1362D01*
X131Y1362D02*
X142Y1362D01*
X160Y1362D02*
X170Y1362D01*
X270Y1362D02*
X280Y1362D01*
X297Y1362D02*
X308Y1362D01*
X1292Y1362D02*
X1299Y1362D01*
X1Y1361D02*
X8Y1361D01*
X130Y1361D02*
X141Y1361D01*
X160Y1361D02*
X170Y1361D01*
X270Y1361D02*
X280Y1361D01*
X298Y1361D02*
X309Y1361D01*
X1292Y1361D02*
X1299Y1361D01*
X1Y1360D02*
X8Y1360D01*
X130Y1360D02*
X140Y1360D01*
X160Y1360D02*
X170Y1360D01*
X270Y1360D02*
X280Y1360D01*
X299Y1360D02*
X309Y1360D01*
X1292Y1360D02*
X1299Y1360D01*
X1Y1359D02*
X8Y1359D01*
X129Y1359D02*
X140Y1359D01*
X160Y1359D02*
X170Y1359D01*
X270Y1359D02*
X280Y1359D01*
X299Y1359D02*
X310Y1359D01*
X1292Y1359D02*
X1299Y1359D01*
X1Y1358D02*
X8Y1358D01*
X129Y1358D02*
X139Y1358D01*
X160Y1358D02*
X170Y1358D01*
X270Y1358D02*
X280Y1358D01*
X300Y1358D02*
X311Y1358D01*
X1292Y1358D02*
X1299Y1358D01*
X1Y1357D02*
X8Y1357D01*
X128Y1357D02*
X138Y1357D01*
X160Y1357D02*
X170Y1357D01*
X270Y1357D02*
X280Y1357D01*
X301Y1357D02*
X311Y1357D01*
X1292Y1357D02*
X1299Y1357D01*
X1Y1356D02*
X8Y1356D01*
X127Y1356D02*
X138Y1356D01*
X160Y1356D02*
X170Y1356D01*
X270Y1356D02*
X280Y1356D01*
X301Y1356D02*
X312Y1356D01*
X1292Y1356D02*
X1299Y1356D01*
X1Y1355D02*
X8Y1355D01*
X127Y1355D02*
X137Y1355D01*
X160Y1355D02*
X170Y1355D01*
X270Y1355D02*
X280Y1355D01*
X302Y1355D02*
X312Y1355D01*
X1292Y1355D02*
X1299Y1355D01*
X1Y1354D02*
X8Y1354D01*
X126Y1354D02*
X137Y1354D01*
X160Y1354D02*
X170Y1354D01*
X270Y1354D02*
X280Y1354D01*
X303Y1354D02*
X313Y1354D01*
X1292Y1354D02*
X1299Y1354D01*
X1Y1353D02*
X8Y1353D01*
X126Y1353D02*
X136Y1353D01*
X160Y1353D02*
X170Y1353D01*
X270Y1353D02*
X280Y1353D01*
X303Y1353D02*
X313Y1353D01*
X1292Y1353D02*
X1299Y1353D01*
X1Y1352D02*
X8Y1352D01*
X126Y1352D02*
X135Y1352D01*
X160Y1352D02*
X170Y1352D01*
X270Y1352D02*
X280Y1352D01*
X304Y1352D02*
X314Y1352D01*
X1292Y1352D02*
X1299Y1352D01*
X1Y1351D02*
X8Y1351D01*
X125Y1351D02*
X135Y1351D01*
X160Y1351D02*
X170Y1351D01*
X270Y1351D02*
X280Y1351D01*
X304Y1351D02*
X314Y1351D01*
X1292Y1351D02*
X1299Y1351D01*
X1Y1350D02*
X8Y1350D01*
X125Y1350D02*
X134Y1350D01*
X160Y1350D02*
X170Y1350D01*
X270Y1350D02*
X280Y1350D01*
X305Y1350D02*
X315Y1350D01*
X1292Y1350D02*
X1299Y1350D01*
X1Y1349D02*
X8Y1349D01*
X124Y1349D02*
X134Y1349D01*
X160Y1349D02*
X170Y1349D01*
X270Y1349D02*
X280Y1349D01*
X305Y1349D02*
X315Y1349D01*
X1292Y1349D02*
X1299Y1349D01*
X1Y1348D02*
X8Y1348D01*
X124Y1348D02*
X133Y1348D01*
X160Y1348D02*
X170Y1348D01*
X270Y1348D02*
X280Y1348D01*
X306Y1348D02*
X316Y1348D01*
X1292Y1348D02*
X1299Y1348D01*
X1Y1347D02*
X8Y1347D01*
X123Y1347D02*
X133Y1347D01*
X160Y1347D02*
X170Y1347D01*
X270Y1347D02*
X280Y1347D01*
X306Y1347D02*
X316Y1347D01*
X1292Y1347D02*
X1299Y1347D01*
X1Y1346D02*
X8Y1346D01*
X123Y1346D02*
X133Y1346D01*
X160Y1346D02*
X170Y1346D01*
X270Y1346D02*
X280Y1346D01*
X307Y1346D02*
X316Y1346D01*
X1292Y1346D02*
X1299Y1346D01*
X1Y1345D02*
X8Y1345D01*
X122Y1345D02*
X132Y1345D01*
X160Y1345D02*
X170Y1345D01*
X270Y1345D02*
X280Y1345D01*
X307Y1345D02*
X317Y1345D01*
X1292Y1345D02*
X1299Y1345D01*
X1Y1344D02*
X8Y1344D01*
X122Y1344D02*
X132Y1344D01*
X160Y1344D02*
X170Y1344D01*
X270Y1344D02*
X280Y1344D01*
X308Y1344D02*
X317Y1344D01*
X1292Y1344D02*
X1299Y1344D01*
X1Y1343D02*
X8Y1343D01*
X122Y1343D02*
X131Y1343D01*
X160Y1343D02*
X170Y1343D01*
X270Y1343D02*
X280Y1343D01*
X308Y1343D02*
X318Y1343D01*
X1292Y1343D02*
X1299Y1343D01*
X1Y1342D02*
X8Y1342D01*
X121Y1342D02*
X131Y1342D01*
X160Y1342D02*
X170Y1342D01*
X270Y1342D02*
X280Y1342D01*
X308Y1342D02*
X318Y1342D01*
X1292Y1342D02*
X1299Y1342D01*
X1Y1341D02*
X8Y1341D01*
X121Y1341D02*
X130Y1341D01*
X160Y1341D02*
X169Y1341D01*
X270Y1341D02*
X279Y1341D01*
X309Y1341D02*
X318Y1341D01*
X1292Y1341D02*
X1299Y1341D01*
X1Y1340D02*
X8Y1340D01*
X121Y1340D02*
X130Y1340D01*
X160Y1340D02*
X169Y1340D01*
X270Y1340D02*
X279Y1340D01*
X309Y1340D02*
X319Y1340D01*
X1292Y1340D02*
X1299Y1340D01*
X1Y1339D02*
X8Y1339D01*
X120Y1339D02*
X130Y1339D01*
X160Y1339D02*
X169Y1339D01*
X270Y1339D02*
X279Y1339D01*
X309Y1339D02*
X319Y1339D01*
X1292Y1339D02*
X1299Y1339D01*
X1Y1338D02*
X8Y1338D01*
X120Y1338D02*
X129Y1338D01*
X161Y1338D02*
X168Y1338D01*
X271Y1338D02*
X278Y1338D01*
X310Y1338D02*
X319Y1338D01*
X1292Y1338D02*
X1299Y1338D01*
X1Y1337D02*
X8Y1337D01*
X120Y1337D02*
X129Y1337D01*
X163Y1337D02*
X167Y1337D01*
X273Y1337D02*
X277Y1337D01*
X310Y1337D02*
X320Y1337D01*
X1292Y1337D02*
X1299Y1337D01*
X1Y1336D02*
X8Y1336D01*
X119Y1336D02*
X129Y1336D01*
X311Y1336D02*
X320Y1336D01*
X1292Y1336D02*
X1299Y1336D01*
X1Y1335D02*
X8Y1335D01*
X119Y1335D02*
X128Y1335D01*
X311Y1335D02*
X320Y1335D01*
X1292Y1335D02*
X1299Y1335D01*
X1Y1334D02*
X8Y1334D01*
X119Y1334D02*
X128Y1334D01*
X311Y1334D02*
X320Y1334D01*
X1292Y1334D02*
X1299Y1334D01*
X1Y1333D02*
X8Y1333D01*
X118Y1333D02*
X128Y1333D01*
X311Y1333D02*
X321Y1333D01*
X1292Y1333D02*
X1299Y1333D01*
X1Y1332D02*
X8Y1332D01*
X118Y1332D02*
X127Y1332D01*
X312Y1332D02*
X321Y1332D01*
X1292Y1332D02*
X1299Y1332D01*
X1Y1331D02*
X8Y1331D01*
X118Y1331D02*
X127Y1331D01*
X312Y1331D02*
X321Y1331D01*
X1292Y1331D02*
X1299Y1331D01*
X1Y1330D02*
X8Y1330D01*
X118Y1330D02*
X127Y1330D01*
X312Y1330D02*
X321Y1330D01*
X1292Y1330D02*
X1299Y1330D01*
X1Y1329D02*
X8Y1329D01*
X118Y1329D02*
X127Y1329D01*
X312Y1329D02*
X322Y1329D01*
X1292Y1329D02*
X1299Y1329D01*
X1Y1328D02*
X8Y1328D01*
X117Y1328D02*
X126Y1328D01*
X313Y1328D02*
X322Y1328D01*
X1292Y1328D02*
X1299Y1328D01*
X1Y1327D02*
X8Y1327D01*
X117Y1327D02*
X126Y1327D01*
X313Y1327D02*
X322Y1327D01*
X1292Y1327D02*
X1299Y1327D01*
X1Y1326D02*
X8Y1326D01*
X117Y1326D02*
X126Y1326D01*
X313Y1326D02*
X322Y1326D01*
X1292Y1326D02*
X1299Y1326D01*
X1Y1325D02*
X8Y1325D01*
X117Y1325D02*
X126Y1325D01*
X313Y1325D02*
X322Y1325D01*
X1292Y1325D02*
X1299Y1325D01*
X1Y1324D02*
X8Y1324D01*
X117Y1324D02*
X126Y1324D01*
X314Y1324D02*
X323Y1324D01*
X1292Y1324D02*
X1299Y1324D01*
X1Y1323D02*
X8Y1323D01*
X116Y1323D02*
X125Y1323D01*
X314Y1323D02*
X323Y1323D01*
X1292Y1323D02*
X1299Y1323D01*
X1Y1322D02*
X8Y1322D01*
X116Y1322D02*
X125Y1322D01*
X314Y1322D02*
X323Y1322D01*
X1292Y1322D02*
X1299Y1322D01*
X1Y1321D02*
X8Y1321D01*
X116Y1321D02*
X125Y1321D01*
X314Y1321D02*
X323Y1321D01*
X1292Y1321D02*
X1299Y1321D01*
X1Y1320D02*
X8Y1320D01*
X116Y1320D02*
X125Y1320D01*
X314Y1320D02*
X323Y1320D01*
X1292Y1320D02*
X1299Y1320D01*
X1Y1319D02*
X8Y1319D01*
X116Y1319D02*
X125Y1319D01*
X314Y1319D02*
X323Y1319D01*
X1292Y1319D02*
X1299Y1319D01*
X1Y1318D02*
X8Y1318D01*
X116Y1318D02*
X125Y1318D01*
X314Y1318D02*
X323Y1318D01*
X1292Y1318D02*
X1299Y1318D01*
X1Y1317D02*
X8Y1317D01*
X116Y1317D02*
X125Y1317D01*
X315Y1317D02*
X324Y1317D01*
X1292Y1317D02*
X1299Y1317D01*
X1Y1316D02*
X8Y1316D01*
X116Y1316D02*
X125Y1316D01*
X315Y1316D02*
X324Y1316D01*
X1292Y1316D02*
X1299Y1316D01*
X1Y1315D02*
X8Y1315D01*
X115Y1315D02*
X124Y1315D01*
X315Y1315D02*
X324Y1315D01*
X1292Y1315D02*
X1299Y1315D01*
X1Y1314D02*
X8Y1314D01*
X115Y1314D02*
X124Y1314D01*
X315Y1314D02*
X324Y1314D01*
X1292Y1314D02*
X1299Y1314D01*
X1Y1313D02*
X8Y1313D01*
X115Y1313D02*
X124Y1313D01*
X315Y1313D02*
X324Y1313D01*
X1292Y1313D02*
X1299Y1313D01*
X1Y1312D02*
X8Y1312D01*
X115Y1312D02*
X124Y1312D01*
X315Y1312D02*
X324Y1312D01*
X1292Y1312D02*
X1299Y1312D01*
X1Y1311D02*
X8Y1311D01*
X115Y1311D02*
X124Y1311D01*
X315Y1311D02*
X324Y1311D01*
X1292Y1311D02*
X1299Y1311D01*
X1Y1310D02*
X8Y1310D01*
X115Y1310D02*
X124Y1310D01*
X315Y1310D02*
X324Y1310D01*
X1292Y1310D02*
X1299Y1310D01*
X1Y1309D02*
X8Y1309D01*
X115Y1309D02*
X124Y1309D01*
X315Y1309D02*
X324Y1309D01*
X1292Y1309D02*
X1299Y1309D01*
X1Y1308D02*
X8Y1308D01*
X115Y1308D02*
X124Y1308D01*
X315Y1308D02*
X324Y1308D01*
X1136Y1308D02*
X1136Y1308D01*
X1292Y1308D02*
X1299Y1308D01*
X1Y1307D02*
X8Y1307D01*
X115Y1307D02*
X124Y1307D01*
X315Y1307D02*
X324Y1307D01*
X1135Y1307D02*
X1137Y1307D01*
X1292Y1307D02*
X1299Y1307D01*
X1Y1306D02*
X8Y1306D01*
X115Y1306D02*
X124Y1306D01*
X315Y1306D02*
X324Y1306D01*
X1134Y1306D02*
X1138Y1306D01*
X1292Y1306D02*
X1299Y1306D01*
X1Y1305D02*
X8Y1305D01*
X115Y1305D02*
X124Y1305D01*
X315Y1305D02*
X324Y1305D01*
X1133Y1305D02*
X1139Y1305D01*
X1292Y1305D02*
X1299Y1305D01*
X1Y1304D02*
X8Y1304D01*
X115Y1304D02*
X124Y1304D01*
X315Y1304D02*
X324Y1304D01*
X1134Y1304D02*
X1140Y1304D01*
X1292Y1304D02*
X1299Y1304D01*
X1Y1303D02*
X8Y1303D01*
X115Y1303D02*
X124Y1303D01*
X315Y1303D02*
X324Y1303D01*
X1135Y1303D02*
X1141Y1303D01*
X1292Y1303D02*
X1299Y1303D01*
X1Y1302D02*
X8Y1302D01*
X115Y1302D02*
X124Y1302D01*
X315Y1302D02*
X324Y1302D01*
X1136Y1302D02*
X1142Y1302D01*
X1292Y1302D02*
X1299Y1302D01*
X1Y1301D02*
X8Y1301D01*
X115Y1301D02*
X124Y1301D01*
X315Y1301D02*
X324Y1301D01*
X1137Y1301D02*
X1143Y1301D01*
X1292Y1301D02*
X1299Y1301D01*
X1Y1300D02*
X8Y1300D01*
X115Y1300D02*
X124Y1300D01*
X315Y1300D02*
X324Y1300D01*
X1138Y1300D02*
X1144Y1300D01*
X1292Y1300D02*
X1299Y1300D01*
X1Y1299D02*
X8Y1299D01*
X115Y1299D02*
X124Y1299D01*
X315Y1299D02*
X324Y1299D01*
X1139Y1299D02*
X1145Y1299D01*
X1292Y1299D02*
X1299Y1299D01*
X1Y1298D02*
X8Y1298D01*
X115Y1298D02*
X125Y1298D01*
X315Y1298D02*
X324Y1298D01*
X1140Y1298D02*
X1146Y1298D01*
X1292Y1298D02*
X1299Y1298D01*
X1Y1297D02*
X8Y1297D01*
X116Y1297D02*
X125Y1297D01*
X315Y1297D02*
X324Y1297D01*
X1141Y1297D02*
X1147Y1297D01*
X1292Y1297D02*
X1299Y1297D01*
X1Y1296D02*
X8Y1296D01*
X116Y1296D02*
X125Y1296D01*
X314Y1296D02*
X323Y1296D01*
X1142Y1296D02*
X1148Y1296D01*
X1292Y1296D02*
X1299Y1296D01*
X1Y1295D02*
X8Y1295D01*
X116Y1295D02*
X125Y1295D01*
X314Y1295D02*
X323Y1295D01*
X1143Y1295D02*
X1149Y1295D01*
X1292Y1295D02*
X1299Y1295D01*
X1Y1294D02*
X8Y1294D01*
X116Y1294D02*
X125Y1294D01*
X314Y1294D02*
X323Y1294D01*
X1144Y1294D02*
X1150Y1294D01*
X1292Y1294D02*
X1299Y1294D01*
X1Y1293D02*
X8Y1293D01*
X116Y1293D02*
X125Y1293D01*
X314Y1293D02*
X323Y1293D01*
X1145Y1293D02*
X1151Y1293D01*
X1292Y1293D02*
X1299Y1293D01*
X1Y1292D02*
X8Y1292D01*
X116Y1292D02*
X125Y1292D01*
X314Y1292D02*
X323Y1292D01*
X1146Y1292D02*
X1152Y1292D01*
X1292Y1292D02*
X1299Y1292D01*
X1Y1291D02*
X8Y1291D01*
X116Y1291D02*
X125Y1291D01*
X314Y1291D02*
X323Y1291D01*
X1148Y1291D02*
X1153Y1291D01*
X1292Y1291D02*
X1299Y1291D01*
X1Y1290D02*
X8Y1290D01*
X116Y1290D02*
X126Y1290D01*
X314Y1290D02*
X323Y1290D01*
X1149Y1290D02*
X1154Y1290D01*
X1292Y1290D02*
X1299Y1290D01*
X1Y1289D02*
X8Y1289D01*
X117Y1289D02*
X126Y1289D01*
X313Y1289D02*
X322Y1289D01*
X1150Y1289D02*
X1155Y1289D01*
X1292Y1289D02*
X1299Y1289D01*
X1Y1288D02*
X8Y1288D01*
X117Y1288D02*
X126Y1288D01*
X313Y1288D02*
X322Y1288D01*
X1151Y1288D02*
X1156Y1288D01*
X1292Y1288D02*
X1299Y1288D01*
X1Y1287D02*
X8Y1287D01*
X117Y1287D02*
X126Y1287D01*
X313Y1287D02*
X322Y1287D01*
X1152Y1287D02*
X1157Y1287D01*
X1292Y1287D02*
X1299Y1287D01*
X1Y1286D02*
X8Y1286D01*
X117Y1286D02*
X126Y1286D01*
X313Y1286D02*
X322Y1286D01*
X1153Y1286D02*
X1158Y1286D01*
X1292Y1286D02*
X1299Y1286D01*
X1Y1285D02*
X8Y1285D01*
X117Y1285D02*
X127Y1285D01*
X313Y1285D02*
X322Y1285D01*
X1154Y1285D02*
X1159Y1285D01*
X1292Y1285D02*
X1299Y1285D01*
X1Y1284D02*
X8Y1284D01*
X118Y1284D02*
X127Y1284D01*
X312Y1284D02*
X321Y1284D01*
X1154Y1284D02*
X1160Y1284D01*
X1292Y1284D02*
X1299Y1284D01*
X1Y1283D02*
X8Y1283D01*
X118Y1283D02*
X127Y1283D01*
X312Y1283D02*
X321Y1283D01*
X1155Y1283D02*
X1161Y1283D01*
X1292Y1283D02*
X1299Y1283D01*
X1Y1282D02*
X8Y1282D01*
X118Y1282D02*
X127Y1282D01*
X312Y1282D02*
X321Y1282D01*
X1156Y1282D02*
X1162Y1282D01*
X1292Y1282D02*
X1299Y1282D01*
X1Y1281D02*
X8Y1281D01*
X118Y1281D02*
X128Y1281D01*
X312Y1281D02*
X321Y1281D01*
X1157Y1281D02*
X1163Y1281D01*
X1292Y1281D02*
X1299Y1281D01*
X1Y1280D02*
X8Y1280D01*
X119Y1280D02*
X128Y1280D01*
X311Y1280D02*
X321Y1280D01*
X1158Y1280D02*
X1164Y1280D01*
X1292Y1280D02*
X1299Y1280D01*
X1Y1279D02*
X8Y1279D01*
X119Y1279D02*
X128Y1279D01*
X311Y1279D02*
X320Y1279D01*
X1159Y1279D02*
X1165Y1279D01*
X1292Y1279D02*
X1299Y1279D01*
X1Y1278D02*
X8Y1278D01*
X119Y1278D02*
X128Y1278D01*
X311Y1278D02*
X320Y1278D01*
X1160Y1278D02*
X1166Y1278D01*
X1292Y1278D02*
X1299Y1278D01*
X1Y1277D02*
X8Y1277D01*
X119Y1277D02*
X129Y1277D01*
X310Y1277D02*
X320Y1277D01*
X1161Y1277D02*
X1167Y1277D01*
X1292Y1277D02*
X1299Y1277D01*
X1Y1276D02*
X8Y1276D01*
X120Y1276D02*
X129Y1276D01*
X310Y1276D02*
X319Y1276D01*
X1162Y1276D02*
X1168Y1276D01*
X1292Y1276D02*
X1299Y1276D01*
X1Y1275D02*
X8Y1275D01*
X120Y1275D02*
X130Y1275D01*
X310Y1275D02*
X319Y1275D01*
X1163Y1275D02*
X1169Y1275D01*
X1292Y1275D02*
X1299Y1275D01*
X1Y1274D02*
X8Y1274D01*
X120Y1274D02*
X130Y1274D01*
X309Y1274D02*
X319Y1274D01*
X1164Y1274D02*
X1170Y1274D01*
X1292Y1274D02*
X1299Y1274D01*
X1Y1273D02*
X8Y1273D01*
X121Y1273D02*
X130Y1273D01*
X309Y1273D02*
X318Y1273D01*
X1165Y1273D02*
X1170Y1273D01*
X1292Y1273D02*
X1299Y1273D01*
X1Y1272D02*
X8Y1272D01*
X121Y1272D02*
X131Y1272D01*
X308Y1272D02*
X318Y1272D01*
X1166Y1272D02*
X1169Y1272D01*
X1292Y1272D02*
X1299Y1272D01*
X1Y1271D02*
X8Y1271D01*
X121Y1271D02*
X131Y1271D01*
X308Y1271D02*
X318Y1271D01*
X1167Y1271D02*
X1168Y1271D01*
X1292Y1271D02*
X1299Y1271D01*
X1Y1270D02*
X8Y1270D01*
X122Y1270D02*
X131Y1270D01*
X308Y1270D02*
X317Y1270D01*
X1292Y1270D02*
X1299Y1270D01*
X1Y1269D02*
X8Y1269D01*
X122Y1269D02*
X132Y1269D01*
X307Y1269D02*
X317Y1269D01*
X1292Y1269D02*
X1299Y1269D01*
X1Y1268D02*
X8Y1268D01*
X123Y1268D02*
X132Y1268D01*
X307Y1268D02*
X317Y1268D01*
X1292Y1268D02*
X1299Y1268D01*
X1Y1267D02*
X8Y1267D01*
X123Y1267D02*
X133Y1267D01*
X306Y1267D02*
X316Y1267D01*
X1292Y1267D02*
X1299Y1267D01*
X1Y1266D02*
X8Y1266D01*
X123Y1266D02*
X133Y1266D01*
X306Y1266D02*
X316Y1266D01*
X1292Y1266D02*
X1299Y1266D01*
X1Y1265D02*
X8Y1265D01*
X124Y1265D02*
X134Y1265D01*
X305Y1265D02*
X315Y1265D01*
X1292Y1265D02*
X1299Y1265D01*
X1Y1264D02*
X8Y1264D01*
X124Y1264D02*
X134Y1264D01*
X305Y1264D02*
X315Y1264D01*
X1292Y1264D02*
X1299Y1264D01*
X1Y1263D02*
X8Y1263D01*
X125Y1263D02*
X135Y1263D01*
X304Y1263D02*
X314Y1263D01*
X1292Y1263D02*
X1299Y1263D01*
X1Y1262D02*
X8Y1262D01*
X125Y1262D02*
X135Y1262D01*
X304Y1262D02*
X314Y1262D01*
X1292Y1262D02*
X1299Y1262D01*
X1Y1261D02*
X8Y1261D01*
X126Y1261D02*
X136Y1261D01*
X303Y1261D02*
X313Y1261D01*
X1292Y1261D02*
X1299Y1261D01*
X1Y1260D02*
X8Y1260D01*
X126Y1260D02*
X136Y1260D01*
X303Y1260D02*
X313Y1260D01*
X1292Y1260D02*
X1299Y1260D01*
X1Y1259D02*
X8Y1259D01*
X127Y1259D02*
X137Y1259D01*
X302Y1259D02*
X312Y1259D01*
X1292Y1259D02*
X1299Y1259D01*
X1Y1258D02*
X8Y1258D01*
X127Y1258D02*
X138Y1258D01*
X302Y1258D02*
X312Y1258D01*
X1292Y1258D02*
X1299Y1258D01*
X1Y1257D02*
X8Y1257D01*
X128Y1257D02*
X138Y1257D01*
X301Y1257D02*
X311Y1257D01*
X1292Y1257D02*
X1299Y1257D01*
X1Y1256D02*
X8Y1256D01*
X128Y1256D02*
X139Y1256D01*
X300Y1256D02*
X311Y1256D01*
X1292Y1256D02*
X1299Y1256D01*
X1Y1255D02*
X8Y1255D01*
X129Y1255D02*
X139Y1255D01*
X300Y1255D02*
X310Y1255D01*
X1292Y1255D02*
X1299Y1255D01*
X1Y1254D02*
X8Y1254D01*
X130Y1254D02*
X140Y1254D01*
X299Y1254D02*
X310Y1254D01*
X1292Y1254D02*
X1299Y1254D01*
X1Y1253D02*
X8Y1253D01*
X130Y1253D02*
X141Y1253D01*
X298Y1253D02*
X309Y1253D01*
X1292Y1253D02*
X1299Y1253D01*
X1Y1252D02*
X8Y1252D01*
X131Y1252D02*
X142Y1252D01*
X298Y1252D02*
X308Y1252D01*
X1292Y1252D02*
X1299Y1252D01*
X1Y1251D02*
X8Y1251D01*
X131Y1251D02*
X142Y1251D01*
X297Y1251D02*
X308Y1251D01*
X1292Y1251D02*
X1299Y1251D01*
X1Y1250D02*
X8Y1250D01*
X132Y1250D02*
X143Y1250D01*
X296Y1250D02*
X307Y1250D01*
X1292Y1250D02*
X1299Y1250D01*
X1Y1249D02*
X8Y1249D01*
X133Y1249D02*
X144Y1249D01*
X295Y1249D02*
X307Y1249D01*
X1292Y1249D02*
X1299Y1249D01*
X1Y1248D02*
X8Y1248D01*
X133Y1248D02*
X145Y1248D01*
X295Y1248D02*
X306Y1248D01*
X1292Y1248D02*
X1299Y1248D01*
X1Y1247D02*
X8Y1247D01*
X134Y1247D02*
X145Y1247D01*
X294Y1247D02*
X305Y1247D01*
X1292Y1247D02*
X1299Y1247D01*
X1Y1246D02*
X8Y1246D01*
X135Y1246D02*
X146Y1246D01*
X293Y1246D02*
X304Y1246D01*
X1292Y1246D02*
X1299Y1246D01*
X1Y1245D02*
X8Y1245D01*
X135Y1245D02*
X147Y1245D01*
X292Y1245D02*
X304Y1245D01*
X1292Y1245D02*
X1299Y1245D01*
X1Y1244D02*
X8Y1244D01*
X136Y1244D02*
X148Y1244D01*
X291Y1244D02*
X303Y1244D01*
X1292Y1244D02*
X1299Y1244D01*
X1Y1243D02*
X8Y1243D01*
X137Y1243D02*
X149Y1243D01*
X290Y1243D02*
X302Y1243D01*
X1292Y1243D02*
X1299Y1243D01*
X1Y1242D02*
X8Y1242D01*
X138Y1242D02*
X150Y1242D01*
X289Y1242D02*
X302Y1242D01*
X1292Y1242D02*
X1299Y1242D01*
X1Y1241D02*
X8Y1241D01*
X138Y1241D02*
X151Y1241D01*
X288Y1241D02*
X301Y1241D01*
X1292Y1241D02*
X1299Y1241D01*
X1Y1240D02*
X8Y1240D01*
X139Y1240D02*
X152Y1240D01*
X288Y1240D02*
X300Y1240D01*
X1292Y1240D02*
X1299Y1240D01*
X1Y1239D02*
X8Y1239D01*
X140Y1239D02*
X153Y1239D01*
X287Y1239D02*
X299Y1239D01*
X1292Y1239D02*
X1299Y1239D01*
X1Y1238D02*
X8Y1238D01*
X141Y1238D02*
X154Y1238D01*
X285Y1238D02*
X298Y1238D01*
X1292Y1238D02*
X1299Y1238D01*
X1Y1237D02*
X8Y1237D01*
X142Y1237D02*
X155Y1237D01*
X284Y1237D02*
X297Y1237D01*
X1292Y1237D02*
X1299Y1237D01*
X1Y1236D02*
X8Y1236D01*
X143Y1236D02*
X156Y1236D01*
X283Y1236D02*
X296Y1236D01*
X1292Y1236D02*
X1299Y1236D01*
X1Y1235D02*
X8Y1235D01*
X144Y1235D02*
X157Y1235D01*
X282Y1235D02*
X295Y1235D01*
X1292Y1235D02*
X1299Y1235D01*
X1Y1234D02*
X8Y1234D01*
X145Y1234D02*
X158Y1234D01*
X281Y1234D02*
X295Y1234D01*
X1292Y1234D02*
X1299Y1234D01*
X1Y1233D02*
X8Y1233D01*
X145Y1233D02*
X159Y1233D01*
X280Y1233D02*
X294Y1233D01*
X1292Y1233D02*
X1299Y1233D01*
X1Y1232D02*
X8Y1232D01*
X146Y1232D02*
X161Y1232D01*
X278Y1232D02*
X293Y1232D01*
X1292Y1232D02*
X1299Y1232D01*
X1Y1231D02*
X8Y1231D01*
X148Y1231D02*
X162Y1231D01*
X277Y1231D02*
X292Y1231D01*
X1292Y1231D02*
X1299Y1231D01*
X1Y1230D02*
X8Y1230D01*
X149Y1230D02*
X163Y1230D01*
X276Y1230D02*
X290Y1230D01*
X1292Y1230D02*
X1299Y1230D01*
X1Y1229D02*
X8Y1229D01*
X150Y1229D02*
X165Y1229D01*
X275Y1229D02*
X289Y1229D01*
X1292Y1229D02*
X1299Y1229D01*
X1Y1228D02*
X8Y1228D01*
X151Y1228D02*
X166Y1228D01*
X273Y1228D02*
X288Y1228D01*
X1292Y1228D02*
X1299Y1228D01*
X1Y1227D02*
X8Y1227D01*
X152Y1227D02*
X168Y1227D01*
X272Y1227D02*
X287Y1227D01*
X1292Y1227D02*
X1299Y1227D01*
X1Y1226D02*
X8Y1226D01*
X153Y1226D02*
X169Y1226D01*
X270Y1226D02*
X286Y1226D01*
X1292Y1226D02*
X1299Y1226D01*
X1Y1225D02*
X8Y1225D01*
X154Y1225D02*
X171Y1225D01*
X268Y1225D02*
X285Y1225D01*
X1292Y1225D02*
X1299Y1225D01*
X1Y1224D02*
X8Y1224D01*
X156Y1224D02*
X173Y1224D01*
X267Y1224D02*
X283Y1224D01*
X1292Y1224D02*
X1299Y1224D01*
X1Y1223D02*
X8Y1223D01*
X157Y1223D02*
X174Y1223D01*
X265Y1223D02*
X282Y1223D01*
X1292Y1223D02*
X1299Y1223D01*
X1Y1222D02*
X8Y1222D01*
X158Y1222D02*
X176Y1222D01*
X263Y1222D02*
X281Y1222D01*
X1292Y1222D02*
X1299Y1222D01*
X1Y1221D02*
X8Y1221D01*
X160Y1221D02*
X178Y1221D01*
X261Y1221D02*
X279Y1221D01*
X1292Y1221D02*
X1299Y1221D01*
X1Y1220D02*
X8Y1220D01*
X161Y1220D02*
X180Y1220D01*
X259Y1220D02*
X278Y1220D01*
X1292Y1220D02*
X1299Y1220D01*
X1Y1219D02*
X8Y1219D01*
X163Y1219D02*
X183Y1219D01*
X256Y1219D02*
X276Y1219D01*
X1292Y1219D02*
X1299Y1219D01*
X1Y1218D02*
X8Y1218D01*
X164Y1218D02*
X185Y1218D01*
X254Y1218D02*
X275Y1218D01*
X1292Y1218D02*
X1299Y1218D01*
X1Y1217D02*
X8Y1217D01*
X166Y1217D02*
X188Y1217D01*
X251Y1217D02*
X273Y1217D01*
X1292Y1217D02*
X1299Y1217D01*
X1Y1216D02*
X8Y1216D01*
X168Y1216D02*
X191Y1216D01*
X248Y1216D02*
X271Y1216D01*
X1292Y1216D02*
X1299Y1216D01*
X1Y1215D02*
X8Y1215D01*
X169Y1215D02*
X194Y1215D01*
X245Y1215D02*
X270Y1215D01*
X1292Y1215D02*
X1299Y1215D01*
X1Y1214D02*
X8Y1214D01*
X171Y1214D02*
X199Y1214D01*
X240Y1214D02*
X268Y1214D01*
X1292Y1214D02*
X1299Y1214D01*
X1Y1213D02*
X8Y1213D01*
X173Y1213D02*
X204Y1213D01*
X235Y1213D02*
X266Y1213D01*
X1292Y1213D02*
X1299Y1213D01*
X1Y1212D02*
X8Y1212D01*
X175Y1212D02*
X214Y1212D01*
X226Y1212D02*
X264Y1212D01*
X1292Y1212D02*
X1299Y1212D01*
X1Y1211D02*
X8Y1211D01*
X178Y1211D02*
X262Y1211D01*
X1292Y1211D02*
X1299Y1211D01*
X1Y1210D02*
X8Y1210D01*
X180Y1210D02*
X259Y1210D01*
X1292Y1210D02*
X1299Y1210D01*
X1Y1209D02*
X8Y1209D01*
X182Y1209D02*
X257Y1209D01*
X1292Y1209D02*
X1299Y1209D01*
X1Y1208D02*
X8Y1208D01*
X185Y1208D02*
X254Y1208D01*
X1292Y1208D02*
X1299Y1208D01*
X1Y1207D02*
X8Y1207D01*
X188Y1207D02*
X251Y1207D01*
X1292Y1207D02*
X1299Y1207D01*
X1Y1206D02*
X8Y1206D01*
X191Y1206D02*
X248Y1206D01*
X1292Y1206D02*
X1299Y1206D01*
X1Y1205D02*
X8Y1205D01*
X195Y1205D02*
X244Y1205D01*
X1292Y1205D02*
X1299Y1205D01*
X1Y1204D02*
X8Y1204D01*
X199Y1204D02*
X240Y1204D01*
X1292Y1204D02*
X1299Y1204D01*
X1Y1203D02*
X8Y1203D01*
X205Y1203D02*
X234Y1203D01*
X1292Y1203D02*
X1299Y1203D01*
X1Y1202D02*
X8Y1202D01*
X214Y1202D02*
X225Y1202D01*
X1292Y1202D02*
X1299Y1202D01*
X1Y1201D02*
X8Y1201D01*
X1292Y1201D02*
X1299Y1201D01*
X1Y1200D02*
X8Y1200D01*
X1292Y1200D02*
X1299Y1200D01*
X1Y1199D02*
X8Y1199D01*
X1292Y1199D02*
X1299Y1199D01*
X1Y1198D02*
X8Y1198D01*
X1292Y1198D02*
X1299Y1198D01*
X1Y1197D02*
X8Y1197D01*
X1292Y1197D02*
X1299Y1197D01*
X1Y1196D02*
X8Y1196D01*
X1292Y1196D02*
X1299Y1196D01*
X1Y1195D02*
X8Y1195D01*
X1292Y1195D02*
X1299Y1195D01*
X1Y1194D02*
X8Y1194D01*
X1292Y1194D02*
X1299Y1194D01*
X1Y1193D02*
X8Y1193D01*
X1292Y1193D02*
X1299Y1193D01*
X1Y1192D02*
X8Y1192D01*
X1292Y1192D02*
X1299Y1192D01*
X1Y1191D02*
X8Y1191D01*
X184Y1191D02*
X198Y1191D01*
X220Y1191D02*
X245Y1191D01*
X1292Y1191D02*
X1299Y1191D01*
X1Y1190D02*
X8Y1190D01*
X181Y1190D02*
X200Y1190D01*
X218Y1190D02*
X247Y1190D01*
X1292Y1190D02*
X1299Y1190D01*
X1Y1189D02*
X8Y1189D01*
X179Y1189D02*
X200Y1189D01*
X217Y1189D02*
X249Y1189D01*
X1292Y1189D02*
X1299Y1189D01*
X1Y1188D02*
X8Y1188D01*
X178Y1188D02*
X201Y1188D01*
X217Y1188D02*
X249Y1188D01*
X1292Y1188D02*
X1299Y1188D01*
X1Y1187D02*
X8Y1187D01*
X177Y1187D02*
X201Y1187D01*
X217Y1187D02*
X250Y1187D01*
X1292Y1187D02*
X1299Y1187D01*
X1Y1186D02*
X8Y1186D01*
X176Y1186D02*
X200Y1186D01*
X218Y1186D02*
X250Y1186D01*
X1292Y1186D02*
X1299Y1186D01*
X1Y1185D02*
X8Y1185D01*
X176Y1185D02*
X199Y1185D01*
X218Y1185D02*
X251Y1185D01*
X1292Y1185D02*
X1299Y1185D01*
X1Y1184D02*
X8Y1184D01*
X175Y1184D02*
X183Y1184D01*
X244Y1184D02*
X251Y1184D01*
X1292Y1184D02*
X1299Y1184D01*
X1Y1183D02*
X8Y1183D01*
X175Y1183D02*
X182Y1183D01*
X245Y1183D02*
X251Y1183D01*
X1292Y1183D02*
X1299Y1183D01*
X1Y1182D02*
X8Y1182D01*
X174Y1182D02*
X181Y1182D01*
X245Y1182D02*
X251Y1182D01*
X1292Y1182D02*
X1299Y1182D01*
X1Y1181D02*
X8Y1181D01*
X174Y1181D02*
X181Y1181D01*
X245Y1181D02*
X251Y1181D01*
X1292Y1181D02*
X1299Y1181D01*
X1Y1180D02*
X8Y1180D01*
X173Y1180D02*
X180Y1180D01*
X245Y1180D02*
X251Y1180D01*
X1292Y1180D02*
X1299Y1180D01*
X1Y1179D02*
X8Y1179D01*
X173Y1179D02*
X180Y1179D01*
X245Y1179D02*
X251Y1179D01*
X1292Y1179D02*
X1299Y1179D01*
X1Y1178D02*
X8Y1178D01*
X172Y1178D02*
X179Y1178D01*
X245Y1178D02*
X251Y1178D01*
X1292Y1178D02*
X1299Y1178D01*
X1Y1177D02*
X8Y1177D01*
X172Y1177D02*
X179Y1177D01*
X245Y1177D02*
X251Y1177D01*
X1292Y1177D02*
X1299Y1177D01*
X1Y1176D02*
X8Y1176D01*
X171Y1176D02*
X178Y1176D01*
X245Y1176D02*
X251Y1176D01*
X1292Y1176D02*
X1299Y1176D01*
X1Y1175D02*
X8Y1175D01*
X171Y1175D02*
X178Y1175D01*
X245Y1175D02*
X251Y1175D01*
X1292Y1175D02*
X1299Y1175D01*
X1Y1174D02*
X8Y1174D01*
X170Y1174D02*
X177Y1174D01*
X245Y1174D02*
X251Y1174D01*
X1292Y1174D02*
X1299Y1174D01*
X1Y1173D02*
X8Y1173D01*
X170Y1173D02*
X177Y1173D01*
X245Y1173D02*
X251Y1173D01*
X1292Y1173D02*
X1299Y1173D01*
X1Y1172D02*
X8Y1172D01*
X169Y1172D02*
X176Y1172D01*
X245Y1172D02*
X251Y1172D01*
X1292Y1172D02*
X1299Y1172D01*
X1Y1171D02*
X8Y1171D01*
X169Y1171D02*
X176Y1171D01*
X245Y1171D02*
X251Y1171D01*
X1292Y1171D02*
X1299Y1171D01*
X1Y1170D02*
X8Y1170D01*
X168Y1170D02*
X175Y1170D01*
X245Y1170D02*
X251Y1170D01*
X1292Y1170D02*
X1299Y1170D01*
X1Y1169D02*
X8Y1169D01*
X168Y1169D02*
X174Y1169D01*
X245Y1169D02*
X251Y1169D01*
X1292Y1169D02*
X1299Y1169D01*
X1Y1168D02*
X8Y1168D01*
X168Y1168D02*
X174Y1168D01*
X245Y1168D02*
X251Y1168D01*
X1292Y1168D02*
X1299Y1168D01*
X1Y1167D02*
X8Y1167D01*
X167Y1167D02*
X174Y1167D01*
X221Y1167D02*
X251Y1167D01*
X1292Y1167D02*
X1299Y1167D01*
X1Y1166D02*
X8Y1166D01*
X167Y1166D02*
X173Y1166D01*
X220Y1166D02*
X251Y1166D01*
X1292Y1166D02*
X1299Y1166D01*
X1Y1165D02*
X8Y1165D01*
X167Y1165D02*
X173Y1165D01*
X219Y1165D02*
X250Y1165D01*
X1292Y1165D02*
X1299Y1165D01*
X1Y1164D02*
X8Y1164D01*
X167Y1164D02*
X173Y1164D01*
X218Y1164D02*
X250Y1164D01*
X1292Y1164D02*
X1299Y1164D01*
X1Y1163D02*
X8Y1163D01*
X167Y1163D02*
X173Y1163D01*
X218Y1163D02*
X249Y1163D01*
X1292Y1163D02*
X1299Y1163D01*
X1Y1162D02*
X8Y1162D01*
X167Y1162D02*
X173Y1162D01*
X217Y1162D02*
X248Y1162D01*
X1292Y1162D02*
X1299Y1162D01*
X1Y1161D02*
X8Y1161D01*
X167Y1161D02*
X174Y1161D01*
X217Y1161D02*
X246Y1161D01*
X1292Y1161D02*
X1299Y1161D01*
X1Y1160D02*
X8Y1160D01*
X168Y1160D02*
X174Y1160D01*
X217Y1160D02*
X223Y1160D01*
X1292Y1160D02*
X1299Y1160D01*
X1Y1159D02*
X8Y1159D01*
X168Y1159D02*
X175Y1159D01*
X217Y1159D02*
X223Y1159D01*
X1292Y1159D02*
X1299Y1159D01*
X1Y1158D02*
X8Y1158D01*
X168Y1158D02*
X175Y1158D01*
X217Y1158D02*
X223Y1158D01*
X1136Y1158D02*
X1136Y1158D01*
X1292Y1158D02*
X1299Y1158D01*
X1Y1157D02*
X8Y1157D01*
X169Y1157D02*
X176Y1157D01*
X217Y1157D02*
X223Y1157D01*
X1135Y1157D02*
X1137Y1157D01*
X1292Y1157D02*
X1299Y1157D01*
X1Y1156D02*
X8Y1156D01*
X169Y1156D02*
X176Y1156D01*
X217Y1156D02*
X223Y1156D01*
X1134Y1156D02*
X1138Y1156D01*
X1292Y1156D02*
X1299Y1156D01*
X1Y1155D02*
X8Y1155D01*
X170Y1155D02*
X177Y1155D01*
X217Y1155D02*
X223Y1155D01*
X1133Y1155D02*
X1139Y1155D01*
X1292Y1155D02*
X1299Y1155D01*
X1Y1154D02*
X8Y1154D01*
X170Y1154D02*
X177Y1154D01*
X217Y1154D02*
X223Y1154D01*
X1134Y1154D02*
X1140Y1154D01*
X1292Y1154D02*
X1299Y1154D01*
X1Y1153D02*
X8Y1153D01*
X171Y1153D02*
X178Y1153D01*
X217Y1153D02*
X223Y1153D01*
X1135Y1153D02*
X1141Y1153D01*
X1292Y1153D02*
X1299Y1153D01*
X1Y1152D02*
X8Y1152D01*
X171Y1152D02*
X178Y1152D01*
X217Y1152D02*
X223Y1152D01*
X1136Y1152D02*
X1142Y1152D01*
X1292Y1152D02*
X1299Y1152D01*
X1Y1151D02*
X8Y1151D01*
X172Y1151D02*
X179Y1151D01*
X217Y1151D02*
X223Y1151D01*
X1137Y1151D02*
X1143Y1151D01*
X1292Y1151D02*
X1299Y1151D01*
X1Y1150D02*
X8Y1150D01*
X172Y1150D02*
X179Y1150D01*
X217Y1150D02*
X223Y1150D01*
X1138Y1150D02*
X1144Y1150D01*
X1292Y1150D02*
X1299Y1150D01*
X1Y1149D02*
X8Y1149D01*
X173Y1149D02*
X180Y1149D01*
X217Y1149D02*
X223Y1149D01*
X1139Y1149D02*
X1145Y1149D01*
X1292Y1149D02*
X1299Y1149D01*
X1Y1148D02*
X8Y1148D01*
X173Y1148D02*
X180Y1148D01*
X217Y1148D02*
X223Y1148D01*
X1140Y1148D02*
X1146Y1148D01*
X1292Y1148D02*
X1299Y1148D01*
X1Y1147D02*
X8Y1147D01*
X174Y1147D02*
X181Y1147D01*
X217Y1147D02*
X223Y1147D01*
X1141Y1147D02*
X1147Y1147D01*
X1292Y1147D02*
X1299Y1147D01*
X1Y1146D02*
X8Y1146D01*
X174Y1146D02*
X181Y1146D01*
X217Y1146D02*
X223Y1146D01*
X1142Y1146D02*
X1148Y1146D01*
X1292Y1146D02*
X1299Y1146D01*
X1Y1145D02*
X8Y1145D01*
X175Y1145D02*
X182Y1145D01*
X217Y1145D02*
X223Y1145D01*
X1143Y1145D02*
X1149Y1145D01*
X1292Y1145D02*
X1299Y1145D01*
X1Y1144D02*
X8Y1144D01*
X175Y1144D02*
X184Y1144D01*
X217Y1144D02*
X224Y1144D01*
X1144Y1144D02*
X1150Y1144D01*
X1292Y1144D02*
X1299Y1144D01*
X1Y1143D02*
X8Y1143D01*
X176Y1143D02*
X200Y1143D01*
X217Y1143D02*
X250Y1143D01*
X1145Y1143D02*
X1151Y1143D01*
X1292Y1143D02*
X1299Y1143D01*
X1Y1142D02*
X8Y1142D01*
X176Y1142D02*
X200Y1142D01*
X217Y1142D02*
X250Y1142D01*
X1146Y1142D02*
X1152Y1142D01*
X1292Y1142D02*
X1299Y1142D01*
X1Y1141D02*
X8Y1141D01*
X177Y1141D02*
X201Y1141D01*
X217Y1141D02*
X251Y1141D01*
X1148Y1141D02*
X1153Y1141D01*
X1292Y1141D02*
X1299Y1141D01*
X1Y1140D02*
X8Y1140D01*
X178Y1140D02*
X201Y1140D01*
X217Y1140D02*
X251Y1140D01*
X1149Y1140D02*
X1154Y1140D01*
X1292Y1140D02*
X1299Y1140D01*
X1Y1139D02*
X8Y1139D01*
X179Y1139D02*
X200Y1139D01*
X217Y1139D02*
X250Y1139D01*
X1150Y1139D02*
X1155Y1139D01*
X1292Y1139D02*
X1299Y1139D01*
X1Y1138D02*
X8Y1138D01*
X181Y1138D02*
X200Y1138D01*
X217Y1138D02*
X250Y1138D01*
X1151Y1138D02*
X1156Y1138D01*
X1292Y1138D02*
X1299Y1138D01*
X1Y1137D02*
X8Y1137D01*
X185Y1137D02*
X197Y1137D01*
X218Y1137D02*
X247Y1137D01*
X1152Y1137D02*
X1157Y1137D01*
X1292Y1137D02*
X1299Y1137D01*
X1Y1136D02*
X8Y1136D01*
X1153Y1136D02*
X1158Y1136D01*
X1292Y1136D02*
X1299Y1136D01*
X1Y1135D02*
X8Y1135D01*
X1154Y1135D02*
X1159Y1135D01*
X1292Y1135D02*
X1299Y1135D01*
X1Y1134D02*
X8Y1134D01*
X1154Y1134D02*
X1160Y1134D01*
X1292Y1134D02*
X1299Y1134D01*
X1Y1133D02*
X8Y1133D01*
X1155Y1133D02*
X1161Y1133D01*
X1292Y1133D02*
X1299Y1133D01*
X1Y1132D02*
X8Y1132D01*
X1156Y1132D02*
X1162Y1132D01*
X1292Y1132D02*
X1299Y1132D01*
X1Y1131D02*
X8Y1131D01*
X1157Y1131D02*
X1163Y1131D01*
X1292Y1131D02*
X1299Y1131D01*
X1Y1130D02*
X8Y1130D01*
X1158Y1130D02*
X1164Y1130D01*
X1292Y1130D02*
X1299Y1130D01*
X1Y1129D02*
X8Y1129D01*
X1159Y1129D02*
X1165Y1129D01*
X1292Y1129D02*
X1299Y1129D01*
X1Y1128D02*
X8Y1128D01*
X1160Y1128D02*
X1166Y1128D01*
X1292Y1128D02*
X1299Y1128D01*
X1Y1127D02*
X8Y1127D01*
X1161Y1127D02*
X1167Y1127D01*
X1292Y1127D02*
X1299Y1127D01*
X1Y1126D02*
X8Y1126D01*
X1162Y1126D02*
X1168Y1126D01*
X1292Y1126D02*
X1299Y1126D01*
X1Y1125D02*
X8Y1125D01*
X1163Y1125D02*
X1169Y1125D01*
X1292Y1125D02*
X1299Y1125D01*
X1Y1124D02*
X8Y1124D01*
X1164Y1124D02*
X1170Y1124D01*
X1292Y1124D02*
X1299Y1124D01*
X1Y1123D02*
X8Y1123D01*
X1165Y1123D02*
X1170Y1123D01*
X1292Y1123D02*
X1299Y1123D01*
X1Y1122D02*
X8Y1122D01*
X1166Y1122D02*
X1169Y1122D01*
X1292Y1122D02*
X1299Y1122D01*
X1Y1121D02*
X8Y1121D01*
X1167Y1121D02*
X1168Y1121D01*
X1292Y1121D02*
X1299Y1121D01*
X1Y1120D02*
X8Y1120D01*
X1292Y1120D02*
X1299Y1120D01*
X1Y1119D02*
X8Y1119D01*
X1292Y1119D02*
X1299Y1119D01*
X1Y1118D02*
X8Y1118D01*
X1292Y1118D02*
X1299Y1118D01*
X1Y1117D02*
X8Y1117D01*
X1292Y1117D02*
X1299Y1117D01*
X1Y1116D02*
X8Y1116D01*
X1292Y1116D02*
X1299Y1116D01*
X1Y1115D02*
X8Y1115D01*
X1292Y1115D02*
X1299Y1115D01*
X1Y1114D02*
X8Y1114D01*
X1292Y1114D02*
X1299Y1114D01*
X1Y1113D02*
X8Y1113D01*
X1292Y1113D02*
X1299Y1113D01*
X1Y1112D02*
X8Y1112D01*
X1292Y1112D02*
X1299Y1112D01*
X1Y1111D02*
X8Y1111D01*
X1292Y1111D02*
X1299Y1111D01*
X1Y1110D02*
X8Y1110D01*
X1292Y1110D02*
X1299Y1110D01*
X1Y1109D02*
X8Y1109D01*
X1292Y1109D02*
X1299Y1109D01*
X1Y1108D02*
X8Y1108D01*
X1292Y1108D02*
X1299Y1108D01*
X1Y1107D02*
X8Y1107D01*
X1292Y1107D02*
X1299Y1107D01*
X1Y1106D02*
X8Y1106D01*
X1292Y1106D02*
X1299Y1106D01*
X1Y1105D02*
X8Y1105D01*
X1292Y1105D02*
X1299Y1105D01*
X1Y1104D02*
X8Y1104D01*
X1292Y1104D02*
X1299Y1104D01*
X1Y1103D02*
X8Y1103D01*
X1292Y1103D02*
X1299Y1103D01*
X1Y1102D02*
X8Y1102D01*
X1292Y1102D02*
X1299Y1102D01*
X1Y1101D02*
X8Y1101D01*
X1292Y1101D02*
X1299Y1101D01*
X1Y1100D02*
X8Y1100D01*
X1292Y1100D02*
X1299Y1100D01*
X1Y1099D02*
X8Y1099D01*
X1292Y1099D02*
X1299Y1099D01*
X1Y1098D02*
X8Y1098D01*
X1292Y1098D02*
X1299Y1098D01*
X1Y1097D02*
X8Y1097D01*
X1292Y1097D02*
X1299Y1097D01*
X1Y1096D02*
X8Y1096D01*
X1292Y1096D02*
X1299Y1096D01*
X1Y1095D02*
X8Y1095D01*
X1292Y1095D02*
X1299Y1095D01*
X1Y1094D02*
X8Y1094D01*
X1292Y1094D02*
X1299Y1094D01*
X1Y1093D02*
X8Y1093D01*
X1292Y1093D02*
X1299Y1093D01*
X1Y1092D02*
X8Y1092D01*
X1292Y1092D02*
X1299Y1092D01*
X1Y1091D02*
X8Y1091D01*
X1292Y1091D02*
X1299Y1091D01*
X1Y1090D02*
X8Y1090D01*
X1292Y1090D02*
X1299Y1090D01*
X1Y1089D02*
X8Y1089D01*
X1292Y1089D02*
X1299Y1089D01*
X1Y1088D02*
X8Y1088D01*
X1292Y1088D02*
X1299Y1088D01*
X1Y1087D02*
X8Y1087D01*
X1292Y1087D02*
X1299Y1087D01*
X1Y1086D02*
X8Y1086D01*
X1292Y1086D02*
X1299Y1086D01*
X1Y1085D02*
X8Y1085D01*
X1292Y1085D02*
X1299Y1085D01*
X1Y1084D02*
X8Y1084D01*
X1292Y1084D02*
X1299Y1084D01*
X1Y1083D02*
X8Y1083D01*
X1292Y1083D02*
X1299Y1083D01*
X1Y1082D02*
X8Y1082D01*
X1292Y1082D02*
X1299Y1082D01*
X1Y1081D02*
X8Y1081D01*
X1292Y1081D02*
X1299Y1081D01*
X1Y1080D02*
X8Y1080D01*
X1292Y1080D02*
X1299Y1080D01*
X1Y1079D02*
X8Y1079D01*
X1292Y1079D02*
X1299Y1079D01*
X1Y1078D02*
X8Y1078D01*
X1292Y1078D02*
X1299Y1078D01*
X1Y1077D02*
X8Y1077D01*
X1292Y1077D02*
X1299Y1077D01*
X1Y1076D02*
X8Y1076D01*
X1292Y1076D02*
X1299Y1076D01*
X1Y1075D02*
X8Y1075D01*
X1292Y1075D02*
X1299Y1075D01*
X1Y1074D02*
X8Y1074D01*
X1292Y1074D02*
X1299Y1074D01*
X1Y1073D02*
X8Y1073D01*
X1292Y1073D02*
X1299Y1073D01*
X1Y1072D02*
X8Y1072D01*
X1292Y1072D02*
X1299Y1072D01*
X1Y1071D02*
X8Y1071D01*
X1292Y1071D02*
X1299Y1071D01*
X1Y1070D02*
X8Y1070D01*
X1292Y1070D02*
X1299Y1070D01*
X1Y1069D02*
X8Y1069D01*
X1292Y1069D02*
X1299Y1069D01*
X1Y1068D02*
X8Y1068D01*
X1292Y1068D02*
X1299Y1068D01*
X1Y1067D02*
X8Y1067D01*
X1292Y1067D02*
X1299Y1067D01*
X1Y1066D02*
X8Y1066D01*
X1292Y1066D02*
X1299Y1066D01*
X1Y1065D02*
X8Y1065D01*
X1292Y1065D02*
X1299Y1065D01*
X1Y1064D02*
X8Y1064D01*
X1292Y1064D02*
X1299Y1064D01*
X1Y1063D02*
X8Y1063D01*
X1292Y1063D02*
X1299Y1063D01*
X1Y1062D02*
X8Y1062D01*
X1292Y1062D02*
X1299Y1062D01*
X1Y1061D02*
X8Y1061D01*
X1292Y1061D02*
X1299Y1061D01*
X1Y1060D02*
X8Y1060D01*
X1292Y1060D02*
X1299Y1060D01*
X1Y1059D02*
X8Y1059D01*
X1292Y1059D02*
X1299Y1059D01*
X1Y1058D02*
X8Y1058D01*
X1292Y1058D02*
X1299Y1058D01*
X1Y1057D02*
X8Y1057D01*
X1292Y1057D02*
X1299Y1057D01*
X1Y1056D02*
X8Y1056D01*
X1292Y1056D02*
X1299Y1056D01*
X1Y1055D02*
X8Y1055D01*
X1292Y1055D02*
X1299Y1055D01*
X1Y1054D02*
X8Y1054D01*
X1292Y1054D02*
X1299Y1054D01*
X1Y1053D02*
X8Y1053D01*
X1292Y1053D02*
X1299Y1053D01*
X1Y1052D02*
X8Y1052D01*
X1292Y1052D02*
X1299Y1052D01*
X1Y1051D02*
X8Y1051D01*
X1292Y1051D02*
X1299Y1051D01*
X1Y1050D02*
X8Y1050D01*
X1292Y1050D02*
X1299Y1050D01*
X1Y1049D02*
X8Y1049D01*
X1292Y1049D02*
X1299Y1049D01*
X1Y1048D02*
X8Y1048D01*
X1292Y1048D02*
X1299Y1048D01*
X1Y1047D02*
X8Y1047D01*
X1292Y1047D02*
X1299Y1047D01*
X1Y1046D02*
X8Y1046D01*
X1292Y1046D02*
X1299Y1046D01*
X1Y1045D02*
X8Y1045D01*
X1292Y1045D02*
X1299Y1045D01*
X1Y1044D02*
X8Y1044D01*
X1292Y1044D02*
X1299Y1044D01*
X1Y1043D02*
X8Y1043D01*
X1292Y1043D02*
X1299Y1043D01*
X1Y1042D02*
X8Y1042D01*
X1292Y1042D02*
X1299Y1042D01*
X1Y1041D02*
X8Y1041D01*
X1292Y1041D02*
X1299Y1041D01*
X1Y1040D02*
X8Y1040D01*
X1292Y1040D02*
X1299Y1040D01*
X1Y1039D02*
X8Y1039D01*
X1292Y1039D02*
X1299Y1039D01*
X1Y1038D02*
X8Y1038D01*
X1292Y1038D02*
X1299Y1038D01*
X1Y1037D02*
X8Y1037D01*
X1292Y1037D02*
X1299Y1037D01*
X1Y1036D02*
X8Y1036D01*
X1292Y1036D02*
X1299Y1036D01*
X1Y1035D02*
X8Y1035D01*
X1292Y1035D02*
X1299Y1035D01*
X1Y1034D02*
X8Y1034D01*
X1292Y1034D02*
X1299Y1034D01*
X1Y1033D02*
X8Y1033D01*
X1292Y1033D02*
X1299Y1033D01*
X1Y1032D02*
X8Y1032D01*
X1292Y1032D02*
X1299Y1032D01*
X1Y1031D02*
X8Y1031D01*
X1292Y1031D02*
X1299Y1031D01*
X1Y1030D02*
X8Y1030D01*
X1292Y1030D02*
X1299Y1030D01*
X1Y1029D02*
X8Y1029D01*
X1292Y1029D02*
X1299Y1029D01*
X1Y1028D02*
X8Y1028D01*
X1292Y1028D02*
X1299Y1028D01*
X1Y1027D02*
X8Y1027D01*
X1292Y1027D02*
X1299Y1027D01*
X1Y1026D02*
X8Y1026D01*
X1292Y1026D02*
X1299Y1026D01*
X1Y1025D02*
X8Y1025D01*
X1292Y1025D02*
X1299Y1025D01*
X1Y1024D02*
X8Y1024D01*
X1292Y1024D02*
X1299Y1024D01*
X1Y1023D02*
X8Y1023D01*
X1292Y1023D02*
X1299Y1023D01*
X1Y1022D02*
X8Y1022D01*
X1292Y1022D02*
X1299Y1022D01*
X1Y1021D02*
X8Y1021D01*
X1292Y1021D02*
X1299Y1021D01*
X1Y1020D02*
X8Y1020D01*
X1292Y1020D02*
X1299Y1020D01*
X1Y1019D02*
X8Y1019D01*
X1292Y1019D02*
X1299Y1019D01*
X1Y1018D02*
X8Y1018D01*
X1292Y1018D02*
X1299Y1018D01*
X1Y1017D02*
X8Y1017D01*
X1292Y1017D02*
X1299Y1017D01*
X1Y1016D02*
X8Y1016D01*
X1292Y1016D02*
X1299Y1016D01*
X1Y1015D02*
X8Y1015D01*
X1292Y1015D02*
X1299Y1015D01*
X1Y1014D02*
X8Y1014D01*
X1292Y1014D02*
X1299Y1014D01*
X1Y1013D02*
X8Y1013D01*
X1292Y1013D02*
X1299Y1013D01*
X1Y1012D02*
X8Y1012D01*
X1292Y1012D02*
X1299Y1012D01*
X1Y1011D02*
X8Y1011D01*
X100Y1011D02*
X277Y1011D01*
X1292Y1011D02*
X1299Y1011D01*
X1Y1010D02*
X8Y1010D01*
X100Y1010D02*
X277Y1010D01*
X1292Y1010D02*
X1299Y1010D01*
X1Y1009D02*
X8Y1009D01*
X100Y1009D02*
X276Y1009D01*
X1292Y1009D02*
X1299Y1009D01*
X1Y1008D02*
X8Y1008D01*
X100Y1008D02*
X276Y1008D01*
X1292Y1008D02*
X1299Y1008D01*
X1Y1007D02*
X8Y1007D01*
X100Y1007D02*
X276Y1007D01*
X1292Y1007D02*
X1299Y1007D01*
X1Y1006D02*
X8Y1006D01*
X100Y1006D02*
X276Y1006D01*
X1292Y1006D02*
X1299Y1006D01*
X1Y1005D02*
X8Y1005D01*
X100Y1005D02*
X276Y1005D01*
X1292Y1005D02*
X1299Y1005D01*
X1Y1004D02*
X8Y1004D01*
X100Y1004D02*
X277Y1004D01*
X1292Y1004D02*
X1299Y1004D01*
X1Y1003D02*
X8Y1003D01*
X100Y1003D02*
X277Y1003D01*
X1292Y1003D02*
X1299Y1003D01*
X1Y1002D02*
X8Y1002D01*
X100Y1002D02*
X277Y1002D01*
X1292Y1002D02*
X1299Y1002D01*
X1Y1001D02*
X8Y1001D01*
X275Y1001D02*
X277Y1001D01*
X1292Y1001D02*
X1299Y1001D01*
X1Y1000D02*
X8Y1000D01*
X275Y1000D02*
X277Y1000D01*
X1292Y1000D02*
X1299Y1000D01*
X1Y999D02*
X8Y999D01*
X275Y999D02*
X277Y999D01*
X1292Y999D02*
X1299Y999D01*
X1Y998D02*
X8Y998D01*
X275Y998D02*
X277Y998D01*
X1292Y998D02*
X1299Y998D01*
X1Y997D02*
X8Y997D01*
X275Y997D02*
X278Y997D01*
X1292Y997D02*
X1299Y997D01*
X1Y996D02*
X8Y996D01*
X275Y996D02*
X278Y996D01*
X1292Y996D02*
X1299Y996D01*
X1Y995D02*
X8Y995D01*
X275Y995D02*
X278Y995D01*
X1292Y995D02*
X1299Y995D01*
X1Y994D02*
X8Y994D01*
X275Y994D02*
X278Y994D01*
X1292Y994D02*
X1299Y994D01*
X1Y993D02*
X8Y993D01*
X275Y993D02*
X279Y993D01*
X1292Y993D02*
X1299Y993D01*
X1Y992D02*
X8Y992D01*
X275Y992D02*
X279Y992D01*
X1292Y992D02*
X1299Y992D01*
X1Y991D02*
X8Y991D01*
X275Y991D02*
X279Y991D01*
X1292Y991D02*
X1299Y991D01*
X1Y990D02*
X8Y990D01*
X275Y990D02*
X280Y990D01*
X1292Y990D02*
X1299Y990D01*
X1Y989D02*
X8Y989D01*
X275Y989D02*
X280Y989D01*
X1292Y989D02*
X1299Y989D01*
X1Y988D02*
X8Y988D01*
X275Y988D02*
X281Y988D01*
X1292Y988D02*
X1299Y988D01*
X1Y987D02*
X8Y987D01*
X275Y987D02*
X281Y987D01*
X1292Y987D02*
X1299Y987D01*
X1Y986D02*
X8Y986D01*
X275Y986D02*
X282Y986D01*
X1292Y986D02*
X1299Y986D01*
X1Y985D02*
X8Y985D01*
X275Y985D02*
X282Y985D01*
X1292Y985D02*
X1299Y985D01*
X1Y984D02*
X8Y984D01*
X275Y984D02*
X283Y984D01*
X1292Y984D02*
X1299Y984D01*
X1Y983D02*
X8Y983D01*
X275Y983D02*
X284Y983D01*
X1292Y983D02*
X1299Y983D01*
X1Y982D02*
X8Y982D01*
X275Y982D02*
X284Y982D01*
X1292Y982D02*
X1299Y982D01*
X1Y981D02*
X8Y981D01*
X275Y981D02*
X284Y981D01*
X1292Y981D02*
X1299Y981D01*
X1Y980D02*
X8Y980D01*
X275Y980D02*
X284Y980D01*
X1292Y980D02*
X1299Y980D01*
X1Y979D02*
X8Y979D01*
X275Y979D02*
X284Y979D01*
X1292Y979D02*
X1299Y979D01*
X1Y978D02*
X8Y978D01*
X275Y978D02*
X284Y978D01*
X1292Y978D02*
X1299Y978D01*
X1Y977D02*
X8Y977D01*
X275Y977D02*
X284Y977D01*
X1292Y977D02*
X1299Y977D01*
X1Y976D02*
X8Y976D01*
X275Y976D02*
X284Y976D01*
X1292Y976D02*
X1299Y976D01*
X1Y975D02*
X8Y975D01*
X275Y975D02*
X284Y975D01*
X1292Y975D02*
X1299Y975D01*
X1Y974D02*
X8Y974D01*
X275Y974D02*
X284Y974D01*
X1292Y974D02*
X1299Y974D01*
X1Y973D02*
X8Y973D01*
X275Y973D02*
X284Y973D01*
X1292Y973D02*
X1299Y973D01*
X1Y972D02*
X8Y972D01*
X275Y972D02*
X284Y972D01*
X1292Y972D02*
X1299Y972D01*
X1Y971D02*
X8Y971D01*
X275Y971D02*
X284Y971D01*
X1292Y971D02*
X1299Y971D01*
X1Y970D02*
X8Y970D01*
X275Y970D02*
X284Y970D01*
X1292Y970D02*
X1299Y970D01*
X1Y969D02*
X8Y969D01*
X275Y969D02*
X284Y969D01*
X1292Y969D02*
X1299Y969D01*
X1Y968D02*
X8Y968D01*
X275Y968D02*
X284Y968D01*
X1292Y968D02*
X1299Y968D01*
X1Y967D02*
X8Y967D01*
X275Y967D02*
X284Y967D01*
X1292Y967D02*
X1299Y967D01*
X1Y966D02*
X8Y966D01*
X275Y966D02*
X284Y966D01*
X1292Y966D02*
X1299Y966D01*
X1Y965D02*
X8Y965D01*
X275Y965D02*
X284Y965D01*
X1292Y965D02*
X1299Y965D01*
X1Y964D02*
X8Y964D01*
X275Y964D02*
X284Y964D01*
X1292Y964D02*
X1299Y964D01*
X1Y963D02*
X8Y963D01*
X275Y963D02*
X284Y963D01*
X1292Y963D02*
X1299Y963D01*
X1Y962D02*
X8Y962D01*
X275Y962D02*
X284Y962D01*
X1292Y962D02*
X1299Y962D01*
X1Y961D02*
X8Y961D01*
X275Y961D02*
X284Y961D01*
X1292Y961D02*
X1299Y961D01*
X1Y960D02*
X8Y960D01*
X275Y960D02*
X284Y960D01*
X1292Y960D02*
X1299Y960D01*
X1Y959D02*
X8Y959D01*
X275Y959D02*
X284Y959D01*
X1292Y959D02*
X1299Y959D01*
X1Y958D02*
X8Y958D01*
X275Y958D02*
X284Y958D01*
X1292Y958D02*
X1299Y958D01*
X1Y957D02*
X8Y957D01*
X275Y957D02*
X284Y957D01*
X1292Y957D02*
X1299Y957D01*
X1Y956D02*
X8Y956D01*
X275Y956D02*
X284Y956D01*
X1292Y956D02*
X1299Y956D01*
X1Y955D02*
X8Y955D01*
X275Y955D02*
X284Y955D01*
X1292Y955D02*
X1299Y955D01*
X1Y954D02*
X8Y954D01*
X275Y954D02*
X284Y954D01*
X1292Y954D02*
X1299Y954D01*
X1Y953D02*
X8Y953D01*
X275Y953D02*
X284Y953D01*
X1292Y953D02*
X1299Y953D01*
X1Y952D02*
X8Y952D01*
X275Y952D02*
X284Y952D01*
X1292Y952D02*
X1299Y952D01*
X1Y951D02*
X8Y951D01*
X275Y951D02*
X284Y951D01*
X1292Y951D02*
X1299Y951D01*
X1Y950D02*
X8Y950D01*
X275Y950D02*
X284Y950D01*
X1292Y950D02*
X1299Y950D01*
X1Y949D02*
X8Y949D01*
X275Y949D02*
X284Y949D01*
X1292Y949D02*
X1299Y949D01*
X1Y948D02*
X8Y948D01*
X275Y948D02*
X284Y948D01*
X1292Y948D02*
X1299Y948D01*
X1Y947D02*
X8Y947D01*
X275Y947D02*
X284Y947D01*
X1292Y947D02*
X1299Y947D01*
X1Y946D02*
X8Y946D01*
X275Y946D02*
X284Y946D01*
X1292Y946D02*
X1299Y946D01*
X1Y945D02*
X8Y945D01*
X275Y945D02*
X284Y945D01*
X1292Y945D02*
X1299Y945D01*
X1Y944D02*
X8Y944D01*
X275Y944D02*
X284Y944D01*
X1292Y944D02*
X1299Y944D01*
X1Y943D02*
X8Y943D01*
X275Y943D02*
X284Y943D01*
X1292Y943D02*
X1299Y943D01*
X1Y942D02*
X8Y942D01*
X275Y942D02*
X284Y942D01*
X1292Y942D02*
X1299Y942D01*
X1Y941D02*
X8Y941D01*
X275Y941D02*
X284Y941D01*
X1292Y941D02*
X1299Y941D01*
X1Y940D02*
X8Y940D01*
X275Y940D02*
X284Y940D01*
X1292Y940D02*
X1299Y940D01*
X1Y939D02*
X8Y939D01*
X275Y939D02*
X284Y939D01*
X1292Y939D02*
X1299Y939D01*
X1Y938D02*
X8Y938D01*
X275Y938D02*
X284Y938D01*
X1292Y938D02*
X1299Y938D01*
X1Y937D02*
X8Y937D01*
X275Y937D02*
X284Y937D01*
X1292Y937D02*
X1299Y937D01*
X1Y936D02*
X8Y936D01*
X275Y936D02*
X284Y936D01*
X1292Y936D02*
X1299Y936D01*
X1Y935D02*
X8Y935D01*
X275Y935D02*
X284Y935D01*
X1292Y935D02*
X1299Y935D01*
X1Y934D02*
X8Y934D01*
X275Y934D02*
X284Y934D01*
X1292Y934D02*
X1299Y934D01*
X1Y933D02*
X8Y933D01*
X275Y933D02*
X284Y933D01*
X1292Y933D02*
X1299Y933D01*
X1Y932D02*
X8Y932D01*
X275Y932D02*
X284Y932D01*
X1292Y932D02*
X1299Y932D01*
X1Y931D02*
X8Y931D01*
X275Y931D02*
X284Y931D01*
X1292Y931D02*
X1299Y931D01*
X1Y930D02*
X8Y930D01*
X275Y930D02*
X284Y930D01*
X1292Y930D02*
X1299Y930D01*
X1Y929D02*
X8Y929D01*
X275Y929D02*
X284Y929D01*
X1292Y929D02*
X1299Y929D01*
X1Y928D02*
X8Y928D01*
X275Y928D02*
X284Y928D01*
X1292Y928D02*
X1299Y928D01*
X1Y927D02*
X8Y927D01*
X275Y927D02*
X284Y927D01*
X1292Y927D02*
X1299Y927D01*
X1Y926D02*
X8Y926D01*
X275Y926D02*
X284Y926D01*
X1292Y926D02*
X1299Y926D01*
X1Y925D02*
X8Y925D01*
X275Y925D02*
X284Y925D01*
X1292Y925D02*
X1299Y925D01*
X1Y924D02*
X8Y924D01*
X275Y924D02*
X284Y924D01*
X1292Y924D02*
X1299Y924D01*
X1Y923D02*
X8Y923D01*
X275Y923D02*
X284Y923D01*
X1292Y923D02*
X1299Y923D01*
X1Y922D02*
X8Y922D01*
X275Y922D02*
X284Y922D01*
X1292Y922D02*
X1299Y922D01*
X1Y921D02*
X8Y921D01*
X275Y921D02*
X284Y921D01*
X1292Y921D02*
X1299Y921D01*
X1Y920D02*
X8Y920D01*
X275Y920D02*
X284Y920D01*
X388Y920D02*
X404Y920D01*
X425Y920D02*
X443Y920D01*
X1292Y920D02*
X1299Y920D01*
X1Y919D02*
X8Y919D01*
X275Y919D02*
X284Y919D01*
X386Y919D02*
X406Y919D01*
X424Y919D02*
X443Y919D01*
X1292Y919D02*
X1299Y919D01*
X1Y918D02*
X8Y918D01*
X275Y918D02*
X284Y918D01*
X384Y918D02*
X406Y918D01*
X423Y918D02*
X443Y918D01*
X1292Y918D02*
X1299Y918D01*
X1Y917D02*
X8Y917D01*
X275Y917D02*
X284Y917D01*
X383Y917D02*
X406Y917D01*
X423Y917D02*
X443Y917D01*
X1292Y917D02*
X1299Y917D01*
X1Y916D02*
X8Y916D01*
X275Y916D02*
X284Y916D01*
X382Y916D02*
X406Y916D01*
X423Y916D02*
X443Y916D01*
X1292Y916D02*
X1299Y916D01*
X1Y915D02*
X8Y915D01*
X275Y915D02*
X284Y915D01*
X382Y915D02*
X406Y915D01*
X423Y915D02*
X443Y915D01*
X1292Y915D02*
X1299Y915D01*
X1Y914D02*
X8Y914D01*
X275Y914D02*
X284Y914D01*
X381Y914D02*
X405Y914D01*
X424Y914D02*
X443Y914D01*
X1292Y914D02*
X1299Y914D01*
X1Y913D02*
X8Y913D01*
X275Y913D02*
X284Y913D01*
X381Y913D02*
X388Y913D01*
X437Y913D02*
X443Y913D01*
X1292Y913D02*
X1299Y913D01*
X1Y912D02*
X8Y912D01*
X275Y912D02*
X284Y912D01*
X380Y912D02*
X387Y912D01*
X437Y912D02*
X443Y912D01*
X1292Y912D02*
X1299Y912D01*
X1Y911D02*
X8Y911D01*
X275Y911D02*
X284Y911D01*
X380Y911D02*
X387Y911D01*
X437Y911D02*
X443Y911D01*
X1292Y911D02*
X1299Y911D01*
X1Y910D02*
X8Y910D01*
X275Y910D02*
X284Y910D01*
X379Y910D02*
X386Y910D01*
X437Y910D02*
X443Y910D01*
X1292Y910D02*
X1299Y910D01*
X1Y909D02*
X8Y909D01*
X275Y909D02*
X284Y909D01*
X379Y909D02*
X386Y909D01*
X437Y909D02*
X443Y909D01*
X1292Y909D02*
X1299Y909D01*
X1Y908D02*
X8Y908D01*
X275Y908D02*
X284Y908D01*
X378Y908D02*
X385Y908D01*
X437Y908D02*
X443Y908D01*
X1292Y908D02*
X1299Y908D01*
X1Y907D02*
X8Y907D01*
X275Y907D02*
X284Y907D01*
X378Y907D02*
X385Y907D01*
X437Y907D02*
X443Y907D01*
X1292Y907D02*
X1299Y907D01*
X1Y906D02*
X8Y906D01*
X275Y906D02*
X284Y906D01*
X377Y906D02*
X384Y906D01*
X437Y906D02*
X443Y906D01*
X1292Y906D02*
X1299Y906D01*
X1Y905D02*
X8Y905D01*
X275Y905D02*
X284Y905D01*
X377Y905D02*
X384Y905D01*
X437Y905D02*
X443Y905D01*
X1292Y905D02*
X1299Y905D01*
X1Y904D02*
X8Y904D01*
X275Y904D02*
X284Y904D01*
X376Y904D02*
X383Y904D01*
X437Y904D02*
X443Y904D01*
X1292Y904D02*
X1299Y904D01*
X1Y903D02*
X8Y903D01*
X275Y903D02*
X284Y903D01*
X376Y903D02*
X383Y903D01*
X437Y903D02*
X443Y903D01*
X1292Y903D02*
X1299Y903D01*
X1Y902D02*
X8Y902D01*
X275Y902D02*
X284Y902D01*
X375Y902D02*
X382Y902D01*
X437Y902D02*
X443Y902D01*
X1292Y902D02*
X1299Y902D01*
X1Y901D02*
X8Y901D01*
X275Y901D02*
X284Y901D01*
X375Y901D02*
X382Y901D01*
X437Y901D02*
X443Y901D01*
X1292Y901D02*
X1299Y901D01*
X1Y900D02*
X8Y900D01*
X275Y900D02*
X284Y900D01*
X374Y900D02*
X381Y900D01*
X437Y900D02*
X443Y900D01*
X1292Y900D02*
X1299Y900D01*
X1Y899D02*
X8Y899D01*
X275Y899D02*
X284Y899D01*
X374Y899D02*
X381Y899D01*
X437Y899D02*
X443Y899D01*
X1292Y899D02*
X1299Y899D01*
X1Y898D02*
X8Y898D01*
X275Y898D02*
X284Y898D01*
X374Y898D02*
X380Y898D01*
X437Y898D02*
X443Y898D01*
X1292Y898D02*
X1299Y898D01*
X1Y897D02*
X8Y897D01*
X275Y897D02*
X284Y897D01*
X373Y897D02*
X380Y897D01*
X437Y897D02*
X443Y897D01*
X1292Y897D02*
X1299Y897D01*
X1Y896D02*
X8Y896D01*
X275Y896D02*
X284Y896D01*
X373Y896D02*
X379Y896D01*
X437Y896D02*
X443Y896D01*
X1292Y896D02*
X1299Y896D01*
X1Y895D02*
X8Y895D01*
X275Y895D02*
X284Y895D01*
X373Y895D02*
X379Y895D01*
X437Y895D02*
X443Y895D01*
X1292Y895D02*
X1299Y895D01*
X1Y894D02*
X8Y894D01*
X275Y894D02*
X284Y894D01*
X373Y894D02*
X379Y894D01*
X437Y894D02*
X443Y894D01*
X1292Y894D02*
X1299Y894D01*
X1Y893D02*
X8Y893D01*
X275Y893D02*
X284Y893D01*
X373Y893D02*
X379Y893D01*
X437Y893D02*
X443Y893D01*
X1292Y893D02*
X1299Y893D01*
X1Y892D02*
X8Y892D01*
X275Y892D02*
X284Y892D01*
X373Y892D02*
X379Y892D01*
X437Y892D02*
X443Y892D01*
X1292Y892D02*
X1299Y892D01*
X1Y891D02*
X8Y891D01*
X275Y891D02*
X284Y891D01*
X373Y891D02*
X379Y891D01*
X437Y891D02*
X443Y891D01*
X1292Y891D02*
X1299Y891D01*
X1Y890D02*
X8Y890D01*
X275Y890D02*
X284Y890D01*
X373Y890D02*
X380Y890D01*
X437Y890D02*
X443Y890D01*
X452Y890D02*
X455Y890D01*
X1292Y890D02*
X1299Y890D01*
X1Y889D02*
X8Y889D01*
X275Y889D02*
X284Y889D01*
X373Y889D02*
X380Y889D01*
X437Y889D02*
X443Y889D01*
X451Y889D02*
X456Y889D01*
X1292Y889D02*
X1299Y889D01*
X1Y888D02*
X8Y888D01*
X275Y888D02*
X284Y888D01*
X374Y888D02*
X380Y888D01*
X437Y888D02*
X443Y888D01*
X450Y888D02*
X456Y888D01*
X1292Y888D02*
X1299Y888D01*
X1Y887D02*
X8Y887D01*
X275Y887D02*
X284Y887D01*
X374Y887D02*
X381Y887D01*
X437Y887D02*
X443Y887D01*
X450Y887D02*
X456Y887D01*
X1292Y887D02*
X1299Y887D01*
X1Y886D02*
X8Y886D01*
X275Y886D02*
X284Y886D01*
X375Y886D02*
X381Y886D01*
X437Y886D02*
X443Y886D01*
X450Y886D02*
X456Y886D01*
X1292Y886D02*
X1299Y886D01*
X1Y885D02*
X8Y885D01*
X275Y885D02*
X284Y885D01*
X375Y885D02*
X382Y885D01*
X437Y885D02*
X443Y885D01*
X450Y885D02*
X456Y885D01*
X1292Y885D02*
X1299Y885D01*
X1Y884D02*
X8Y884D01*
X275Y884D02*
X284Y884D01*
X376Y884D02*
X382Y884D01*
X437Y884D02*
X443Y884D01*
X450Y884D02*
X456Y884D01*
X1292Y884D02*
X1299Y884D01*
X1Y883D02*
X8Y883D01*
X275Y883D02*
X284Y883D01*
X376Y883D02*
X383Y883D01*
X437Y883D02*
X443Y883D01*
X450Y883D02*
X456Y883D01*
X1292Y883D02*
X1299Y883D01*
X1Y882D02*
X8Y882D01*
X275Y882D02*
X284Y882D01*
X377Y882D02*
X383Y882D01*
X437Y882D02*
X443Y882D01*
X450Y882D02*
X456Y882D01*
X1292Y882D02*
X1299Y882D01*
X1Y881D02*
X8Y881D01*
X275Y881D02*
X284Y881D01*
X377Y881D02*
X384Y881D01*
X437Y881D02*
X443Y881D01*
X450Y881D02*
X456Y881D01*
X1292Y881D02*
X1299Y881D01*
X1Y880D02*
X8Y880D01*
X275Y880D02*
X284Y880D01*
X378Y880D02*
X384Y880D01*
X437Y880D02*
X443Y880D01*
X450Y880D02*
X456Y880D01*
X1292Y880D02*
X1299Y880D01*
X1Y879D02*
X8Y879D01*
X275Y879D02*
X284Y879D01*
X378Y879D02*
X385Y879D01*
X437Y879D02*
X443Y879D01*
X450Y879D02*
X456Y879D01*
X1292Y879D02*
X1299Y879D01*
X1Y878D02*
X8Y878D01*
X275Y878D02*
X284Y878D01*
X379Y878D02*
X385Y878D01*
X437Y878D02*
X443Y878D01*
X450Y878D02*
X456Y878D01*
X1292Y878D02*
X1299Y878D01*
X1Y877D02*
X8Y877D01*
X275Y877D02*
X284Y877D01*
X379Y877D02*
X386Y877D01*
X437Y877D02*
X443Y877D01*
X450Y877D02*
X456Y877D01*
X1292Y877D02*
X1299Y877D01*
X1Y876D02*
X8Y876D01*
X275Y876D02*
X284Y876D01*
X380Y876D02*
X386Y876D01*
X437Y876D02*
X443Y876D01*
X450Y876D02*
X456Y876D01*
X1292Y876D02*
X1299Y876D01*
X1Y875D02*
X8Y875D01*
X275Y875D02*
X284Y875D01*
X380Y875D02*
X387Y875D01*
X437Y875D02*
X443Y875D01*
X450Y875D02*
X456Y875D01*
X1292Y875D02*
X1299Y875D01*
X1Y874D02*
X8Y874D01*
X275Y874D02*
X284Y874D01*
X381Y874D02*
X388Y874D01*
X437Y874D02*
X443Y874D01*
X450Y874D02*
X456Y874D01*
X1292Y874D02*
X1299Y874D01*
X1Y873D02*
X8Y873D01*
X275Y873D02*
X284Y873D01*
X381Y873D02*
X404Y873D01*
X425Y873D02*
X456Y873D01*
X1292Y873D02*
X1299Y873D01*
X1Y872D02*
X8Y872D01*
X275Y872D02*
X284Y872D01*
X382Y872D02*
X405Y872D01*
X424Y872D02*
X456Y872D01*
X1292Y872D02*
X1299Y872D01*
X1Y871D02*
X8Y871D01*
X275Y871D02*
X284Y871D01*
X382Y871D02*
X406Y871D01*
X423Y871D02*
X456Y871D01*
X1292Y871D02*
X1299Y871D01*
X1Y870D02*
X8Y870D01*
X275Y870D02*
X284Y870D01*
X383Y870D02*
X406Y870D01*
X423Y870D02*
X456Y870D01*
X1292Y870D02*
X1299Y870D01*
X1Y869D02*
X8Y869D01*
X275Y869D02*
X284Y869D01*
X384Y869D02*
X406Y869D01*
X423Y869D02*
X456Y869D01*
X1292Y869D02*
X1299Y869D01*
X1Y868D02*
X8Y868D01*
X275Y868D02*
X284Y868D01*
X385Y868D02*
X406Y868D01*
X423Y868D02*
X456Y868D01*
X1292Y868D02*
X1299Y868D01*
X1Y867D02*
X8Y867D01*
X275Y867D02*
X284Y867D01*
X387Y867D02*
X405Y867D01*
X424Y867D02*
X455Y867D01*
X1292Y867D02*
X1299Y867D01*
X1Y866D02*
X8Y866D01*
X275Y866D02*
X284Y866D01*
X1292Y866D02*
X1299Y866D01*
X1Y865D02*
X8Y865D01*
X275Y865D02*
X284Y865D01*
X1292Y865D02*
X1299Y865D01*
X1Y864D02*
X8Y864D01*
X275Y864D02*
X284Y864D01*
X1292Y864D02*
X1299Y864D01*
X1Y863D02*
X8Y863D01*
X275Y863D02*
X284Y863D01*
X1292Y863D02*
X1299Y863D01*
X1Y862D02*
X8Y862D01*
X275Y862D02*
X284Y862D01*
X1292Y862D02*
X1299Y862D01*
X1Y861D02*
X8Y861D01*
X275Y861D02*
X284Y861D01*
X1292Y861D02*
X1299Y861D01*
X1Y860D02*
X8Y860D01*
X275Y860D02*
X284Y860D01*
X1292Y860D02*
X1299Y860D01*
X1Y859D02*
X8Y859D01*
X275Y859D02*
X284Y859D01*
X1292Y859D02*
X1299Y859D01*
X1Y858D02*
X8Y858D01*
X275Y858D02*
X284Y858D01*
X1292Y858D02*
X1299Y858D01*
X1Y857D02*
X8Y857D01*
X275Y857D02*
X284Y857D01*
X1292Y857D02*
X1299Y857D01*
X1Y856D02*
X8Y856D01*
X275Y856D02*
X284Y856D01*
X1292Y856D02*
X1299Y856D01*
X1Y855D02*
X8Y855D01*
X275Y855D02*
X284Y855D01*
X1292Y855D02*
X1299Y855D01*
X1Y854D02*
X8Y854D01*
X275Y854D02*
X284Y854D01*
X1292Y854D02*
X1299Y854D01*
X1Y853D02*
X8Y853D01*
X275Y853D02*
X284Y853D01*
X1292Y853D02*
X1299Y853D01*
X1Y852D02*
X8Y852D01*
X275Y852D02*
X284Y852D01*
X1292Y852D02*
X1299Y852D01*
X1Y851D02*
X8Y851D01*
X275Y851D02*
X284Y851D01*
X1292Y851D02*
X1299Y851D01*
X1Y850D02*
X8Y850D01*
X275Y850D02*
X284Y850D01*
X1292Y850D02*
X1299Y850D01*
X1Y849D02*
X8Y849D01*
X275Y849D02*
X284Y849D01*
X1292Y849D02*
X1299Y849D01*
X1Y848D02*
X8Y848D01*
X275Y848D02*
X284Y848D01*
X1292Y848D02*
X1299Y848D01*
X1Y847D02*
X8Y847D01*
X275Y847D02*
X284Y847D01*
X1292Y847D02*
X1299Y847D01*
X1Y846D02*
X8Y846D01*
X275Y846D02*
X284Y846D01*
X1292Y846D02*
X1299Y846D01*
X1Y845D02*
X8Y845D01*
X275Y845D02*
X284Y845D01*
X1292Y845D02*
X1299Y845D01*
X1Y844D02*
X8Y844D01*
X275Y844D02*
X284Y844D01*
X1292Y844D02*
X1299Y844D01*
X1Y843D02*
X8Y843D01*
X275Y843D02*
X284Y843D01*
X1292Y843D02*
X1299Y843D01*
X1Y842D02*
X8Y842D01*
X275Y842D02*
X284Y842D01*
X1292Y842D02*
X1299Y842D01*
X1Y841D02*
X8Y841D01*
X275Y841D02*
X284Y841D01*
X1292Y841D02*
X1299Y841D01*
X1Y840D02*
X8Y840D01*
X275Y840D02*
X284Y840D01*
X1292Y840D02*
X1299Y840D01*
X1Y839D02*
X8Y839D01*
X275Y839D02*
X284Y839D01*
X1292Y839D02*
X1299Y839D01*
X1Y838D02*
X8Y838D01*
X275Y838D02*
X284Y838D01*
X1292Y838D02*
X1299Y838D01*
X1Y837D02*
X8Y837D01*
X275Y837D02*
X284Y837D01*
X1292Y837D02*
X1299Y837D01*
X1Y836D02*
X8Y836D01*
X275Y836D02*
X284Y836D01*
X1292Y836D02*
X1299Y836D01*
X1Y835D02*
X8Y835D01*
X275Y835D02*
X284Y835D01*
X1292Y835D02*
X1299Y835D01*
X1Y834D02*
X8Y834D01*
X275Y834D02*
X284Y834D01*
X1292Y834D02*
X1299Y834D01*
X1Y833D02*
X8Y833D01*
X275Y833D02*
X284Y833D01*
X1292Y833D02*
X1299Y833D01*
X1Y832D02*
X8Y832D01*
X275Y832D02*
X284Y832D01*
X1292Y832D02*
X1299Y832D01*
X1Y831D02*
X8Y831D01*
X275Y831D02*
X284Y831D01*
X1292Y831D02*
X1299Y831D01*
X1Y830D02*
X8Y830D01*
X275Y830D02*
X284Y830D01*
X1292Y830D02*
X1299Y830D01*
X1Y829D02*
X8Y829D01*
X275Y829D02*
X284Y829D01*
X1292Y829D02*
X1299Y829D01*
X1Y828D02*
X8Y828D01*
X275Y828D02*
X284Y828D01*
X1292Y828D02*
X1299Y828D01*
X1Y827D02*
X8Y827D01*
X275Y827D02*
X284Y827D01*
X1292Y827D02*
X1299Y827D01*
X1Y826D02*
X8Y826D01*
X275Y826D02*
X284Y826D01*
X1292Y826D02*
X1299Y826D01*
X1Y825D02*
X8Y825D01*
X275Y825D02*
X284Y825D01*
X1292Y825D02*
X1299Y825D01*
X1Y824D02*
X8Y824D01*
X275Y824D02*
X284Y824D01*
X1292Y824D02*
X1299Y824D01*
X1Y823D02*
X8Y823D01*
X275Y823D02*
X284Y823D01*
X1292Y823D02*
X1299Y823D01*
X1Y822D02*
X8Y822D01*
X275Y822D02*
X284Y822D01*
X1292Y822D02*
X1299Y822D01*
X1Y821D02*
X8Y821D01*
X275Y821D02*
X284Y821D01*
X1292Y821D02*
X1299Y821D01*
X1Y820D02*
X8Y820D01*
X275Y820D02*
X284Y820D01*
X1292Y820D02*
X1299Y820D01*
X1Y819D02*
X8Y819D01*
X275Y819D02*
X284Y819D01*
X1292Y819D02*
X1299Y819D01*
X1Y818D02*
X8Y818D01*
X275Y818D02*
X284Y818D01*
X1292Y818D02*
X1299Y818D01*
X1Y817D02*
X8Y817D01*
X275Y817D02*
X284Y817D01*
X1292Y817D02*
X1299Y817D01*
X1Y816D02*
X8Y816D01*
X275Y816D02*
X284Y816D01*
X1292Y816D02*
X1299Y816D01*
X1Y815D02*
X8Y815D01*
X275Y815D02*
X284Y815D01*
X1292Y815D02*
X1299Y815D01*
X1Y814D02*
X8Y814D01*
X275Y814D02*
X284Y814D01*
X1292Y814D02*
X1299Y814D01*
X1Y813D02*
X8Y813D01*
X275Y813D02*
X284Y813D01*
X1292Y813D02*
X1299Y813D01*
X1Y812D02*
X8Y812D01*
X275Y812D02*
X284Y812D01*
X1292Y812D02*
X1299Y812D01*
X1Y811D02*
X8Y811D01*
X275Y811D02*
X284Y811D01*
X1292Y811D02*
X1299Y811D01*
X1Y810D02*
X8Y810D01*
X275Y810D02*
X284Y810D01*
X1292Y810D02*
X1299Y810D01*
X1Y809D02*
X8Y809D01*
X275Y809D02*
X284Y809D01*
X1292Y809D02*
X1299Y809D01*
X1Y808D02*
X8Y808D01*
X275Y808D02*
X284Y808D01*
X1292Y808D02*
X1299Y808D01*
X1Y807D02*
X8Y807D01*
X275Y807D02*
X284Y807D01*
X1292Y807D02*
X1299Y807D01*
X1Y806D02*
X8Y806D01*
X275Y806D02*
X284Y806D01*
X1292Y806D02*
X1299Y806D01*
X1Y805D02*
X8Y805D01*
X275Y805D02*
X284Y805D01*
X1292Y805D02*
X1299Y805D01*
X1Y804D02*
X8Y804D01*
X275Y804D02*
X284Y804D01*
X1292Y804D02*
X1299Y804D01*
X1Y803D02*
X8Y803D01*
X275Y803D02*
X284Y803D01*
X1292Y803D02*
X1299Y803D01*
X1Y802D02*
X8Y802D01*
X275Y802D02*
X284Y802D01*
X1292Y802D02*
X1299Y802D01*
X1Y801D02*
X8Y801D01*
X275Y801D02*
X284Y801D01*
X1292Y801D02*
X1299Y801D01*
X1Y800D02*
X8Y800D01*
X275Y800D02*
X284Y800D01*
X1292Y800D02*
X1299Y800D01*
X1Y799D02*
X8Y799D01*
X275Y799D02*
X284Y799D01*
X1292Y799D02*
X1299Y799D01*
X1Y798D02*
X8Y798D01*
X275Y798D02*
X284Y798D01*
X1292Y798D02*
X1299Y798D01*
X1Y797D02*
X8Y797D01*
X275Y797D02*
X284Y797D01*
X1292Y797D02*
X1299Y797D01*
X1Y796D02*
X8Y796D01*
X275Y796D02*
X284Y796D01*
X1292Y796D02*
X1299Y796D01*
X1Y795D02*
X8Y795D01*
X275Y795D02*
X284Y795D01*
X1292Y795D02*
X1299Y795D01*
X1Y794D02*
X8Y794D01*
X275Y794D02*
X284Y794D01*
X1292Y794D02*
X1299Y794D01*
X1Y793D02*
X8Y793D01*
X275Y793D02*
X284Y793D01*
X1292Y793D02*
X1299Y793D01*
X1Y792D02*
X8Y792D01*
X275Y792D02*
X284Y792D01*
X1292Y792D02*
X1299Y792D01*
X1Y791D02*
X8Y791D01*
X275Y791D02*
X284Y791D01*
X1292Y791D02*
X1299Y791D01*
X1Y790D02*
X8Y790D01*
X275Y790D02*
X284Y790D01*
X1292Y790D02*
X1299Y790D01*
X1Y789D02*
X8Y789D01*
X275Y789D02*
X284Y789D01*
X1292Y789D02*
X1299Y789D01*
X1Y788D02*
X8Y788D01*
X275Y788D02*
X284Y788D01*
X1292Y788D02*
X1299Y788D01*
X1Y787D02*
X8Y787D01*
X275Y787D02*
X284Y787D01*
X1292Y787D02*
X1299Y787D01*
X1Y786D02*
X8Y786D01*
X275Y786D02*
X284Y786D01*
X1292Y786D02*
X1299Y786D01*
X1Y785D02*
X8Y785D01*
X275Y785D02*
X284Y785D01*
X1292Y785D02*
X1299Y785D01*
X1Y784D02*
X8Y784D01*
X275Y784D02*
X284Y784D01*
X1292Y784D02*
X1299Y784D01*
X1Y783D02*
X8Y783D01*
X275Y783D02*
X284Y783D01*
X1292Y783D02*
X1299Y783D01*
X1Y782D02*
X8Y782D01*
X275Y782D02*
X284Y782D01*
X1292Y782D02*
X1299Y782D01*
X1Y781D02*
X8Y781D01*
X275Y781D02*
X284Y781D01*
X1292Y781D02*
X1299Y781D01*
X1Y780D02*
X8Y780D01*
X275Y780D02*
X284Y780D01*
X1292Y780D02*
X1299Y780D01*
X1Y779D02*
X8Y779D01*
X275Y779D02*
X284Y779D01*
X1292Y779D02*
X1299Y779D01*
X1Y778D02*
X8Y778D01*
X275Y778D02*
X284Y778D01*
X1292Y778D02*
X1299Y778D01*
X1Y777D02*
X8Y777D01*
X275Y777D02*
X284Y777D01*
X393Y777D02*
X393Y777D01*
X1292Y777D02*
X1299Y777D01*
X1Y776D02*
X8Y776D01*
X275Y776D02*
X284Y776D01*
X392Y776D02*
X394Y776D01*
X445Y776D02*
X447Y776D01*
X1292Y776D02*
X1299Y776D01*
X1Y775D02*
X8Y775D01*
X275Y775D02*
X284Y775D01*
X392Y775D02*
X395Y775D01*
X444Y775D02*
X447Y775D01*
X1292Y775D02*
X1299Y775D01*
X1Y774D02*
X8Y774D01*
X275Y774D02*
X284Y774D01*
X391Y774D02*
X396Y774D01*
X443Y774D02*
X448Y774D01*
X1292Y774D02*
X1299Y774D01*
X1Y773D02*
X8Y773D01*
X275Y773D02*
X284Y773D01*
X390Y773D02*
X398Y773D01*
X441Y773D02*
X449Y773D01*
X1292Y773D02*
X1299Y773D01*
X1Y772D02*
X8Y772D01*
X275Y772D02*
X284Y772D01*
X390Y772D02*
X398Y772D01*
X441Y772D02*
X449Y772D01*
X1292Y772D02*
X1299Y772D01*
X1Y771D02*
X8Y771D01*
X275Y771D02*
X284Y771D01*
X389Y771D02*
X398Y771D01*
X441Y771D02*
X450Y771D01*
X1292Y771D02*
X1299Y771D01*
X1Y770D02*
X8Y770D01*
X275Y770D02*
X284Y770D01*
X389Y770D02*
X397Y770D01*
X442Y770D02*
X450Y770D01*
X1292Y770D02*
X1299Y770D01*
X1Y769D02*
X8Y769D01*
X275Y769D02*
X284Y769D01*
X389Y769D02*
X396Y769D01*
X443Y769D02*
X451Y769D01*
X1292Y769D02*
X1299Y769D01*
X1Y768D02*
X8Y768D01*
X275Y768D02*
X284Y768D01*
X388Y768D02*
X396Y768D01*
X443Y768D02*
X451Y768D01*
X1292Y768D02*
X1299Y768D01*
X1Y767D02*
X8Y767D01*
X275Y767D02*
X284Y767D01*
X388Y767D02*
X395Y767D01*
X444Y767D02*
X451Y767D01*
X1292Y767D02*
X1299Y767D01*
X1Y766D02*
X8Y766D01*
X275Y766D02*
X284Y766D01*
X388Y766D02*
X395Y766D01*
X444Y766D02*
X452Y766D01*
X1292Y766D02*
X1299Y766D01*
X1Y765D02*
X8Y765D01*
X275Y765D02*
X284Y765D01*
X387Y765D02*
X394Y765D01*
X445Y765D02*
X452Y765D01*
X1292Y765D02*
X1299Y765D01*
X1Y764D02*
X8Y764D01*
X275Y764D02*
X284Y764D01*
X387Y764D02*
X394Y764D01*
X445Y764D02*
X452Y764D01*
X1292Y764D02*
X1299Y764D01*
X1Y763D02*
X8Y763D01*
X275Y763D02*
X284Y763D01*
X387Y763D02*
X394Y763D01*
X445Y763D02*
X452Y763D01*
X1292Y763D02*
X1299Y763D01*
X1Y762D02*
X8Y762D01*
X275Y762D02*
X284Y762D01*
X387Y762D02*
X393Y762D01*
X446Y762D02*
X452Y762D01*
X1292Y762D02*
X1299Y762D01*
X1Y761D02*
X8Y761D01*
X275Y761D02*
X284Y761D01*
X387Y761D02*
X393Y761D01*
X446Y761D02*
X453Y761D01*
X1292Y761D02*
X1299Y761D01*
X1Y760D02*
X8Y760D01*
X275Y760D02*
X284Y760D01*
X386Y760D02*
X393Y760D01*
X446Y760D02*
X453Y760D01*
X1292Y760D02*
X1299Y760D01*
X1Y759D02*
X8Y759D01*
X275Y759D02*
X284Y759D01*
X386Y759D02*
X393Y759D01*
X446Y759D02*
X453Y759D01*
X1292Y759D02*
X1299Y759D01*
X1Y758D02*
X8Y758D01*
X275Y758D02*
X284Y758D01*
X386Y758D02*
X393Y758D01*
X446Y758D02*
X453Y758D01*
X1292Y758D02*
X1299Y758D01*
X1Y757D02*
X8Y757D01*
X275Y757D02*
X284Y757D01*
X386Y757D02*
X393Y757D01*
X446Y757D02*
X453Y757D01*
X1292Y757D02*
X1299Y757D01*
X1Y756D02*
X8Y756D01*
X275Y756D02*
X284Y756D01*
X386Y756D02*
X393Y756D01*
X446Y756D02*
X453Y756D01*
X1292Y756D02*
X1299Y756D01*
X1Y755D02*
X8Y755D01*
X275Y755D02*
X284Y755D01*
X386Y755D02*
X393Y755D01*
X446Y755D02*
X453Y755D01*
X1292Y755D02*
X1299Y755D01*
X1Y754D02*
X8Y754D01*
X275Y754D02*
X284Y754D01*
X386Y754D02*
X393Y754D01*
X446Y754D02*
X453Y754D01*
X1292Y754D02*
X1299Y754D01*
X1Y753D02*
X8Y753D01*
X275Y753D02*
X284Y753D01*
X386Y753D02*
X393Y753D01*
X446Y753D02*
X453Y753D01*
X1292Y753D02*
X1299Y753D01*
X1Y752D02*
X8Y752D01*
X275Y752D02*
X284Y752D01*
X387Y752D02*
X393Y752D01*
X446Y752D02*
X452Y752D01*
X1292Y752D02*
X1299Y752D01*
X1Y751D02*
X8Y751D01*
X275Y751D02*
X284Y751D01*
X387Y751D02*
X394Y751D01*
X445Y751D02*
X452Y751D01*
X1292Y751D02*
X1299Y751D01*
X1Y750D02*
X8Y750D01*
X275Y750D02*
X284Y750D01*
X387Y750D02*
X394Y750D01*
X445Y750D02*
X452Y750D01*
X1292Y750D02*
X1299Y750D01*
X1Y749D02*
X8Y749D01*
X275Y749D02*
X284Y749D01*
X387Y749D02*
X394Y749D01*
X445Y749D02*
X452Y749D01*
X1292Y749D02*
X1299Y749D01*
X1Y748D02*
X8Y748D01*
X275Y748D02*
X284Y748D01*
X387Y748D02*
X395Y748D01*
X445Y748D02*
X452Y748D01*
X1292Y748D02*
X1299Y748D01*
X1Y747D02*
X8Y747D01*
X275Y747D02*
X284Y747D01*
X388Y747D02*
X395Y747D01*
X444Y747D02*
X451Y747D01*
X1292Y747D02*
X1299Y747D01*
X1Y746D02*
X8Y746D01*
X275Y746D02*
X284Y746D01*
X388Y746D02*
X395Y746D01*
X444Y746D02*
X451Y746D01*
X1292Y746D02*
X1299Y746D01*
X1Y745D02*
X8Y745D01*
X275Y745D02*
X284Y745D01*
X388Y745D02*
X396Y745D01*
X443Y745D02*
X451Y745D01*
X1292Y745D02*
X1299Y745D01*
X1Y744D02*
X8Y744D01*
X275Y744D02*
X284Y744D01*
X389Y744D02*
X397Y744D01*
X443Y744D02*
X450Y744D01*
X1292Y744D02*
X1299Y744D01*
X1Y743D02*
X8Y743D01*
X275Y743D02*
X284Y743D01*
X389Y743D02*
X397Y743D01*
X442Y743D02*
X450Y743D01*
X1292Y743D02*
X1299Y743D01*
X1Y742D02*
X8Y742D01*
X275Y742D02*
X284Y742D01*
X390Y742D02*
X398Y742D01*
X441Y742D02*
X449Y742D01*
X1292Y742D02*
X1299Y742D01*
X1Y741D02*
X8Y741D01*
X275Y741D02*
X284Y741D01*
X390Y741D02*
X398Y741D01*
X441Y741D02*
X449Y741D01*
X1292Y741D02*
X1299Y741D01*
X1Y740D02*
X8Y740D01*
X275Y740D02*
X284Y740D01*
X391Y740D02*
X397Y740D01*
X442Y740D02*
X448Y740D01*
X1292Y740D02*
X1299Y740D01*
X1Y739D02*
X8Y739D01*
X275Y739D02*
X284Y739D01*
X391Y739D02*
X396Y739D01*
X443Y739D02*
X448Y739D01*
X1292Y739D02*
X1299Y739D01*
X1Y738D02*
X8Y738D01*
X275Y738D02*
X284Y738D01*
X392Y738D02*
X394Y738D01*
X445Y738D02*
X447Y738D01*
X1292Y738D02*
X1299Y738D01*
X1Y737D02*
X8Y737D01*
X275Y737D02*
X284Y737D01*
X393Y737D02*
X393Y737D01*
X446Y737D02*
X446Y737D01*
X1292Y737D02*
X1299Y737D01*
X1Y736D02*
X8Y736D01*
X275Y736D02*
X284Y736D01*
X1292Y736D02*
X1299Y736D01*
X1Y735D02*
X8Y735D01*
X275Y735D02*
X284Y735D01*
X1292Y735D02*
X1299Y735D01*
X1Y734D02*
X8Y734D01*
X275Y734D02*
X284Y734D01*
X1292Y734D02*
X1299Y734D01*
X1Y733D02*
X8Y733D01*
X275Y733D02*
X284Y733D01*
X1292Y733D02*
X1299Y733D01*
X1Y732D02*
X8Y732D01*
X275Y732D02*
X284Y732D01*
X1292Y732D02*
X1299Y732D01*
X1Y731D02*
X8Y731D01*
X275Y731D02*
X284Y731D01*
X1292Y731D02*
X1299Y731D01*
X1Y730D02*
X8Y730D01*
X275Y730D02*
X284Y730D01*
X1292Y730D02*
X1299Y730D01*
X1Y729D02*
X8Y729D01*
X275Y729D02*
X284Y729D01*
X1292Y729D02*
X1299Y729D01*
X1Y728D02*
X8Y728D01*
X275Y728D02*
X284Y728D01*
X1292Y728D02*
X1299Y728D01*
X1Y727D02*
X8Y727D01*
X275Y727D02*
X284Y727D01*
X1292Y727D02*
X1299Y727D01*
X1Y726D02*
X8Y726D01*
X275Y726D02*
X284Y726D01*
X1292Y726D02*
X1299Y726D01*
X1Y725D02*
X8Y725D01*
X275Y725D02*
X284Y725D01*
X1292Y725D02*
X1299Y725D01*
X1Y724D02*
X8Y724D01*
X275Y724D02*
X284Y724D01*
X1292Y724D02*
X1299Y724D01*
X1Y723D02*
X8Y723D01*
X275Y723D02*
X284Y723D01*
X1292Y723D02*
X1299Y723D01*
X1Y722D02*
X8Y722D01*
X275Y722D02*
X284Y722D01*
X1292Y722D02*
X1299Y722D01*
X1Y721D02*
X8Y721D01*
X275Y721D02*
X284Y721D01*
X1292Y721D02*
X1299Y721D01*
X1Y720D02*
X8Y720D01*
X275Y720D02*
X284Y720D01*
X1292Y720D02*
X1299Y720D01*
X1Y719D02*
X8Y719D01*
X275Y719D02*
X284Y719D01*
X1292Y719D02*
X1299Y719D01*
X1Y718D02*
X8Y718D01*
X275Y718D02*
X284Y718D01*
X1292Y718D02*
X1299Y718D01*
X1Y717D02*
X8Y717D01*
X275Y717D02*
X284Y717D01*
X1292Y717D02*
X1299Y717D01*
X1Y716D02*
X8Y716D01*
X275Y716D02*
X284Y716D01*
X1292Y716D02*
X1299Y716D01*
X1Y715D02*
X8Y715D01*
X275Y715D02*
X284Y715D01*
X1292Y715D02*
X1299Y715D01*
X1Y714D02*
X8Y714D01*
X275Y714D02*
X284Y714D01*
X1292Y714D02*
X1299Y714D01*
X1Y713D02*
X8Y713D01*
X275Y713D02*
X284Y713D01*
X1292Y713D02*
X1299Y713D01*
X1Y712D02*
X8Y712D01*
X275Y712D02*
X284Y712D01*
X1292Y712D02*
X1299Y712D01*
X1Y711D02*
X8Y711D01*
X275Y711D02*
X284Y711D01*
X1292Y711D02*
X1299Y711D01*
X1Y710D02*
X8Y710D01*
X275Y710D02*
X284Y710D01*
X1292Y710D02*
X1299Y710D01*
X1Y709D02*
X8Y709D01*
X275Y709D02*
X284Y709D01*
X1292Y709D02*
X1299Y709D01*
X1Y708D02*
X8Y708D01*
X275Y708D02*
X284Y708D01*
X1292Y708D02*
X1299Y708D01*
X1Y707D02*
X8Y707D01*
X275Y707D02*
X284Y707D01*
X1292Y707D02*
X1299Y707D01*
X1Y706D02*
X8Y706D01*
X275Y706D02*
X284Y706D01*
X1292Y706D02*
X1299Y706D01*
X1Y705D02*
X8Y705D01*
X275Y705D02*
X284Y705D01*
X1292Y705D02*
X1299Y705D01*
X1Y704D02*
X8Y704D01*
X275Y704D02*
X284Y704D01*
X1292Y704D02*
X1299Y704D01*
X1Y703D02*
X8Y703D01*
X275Y703D02*
X284Y703D01*
X1292Y703D02*
X1299Y703D01*
X1Y702D02*
X8Y702D01*
X275Y702D02*
X284Y702D01*
X1292Y702D02*
X1299Y702D01*
X1Y701D02*
X8Y701D01*
X275Y701D02*
X284Y701D01*
X1292Y701D02*
X1299Y701D01*
X1Y700D02*
X8Y700D01*
X275Y700D02*
X284Y700D01*
X1292Y700D02*
X1299Y700D01*
X1Y699D02*
X8Y699D01*
X275Y699D02*
X284Y699D01*
X1292Y699D02*
X1299Y699D01*
X1Y698D02*
X8Y698D01*
X275Y698D02*
X284Y698D01*
X1292Y698D02*
X1299Y698D01*
X1Y697D02*
X8Y697D01*
X275Y697D02*
X284Y697D01*
X1292Y697D02*
X1299Y697D01*
X1Y696D02*
X8Y696D01*
X275Y696D02*
X284Y696D01*
X1292Y696D02*
X1299Y696D01*
X1Y695D02*
X8Y695D01*
X275Y695D02*
X284Y695D01*
X1292Y695D02*
X1299Y695D01*
X1Y694D02*
X8Y694D01*
X275Y694D02*
X284Y694D01*
X1292Y694D02*
X1299Y694D01*
X1Y693D02*
X8Y693D01*
X275Y693D02*
X284Y693D01*
X1292Y693D02*
X1299Y693D01*
X1Y692D02*
X8Y692D01*
X275Y692D02*
X284Y692D01*
X1292Y692D02*
X1299Y692D01*
X1Y691D02*
X8Y691D01*
X275Y691D02*
X284Y691D01*
X1292Y691D02*
X1299Y691D01*
X1Y690D02*
X8Y690D01*
X275Y690D02*
X284Y690D01*
X1292Y690D02*
X1299Y690D01*
X1Y689D02*
X8Y689D01*
X275Y689D02*
X284Y689D01*
X1292Y689D02*
X1299Y689D01*
X1Y688D02*
X8Y688D01*
X275Y688D02*
X284Y688D01*
X1292Y688D02*
X1299Y688D01*
X1Y687D02*
X8Y687D01*
X275Y687D02*
X284Y687D01*
X1292Y687D02*
X1299Y687D01*
X1Y686D02*
X8Y686D01*
X275Y686D02*
X284Y686D01*
X1292Y686D02*
X1299Y686D01*
X1Y685D02*
X8Y685D01*
X275Y685D02*
X284Y685D01*
X1292Y685D02*
X1299Y685D01*
X1Y684D02*
X8Y684D01*
X275Y684D02*
X284Y684D01*
X1292Y684D02*
X1299Y684D01*
X1Y683D02*
X8Y683D01*
X275Y683D02*
X284Y683D01*
X1292Y683D02*
X1299Y683D01*
X1Y682D02*
X8Y682D01*
X275Y682D02*
X284Y682D01*
X1292Y682D02*
X1299Y682D01*
X1Y681D02*
X8Y681D01*
X275Y681D02*
X284Y681D01*
X1292Y681D02*
X1299Y681D01*
X1Y680D02*
X8Y680D01*
X275Y680D02*
X284Y680D01*
X1292Y680D02*
X1299Y680D01*
X1Y679D02*
X8Y679D01*
X275Y679D02*
X284Y679D01*
X1292Y679D02*
X1299Y679D01*
X1Y678D02*
X8Y678D01*
X275Y678D02*
X284Y678D01*
X1292Y678D02*
X1299Y678D01*
X1Y677D02*
X8Y677D01*
X275Y677D02*
X284Y677D01*
X1292Y677D02*
X1299Y677D01*
X1Y676D02*
X8Y676D01*
X275Y676D02*
X284Y676D01*
X1292Y676D02*
X1299Y676D01*
X1Y675D02*
X8Y675D01*
X275Y675D02*
X284Y675D01*
X1292Y675D02*
X1299Y675D01*
X1Y674D02*
X8Y674D01*
X275Y674D02*
X284Y674D01*
X1292Y674D02*
X1299Y674D01*
X1Y673D02*
X8Y673D01*
X275Y673D02*
X284Y673D01*
X1292Y673D02*
X1299Y673D01*
X1Y672D02*
X8Y672D01*
X275Y672D02*
X284Y672D01*
X1292Y672D02*
X1299Y672D01*
X1Y671D02*
X8Y671D01*
X275Y671D02*
X284Y671D01*
X1292Y671D02*
X1299Y671D01*
X1Y670D02*
X8Y670D01*
X275Y670D02*
X284Y670D01*
X1292Y670D02*
X1299Y670D01*
X1Y669D02*
X8Y669D01*
X275Y669D02*
X284Y669D01*
X1292Y669D02*
X1299Y669D01*
X1Y668D02*
X8Y668D01*
X275Y668D02*
X284Y668D01*
X1292Y668D02*
X1299Y668D01*
X1Y667D02*
X8Y667D01*
X275Y667D02*
X284Y667D01*
X1292Y667D02*
X1299Y667D01*
X1Y666D02*
X8Y666D01*
X275Y666D02*
X284Y666D01*
X1292Y666D02*
X1299Y666D01*
X1Y665D02*
X8Y665D01*
X275Y665D02*
X284Y665D01*
X1292Y665D02*
X1299Y665D01*
X1Y664D02*
X8Y664D01*
X275Y664D02*
X284Y664D01*
X1292Y664D02*
X1299Y664D01*
X1Y663D02*
X8Y663D01*
X275Y663D02*
X284Y663D01*
X1292Y663D02*
X1299Y663D01*
X1Y662D02*
X8Y662D01*
X275Y662D02*
X284Y662D01*
X1292Y662D02*
X1299Y662D01*
X1Y661D02*
X8Y661D01*
X275Y661D02*
X284Y661D01*
X1292Y661D02*
X1299Y661D01*
X1Y660D02*
X8Y660D01*
X275Y660D02*
X284Y660D01*
X1292Y660D02*
X1299Y660D01*
X1Y659D02*
X8Y659D01*
X275Y659D02*
X284Y659D01*
X1292Y659D02*
X1299Y659D01*
X1Y658D02*
X8Y658D01*
X275Y658D02*
X284Y658D01*
X1292Y658D02*
X1299Y658D01*
X1Y657D02*
X8Y657D01*
X275Y657D02*
X284Y657D01*
X1292Y657D02*
X1299Y657D01*
X1Y656D02*
X8Y656D01*
X275Y656D02*
X284Y656D01*
X1292Y656D02*
X1299Y656D01*
X1Y655D02*
X8Y655D01*
X275Y655D02*
X284Y655D01*
X1292Y655D02*
X1299Y655D01*
X1Y654D02*
X8Y654D01*
X275Y654D02*
X284Y654D01*
X1292Y654D02*
X1299Y654D01*
X1Y653D02*
X8Y653D01*
X275Y653D02*
X284Y653D01*
X1292Y653D02*
X1299Y653D01*
X1Y652D02*
X8Y652D01*
X275Y652D02*
X284Y652D01*
X1292Y652D02*
X1299Y652D01*
X1Y651D02*
X8Y651D01*
X275Y651D02*
X284Y651D01*
X1292Y651D02*
X1299Y651D01*
X1Y650D02*
X8Y650D01*
X275Y650D02*
X284Y650D01*
X1292Y650D02*
X1299Y650D01*
X1Y649D02*
X8Y649D01*
X275Y649D02*
X284Y649D01*
X1292Y649D02*
X1299Y649D01*
X1Y648D02*
X8Y648D01*
X275Y648D02*
X284Y648D01*
X1292Y648D02*
X1299Y648D01*
X1Y647D02*
X8Y647D01*
X275Y647D02*
X284Y647D01*
X1292Y647D02*
X1299Y647D01*
X1Y646D02*
X8Y646D01*
X275Y646D02*
X284Y646D01*
X1292Y646D02*
X1299Y646D01*
X1Y645D02*
X8Y645D01*
X275Y645D02*
X284Y645D01*
X1292Y645D02*
X1299Y645D01*
X1Y644D02*
X8Y644D01*
X275Y644D02*
X284Y644D01*
X1292Y644D02*
X1299Y644D01*
X1Y643D02*
X8Y643D01*
X275Y643D02*
X284Y643D01*
X1292Y643D02*
X1299Y643D01*
X1Y642D02*
X8Y642D01*
X275Y642D02*
X284Y642D01*
X1292Y642D02*
X1299Y642D01*
X1Y641D02*
X8Y641D01*
X275Y641D02*
X284Y641D01*
X1292Y641D02*
X1299Y641D01*
X1Y640D02*
X8Y640D01*
X275Y640D02*
X284Y640D01*
X1292Y640D02*
X1299Y640D01*
X1Y639D02*
X8Y639D01*
X275Y639D02*
X284Y639D01*
X1292Y639D02*
X1299Y639D01*
X1Y638D02*
X8Y638D01*
X275Y638D02*
X284Y638D01*
X1292Y638D02*
X1299Y638D01*
X1Y637D02*
X8Y637D01*
X275Y637D02*
X284Y637D01*
X1292Y637D02*
X1299Y637D01*
X1Y636D02*
X8Y636D01*
X275Y636D02*
X284Y636D01*
X1292Y636D02*
X1299Y636D01*
X1Y635D02*
X8Y635D01*
X275Y635D02*
X284Y635D01*
X1292Y635D02*
X1299Y635D01*
X1Y634D02*
X8Y634D01*
X275Y634D02*
X284Y634D01*
X1292Y634D02*
X1299Y634D01*
X1Y633D02*
X8Y633D01*
X275Y633D02*
X284Y633D01*
X1292Y633D02*
X1299Y633D01*
X1Y632D02*
X8Y632D01*
X275Y632D02*
X284Y632D01*
X1292Y632D02*
X1299Y632D01*
X1Y631D02*
X8Y631D01*
X275Y631D02*
X284Y631D01*
X1292Y631D02*
X1299Y631D01*
X1Y630D02*
X8Y630D01*
X275Y630D02*
X284Y630D01*
X1292Y630D02*
X1299Y630D01*
X1Y629D02*
X8Y629D01*
X275Y629D02*
X284Y629D01*
X1292Y629D02*
X1299Y629D01*
X1Y628D02*
X8Y628D01*
X275Y628D02*
X284Y628D01*
X1292Y628D02*
X1299Y628D01*
X1Y627D02*
X8Y627D01*
X275Y627D02*
X284Y627D01*
X1292Y627D02*
X1299Y627D01*
X1Y626D02*
X8Y626D01*
X275Y626D02*
X284Y626D01*
X1292Y626D02*
X1299Y626D01*
X1Y625D02*
X8Y625D01*
X275Y625D02*
X284Y625D01*
X1292Y625D02*
X1299Y625D01*
X1Y624D02*
X8Y624D01*
X275Y624D02*
X284Y624D01*
X1292Y624D02*
X1299Y624D01*
X1Y623D02*
X8Y623D01*
X275Y623D02*
X284Y623D01*
X1292Y623D02*
X1299Y623D01*
X1Y622D02*
X8Y622D01*
X275Y622D02*
X284Y622D01*
X1292Y622D02*
X1299Y622D01*
X1Y621D02*
X8Y621D01*
X275Y621D02*
X284Y621D01*
X1292Y621D02*
X1299Y621D01*
X1Y620D02*
X8Y620D01*
X275Y620D02*
X284Y620D01*
X1292Y620D02*
X1299Y620D01*
X1Y619D02*
X8Y619D01*
X275Y619D02*
X284Y619D01*
X1292Y619D02*
X1299Y619D01*
X1Y618D02*
X8Y618D01*
X275Y618D02*
X284Y618D01*
X1292Y618D02*
X1299Y618D01*
X1Y617D02*
X8Y617D01*
X275Y617D02*
X284Y617D01*
X1292Y617D02*
X1299Y617D01*
X1Y616D02*
X8Y616D01*
X275Y616D02*
X284Y616D01*
X1292Y616D02*
X1299Y616D01*
X1Y615D02*
X8Y615D01*
X275Y615D02*
X284Y615D01*
X1292Y615D02*
X1299Y615D01*
X1Y614D02*
X8Y614D01*
X275Y614D02*
X284Y614D01*
X1292Y614D02*
X1299Y614D01*
X1Y613D02*
X8Y613D01*
X275Y613D02*
X284Y613D01*
X1292Y613D02*
X1299Y613D01*
X1Y612D02*
X8Y612D01*
X275Y612D02*
X284Y612D01*
X1292Y612D02*
X1299Y612D01*
X1Y611D02*
X8Y611D01*
X275Y611D02*
X284Y611D01*
X1292Y611D02*
X1299Y611D01*
X1Y610D02*
X8Y610D01*
X275Y610D02*
X284Y610D01*
X1292Y610D02*
X1299Y610D01*
X1Y609D02*
X8Y609D01*
X275Y609D02*
X284Y609D01*
X1292Y609D02*
X1299Y609D01*
X1Y608D02*
X8Y608D01*
X275Y608D02*
X284Y608D01*
X1292Y608D02*
X1299Y608D01*
X1Y607D02*
X8Y607D01*
X275Y607D02*
X284Y607D01*
X1292Y607D02*
X1299Y607D01*
X1Y606D02*
X8Y606D01*
X1292Y606D02*
X1299Y606D01*
X1Y605D02*
X8Y605D01*
X1292Y605D02*
X1299Y605D01*
X1Y604D02*
X8Y604D01*
X1292Y604D02*
X1299Y604D01*
X1Y603D02*
X8Y603D01*
X1292Y603D02*
X1299Y603D01*
X1Y602D02*
X8Y602D01*
X1292Y602D02*
X1299Y602D01*
X1Y601D02*
X8Y601D01*
X1292Y601D02*
X1299Y601D01*
X1Y600D02*
X8Y600D01*
X1292Y600D02*
X1299Y600D01*
X1Y599D02*
X8Y599D01*
X1292Y599D02*
X1299Y599D01*
X1Y598D02*
X8Y598D01*
X1292Y598D02*
X1299Y598D01*
X1Y597D02*
X8Y597D01*
X1292Y597D02*
X1299Y597D01*
X1Y596D02*
X8Y596D01*
X1292Y596D02*
X1299Y596D01*
X1Y595D02*
X8Y595D01*
X1292Y595D02*
X1299Y595D01*
X1Y594D02*
X8Y594D01*
X1292Y594D02*
X1299Y594D01*
X1Y593D02*
X8Y593D01*
X1292Y593D02*
X1299Y593D01*
X1Y592D02*
X8Y592D01*
X1292Y592D02*
X1299Y592D01*
X1Y591D02*
X8Y591D01*
X1292Y591D02*
X1299Y591D01*
X1Y590D02*
X8Y590D01*
X1292Y590D02*
X1299Y590D01*
X1Y589D02*
X8Y589D01*
X1292Y589D02*
X1299Y589D01*
X1Y588D02*
X8Y588D01*
X1292Y588D02*
X1299Y588D01*
X1Y587D02*
X8Y587D01*
X1292Y587D02*
X1299Y587D01*
X1Y586D02*
X8Y586D01*
X1292Y586D02*
X1299Y586D01*
X1Y585D02*
X8Y585D01*
X1292Y585D02*
X1299Y585D01*
X1Y584D02*
X8Y584D01*
X1292Y584D02*
X1299Y584D01*
X1Y583D02*
X8Y583D01*
X1292Y583D02*
X1299Y583D01*
X1Y582D02*
X8Y582D01*
X1292Y582D02*
X1299Y582D01*
X1Y581D02*
X8Y581D01*
X1292Y581D02*
X1299Y581D01*
X1Y580D02*
X8Y580D01*
X1292Y580D02*
X1299Y580D01*
X1Y579D02*
X8Y579D01*
X1292Y579D02*
X1299Y579D01*
X1Y578D02*
X8Y578D01*
X1292Y578D02*
X1299Y578D01*
X1Y577D02*
X8Y577D01*
X1292Y577D02*
X1299Y577D01*
X1Y576D02*
X8Y576D01*
X1292Y576D02*
X1299Y576D01*
X1Y575D02*
X8Y575D01*
X1292Y575D02*
X1299Y575D01*
X1Y574D02*
X8Y574D01*
X1292Y574D02*
X1299Y574D01*
X1Y573D02*
X8Y573D01*
X1292Y573D02*
X1299Y573D01*
X1Y572D02*
X8Y572D01*
X1292Y572D02*
X1299Y572D01*
X1Y571D02*
X8Y571D01*
X1292Y571D02*
X1299Y571D01*
X1Y570D02*
X8Y570D01*
X1292Y570D02*
X1299Y570D01*
X1Y569D02*
X8Y569D01*
X1292Y569D02*
X1299Y569D01*
X1Y568D02*
X8Y568D01*
X1292Y568D02*
X1299Y568D01*
X1Y567D02*
X8Y567D01*
X1292Y567D02*
X1299Y567D01*
X1Y566D02*
X8Y566D01*
X1292Y566D02*
X1299Y566D01*
X1Y565D02*
X8Y565D01*
X1292Y565D02*
X1299Y565D01*
X1Y564D02*
X8Y564D01*
X1292Y564D02*
X1299Y564D01*
X1Y563D02*
X8Y563D01*
X1292Y563D02*
X1299Y563D01*
X1Y562D02*
X8Y562D01*
X1292Y562D02*
X1299Y562D01*
X1Y561D02*
X8Y561D01*
X1292Y561D02*
X1299Y561D01*
X1Y560D02*
X8Y560D01*
X1292Y560D02*
X1299Y560D01*
X1Y559D02*
X8Y559D01*
X1292Y559D02*
X1299Y559D01*
X1Y558D02*
X8Y558D01*
X1136Y558D02*
X1136Y558D01*
X1292Y558D02*
X1299Y558D01*
X1Y557D02*
X8Y557D01*
X1135Y557D02*
X1137Y557D01*
X1292Y557D02*
X1299Y557D01*
X1Y556D02*
X8Y556D01*
X1134Y556D02*
X1138Y556D01*
X1292Y556D02*
X1299Y556D01*
X1Y555D02*
X8Y555D01*
X1133Y555D02*
X1139Y555D01*
X1292Y555D02*
X1299Y555D01*
X1Y554D02*
X8Y554D01*
X1134Y554D02*
X1140Y554D01*
X1292Y554D02*
X1299Y554D01*
X1Y553D02*
X8Y553D01*
X1135Y553D02*
X1141Y553D01*
X1292Y553D02*
X1299Y553D01*
X1Y552D02*
X8Y552D01*
X1136Y552D02*
X1142Y552D01*
X1292Y552D02*
X1299Y552D01*
X1Y551D02*
X8Y551D01*
X1137Y551D02*
X1143Y551D01*
X1292Y551D02*
X1299Y551D01*
X1Y550D02*
X8Y550D01*
X1138Y550D02*
X1144Y550D01*
X1292Y550D02*
X1299Y550D01*
X1Y549D02*
X8Y549D01*
X1139Y549D02*
X1145Y549D01*
X1292Y549D02*
X1299Y549D01*
X1Y548D02*
X8Y548D01*
X1140Y548D02*
X1146Y548D01*
X1292Y548D02*
X1299Y548D01*
X1Y547D02*
X8Y547D01*
X1141Y547D02*
X1147Y547D01*
X1292Y547D02*
X1299Y547D01*
X1Y546D02*
X8Y546D01*
X1142Y546D02*
X1148Y546D01*
X1292Y546D02*
X1299Y546D01*
X1Y545D02*
X8Y545D01*
X1143Y545D02*
X1149Y545D01*
X1292Y545D02*
X1299Y545D01*
X1Y544D02*
X8Y544D01*
X1144Y544D02*
X1150Y544D01*
X1292Y544D02*
X1299Y544D01*
X1Y543D02*
X8Y543D01*
X1145Y543D02*
X1151Y543D01*
X1292Y543D02*
X1299Y543D01*
X1Y542D02*
X8Y542D01*
X1146Y542D02*
X1152Y542D01*
X1292Y542D02*
X1299Y542D01*
X1Y541D02*
X8Y541D01*
X1148Y541D02*
X1153Y541D01*
X1292Y541D02*
X1299Y541D01*
X1Y540D02*
X8Y540D01*
X1149Y540D02*
X1154Y540D01*
X1292Y540D02*
X1299Y540D01*
X1Y539D02*
X8Y539D01*
X1150Y539D02*
X1155Y539D01*
X1292Y539D02*
X1299Y539D01*
X1Y538D02*
X8Y538D01*
X1151Y538D02*
X1156Y538D01*
X1292Y538D02*
X1299Y538D01*
X1Y537D02*
X8Y537D01*
X1152Y537D02*
X1157Y537D01*
X1292Y537D02*
X1299Y537D01*
X1Y536D02*
X8Y536D01*
X1153Y536D02*
X1158Y536D01*
X1292Y536D02*
X1299Y536D01*
X1Y535D02*
X8Y535D01*
X1154Y535D02*
X1159Y535D01*
X1292Y535D02*
X1299Y535D01*
X1Y534D02*
X8Y534D01*
X1154Y534D02*
X1160Y534D01*
X1292Y534D02*
X1299Y534D01*
X1Y533D02*
X8Y533D01*
X1155Y533D02*
X1161Y533D01*
X1292Y533D02*
X1299Y533D01*
X1Y532D02*
X8Y532D01*
X1156Y532D02*
X1162Y532D01*
X1292Y532D02*
X1299Y532D01*
X1Y531D02*
X8Y531D01*
X1157Y531D02*
X1163Y531D01*
X1292Y531D02*
X1299Y531D01*
X1Y530D02*
X8Y530D01*
X1158Y530D02*
X1164Y530D01*
X1292Y530D02*
X1299Y530D01*
X1Y529D02*
X8Y529D01*
X1159Y529D02*
X1165Y529D01*
X1292Y529D02*
X1299Y529D01*
X1Y528D02*
X8Y528D01*
X1160Y528D02*
X1166Y528D01*
X1292Y528D02*
X1299Y528D01*
X1Y527D02*
X8Y527D01*
X1161Y527D02*
X1167Y527D01*
X1292Y527D02*
X1299Y527D01*
X1Y526D02*
X8Y526D01*
X1162Y526D02*
X1168Y526D01*
X1292Y526D02*
X1299Y526D01*
X1Y525D02*
X8Y525D01*
X1163Y525D02*
X1169Y525D01*
X1292Y525D02*
X1299Y525D01*
X1Y524D02*
X8Y524D01*
X1164Y524D02*
X1170Y524D01*
X1292Y524D02*
X1299Y524D01*
X1Y523D02*
X8Y523D01*
X1165Y523D02*
X1170Y523D01*
X1292Y523D02*
X1299Y523D01*
X1Y522D02*
X8Y522D01*
X1166Y522D02*
X1169Y522D01*
X1292Y522D02*
X1299Y522D01*
X1Y521D02*
X8Y521D01*
X1167Y521D02*
X1168Y521D01*
X1292Y521D02*
X1299Y521D01*
X1Y520D02*
X8Y520D01*
X1292Y520D02*
X1299Y520D01*
X1Y519D02*
X8Y519D01*
X1292Y519D02*
X1299Y519D01*
X1Y518D02*
X8Y518D01*
X1292Y518D02*
X1299Y518D01*
X1Y517D02*
X8Y517D01*
X1292Y517D02*
X1299Y517D01*
X1Y516D02*
X8Y516D01*
X1292Y516D02*
X1299Y516D01*
X1Y515D02*
X8Y515D01*
X1292Y515D02*
X1299Y515D01*
X1Y514D02*
X8Y514D01*
X1292Y514D02*
X1299Y514D01*
X1Y513D02*
X8Y513D01*
X1292Y513D02*
X1299Y513D01*
X1Y512D02*
X8Y512D01*
X1292Y512D02*
X1299Y512D01*
X1Y511D02*
X8Y511D01*
X1292Y511D02*
X1299Y511D01*
X1Y510D02*
X8Y510D01*
X1292Y510D02*
X1299Y510D01*
X1Y509D02*
X8Y509D01*
X1292Y509D02*
X1299Y509D01*
X1Y508D02*
X8Y508D01*
X1292Y508D02*
X1299Y508D01*
X1Y507D02*
X8Y507D01*
X1292Y507D02*
X1299Y507D01*
X1Y506D02*
X8Y506D01*
X1292Y506D02*
X1299Y506D01*
X1Y505D02*
X8Y505D01*
X1292Y505D02*
X1299Y505D01*
X1Y504D02*
X8Y504D01*
X1292Y504D02*
X1299Y504D01*
X1Y503D02*
X8Y503D01*
X1292Y503D02*
X1299Y503D01*
X1Y502D02*
X8Y502D01*
X1292Y502D02*
X1299Y502D01*
X1Y501D02*
X8Y501D01*
X1292Y501D02*
X1299Y501D01*
X1Y500D02*
X8Y500D01*
X1292Y500D02*
X1299Y500D01*
X1Y499D02*
X8Y499D01*
X1292Y499D02*
X1299Y499D01*
X1Y498D02*
X8Y498D01*
X1292Y498D02*
X1299Y498D01*
X1Y497D02*
X8Y497D01*
X1292Y497D02*
X1299Y497D01*
X1Y496D02*
X8Y496D01*
X1292Y496D02*
X1299Y496D01*
X1Y495D02*
X8Y495D01*
X1292Y495D02*
X1299Y495D01*
X1Y494D02*
X8Y494D01*
X1292Y494D02*
X1299Y494D01*
X1Y493D02*
X8Y493D01*
X1292Y493D02*
X1299Y493D01*
X1Y492D02*
X8Y492D01*
X1292Y492D02*
X1299Y492D01*
X1Y491D02*
X8Y491D01*
X1292Y491D02*
X1299Y491D01*
X1Y490D02*
X8Y490D01*
X1292Y490D02*
X1299Y490D01*
X1Y489D02*
X8Y489D01*
X1292Y489D02*
X1299Y489D01*
X1Y488D02*
X8Y488D01*
X1292Y488D02*
X1299Y488D01*
X1Y487D02*
X8Y487D01*
X1292Y487D02*
X1299Y487D01*
X1Y486D02*
X8Y486D01*
X1292Y486D02*
X1299Y486D01*
X1Y485D02*
X8Y485D01*
X1292Y485D02*
X1299Y485D01*
X1Y484D02*
X8Y484D01*
X1292Y484D02*
X1299Y484D01*
X1Y483D02*
X8Y483D01*
X1292Y483D02*
X1299Y483D01*
X1Y482D02*
X8Y482D01*
X1292Y482D02*
X1299Y482D01*
X1Y481D02*
X8Y481D01*
X1292Y481D02*
X1299Y481D01*
X1Y480D02*
X8Y480D01*
X1292Y480D02*
X1299Y480D01*
X1Y479D02*
X8Y479D01*
X1292Y479D02*
X1299Y479D01*
X1Y478D02*
X8Y478D01*
X1292Y478D02*
X1299Y478D01*
X1Y477D02*
X8Y477D01*
X1292Y477D02*
X1299Y477D01*
X1Y476D02*
X8Y476D01*
X1292Y476D02*
X1299Y476D01*
X1Y475D02*
X8Y475D01*
X1292Y475D02*
X1299Y475D01*
X1Y474D02*
X8Y474D01*
X1292Y474D02*
X1299Y474D01*
X1Y473D02*
X8Y473D01*
X1292Y473D02*
X1299Y473D01*
X1Y472D02*
X8Y472D01*
X1292Y472D02*
X1299Y472D01*
X1Y471D02*
X8Y471D01*
X1292Y471D02*
X1299Y471D01*
X1Y470D02*
X8Y470D01*
X1292Y470D02*
X1299Y470D01*
X1Y469D02*
X8Y469D01*
X1292Y469D02*
X1299Y469D01*
X1Y468D02*
X8Y468D01*
X1292Y468D02*
X1299Y468D01*
X1Y467D02*
X8Y467D01*
X1292Y467D02*
X1299Y467D01*
X1Y466D02*
X8Y466D01*
X1292Y466D02*
X1299Y466D01*
X1Y465D02*
X8Y465D01*
X1292Y465D02*
X1299Y465D01*
X1Y464D02*
X8Y464D01*
X1292Y464D02*
X1299Y464D01*
X1Y463D02*
X8Y463D01*
X1292Y463D02*
X1299Y463D01*
X1Y462D02*
X8Y462D01*
X1292Y462D02*
X1299Y462D01*
X1Y461D02*
X8Y461D01*
X1292Y461D02*
X1299Y461D01*
X1Y460D02*
X8Y460D01*
X1292Y460D02*
X1299Y460D01*
X1Y459D02*
X8Y459D01*
X1292Y459D02*
X1299Y459D01*
X1Y458D02*
X8Y458D01*
X1292Y458D02*
X1299Y458D01*
X1Y457D02*
X8Y457D01*
X1292Y457D02*
X1299Y457D01*
X1Y456D02*
X8Y456D01*
X1292Y456D02*
X1299Y456D01*
X1Y455D02*
X8Y455D01*
X1292Y455D02*
X1299Y455D01*
X1Y454D02*
X8Y454D01*
X1292Y454D02*
X1299Y454D01*
X1Y453D02*
X8Y453D01*
X1292Y453D02*
X1299Y453D01*
X1Y452D02*
X8Y452D01*
X1292Y452D02*
X1299Y452D01*
X1Y451D02*
X8Y451D01*
X1292Y451D02*
X1299Y451D01*
X1Y450D02*
X8Y450D01*
X1292Y450D02*
X1299Y450D01*
X1Y449D02*
X8Y449D01*
X1292Y449D02*
X1299Y449D01*
X1Y448D02*
X8Y448D01*
X1292Y448D02*
X1299Y448D01*
X1Y447D02*
X8Y447D01*
X1292Y447D02*
X1299Y447D01*
X1Y446D02*
X8Y446D01*
X1292Y446D02*
X1299Y446D01*
X1Y445D02*
X8Y445D01*
X1292Y445D02*
X1299Y445D01*
X1Y444D02*
X8Y444D01*
X1292Y444D02*
X1299Y444D01*
X1Y443D02*
X8Y443D01*
X1292Y443D02*
X1299Y443D01*
X1Y442D02*
X8Y442D01*
X1292Y442D02*
X1299Y442D01*
X1Y441D02*
X8Y441D01*
X1292Y441D02*
X1299Y441D01*
X1Y440D02*
X8Y440D01*
X1292Y440D02*
X1299Y440D01*
X1Y439D02*
X8Y439D01*
X1292Y439D02*
X1299Y439D01*
X1Y438D02*
X8Y438D01*
X1292Y438D02*
X1299Y438D01*
X1Y437D02*
X8Y437D01*
X1292Y437D02*
X1299Y437D01*
X1Y436D02*
X8Y436D01*
X1292Y436D02*
X1299Y436D01*
X1Y435D02*
X8Y435D01*
X1292Y435D02*
X1299Y435D01*
X1Y434D02*
X8Y434D01*
X1292Y434D02*
X1299Y434D01*
X1Y433D02*
X8Y433D01*
X1292Y433D02*
X1299Y433D01*
X1Y432D02*
X8Y432D01*
X1292Y432D02*
X1299Y432D01*
X1Y431D02*
X8Y431D01*
X1292Y431D02*
X1299Y431D01*
X1Y430D02*
X8Y430D01*
X1292Y430D02*
X1299Y430D01*
X1Y429D02*
X8Y429D01*
X1292Y429D02*
X1299Y429D01*
X1Y428D02*
X8Y428D01*
X1292Y428D02*
X1299Y428D01*
X1Y427D02*
X8Y427D01*
X1292Y427D02*
X1299Y427D01*
X1Y426D02*
X8Y426D01*
X1292Y426D02*
X1299Y426D01*
X1Y425D02*
X8Y425D01*
X1292Y425D02*
X1299Y425D01*
X1Y424D02*
X8Y424D01*
X1292Y424D02*
X1299Y424D01*
X1Y423D02*
X8Y423D01*
X1292Y423D02*
X1299Y423D01*
X1Y422D02*
X8Y422D01*
X1292Y422D02*
X1299Y422D01*
X1Y421D02*
X8Y421D01*
X1292Y421D02*
X1299Y421D01*
X1Y420D02*
X8Y420D01*
X1292Y420D02*
X1299Y420D01*
X1Y419D02*
X8Y419D01*
X1292Y419D02*
X1299Y419D01*
X1Y418D02*
X8Y418D01*
X1292Y418D02*
X1299Y418D01*
X1Y417D02*
X8Y417D01*
X1292Y417D02*
X1299Y417D01*
X1Y416D02*
X8Y416D01*
X1292Y416D02*
X1299Y416D01*
X1Y415D02*
X8Y415D01*
X1292Y415D02*
X1299Y415D01*
X1Y414D02*
X8Y414D01*
X1292Y414D02*
X1299Y414D01*
X1Y413D02*
X8Y413D01*
X1292Y413D02*
X1299Y413D01*
X1Y412D02*
X8Y412D01*
X1292Y412D02*
X1299Y412D01*
X1Y411D02*
X8Y411D01*
X1292Y411D02*
X1299Y411D01*
X1Y410D02*
X8Y410D01*
X1292Y410D02*
X1299Y410D01*
X1Y409D02*
X8Y409D01*
X1292Y409D02*
X1299Y409D01*
X1Y408D02*
X8Y408D01*
X203Y408D02*
X203Y408D01*
X1136Y408D02*
X1136Y408D01*
X1292Y408D02*
X1299Y408D01*
X1Y407D02*
X8Y407D01*
X202Y407D02*
X204Y407D01*
X1135Y407D02*
X1137Y407D01*
X1292Y407D02*
X1299Y407D01*
X1Y406D02*
X8Y406D01*
X201Y406D02*
X205Y406D01*
X1134Y406D02*
X1138Y406D01*
X1292Y406D02*
X1299Y406D01*
X1Y405D02*
X8Y405D01*
X200Y405D02*
X206Y405D01*
X1133Y405D02*
X1139Y405D01*
X1292Y405D02*
X1299Y405D01*
X1Y404D02*
X8Y404D01*
X199Y404D02*
X205Y404D01*
X1134Y404D02*
X1140Y404D01*
X1292Y404D02*
X1299Y404D01*
X1Y403D02*
X8Y403D01*
X198Y403D02*
X204Y403D01*
X1135Y403D02*
X1141Y403D01*
X1292Y403D02*
X1299Y403D01*
X1Y402D02*
X8Y402D01*
X197Y402D02*
X203Y402D01*
X1136Y402D02*
X1142Y402D01*
X1292Y402D02*
X1299Y402D01*
X1Y401D02*
X8Y401D01*
X196Y401D02*
X202Y401D01*
X1137Y401D02*
X1143Y401D01*
X1292Y401D02*
X1299Y401D01*
X1Y400D02*
X8Y400D01*
X195Y400D02*
X201Y400D01*
X1138Y400D02*
X1144Y400D01*
X1292Y400D02*
X1299Y400D01*
X1Y399D02*
X8Y399D01*
X194Y399D02*
X200Y399D01*
X1139Y399D02*
X1145Y399D01*
X1292Y399D02*
X1299Y399D01*
X1Y398D02*
X8Y398D01*
X193Y398D02*
X199Y398D01*
X1140Y398D02*
X1146Y398D01*
X1292Y398D02*
X1299Y398D01*
X1Y397D02*
X8Y397D01*
X192Y397D02*
X198Y397D01*
X1141Y397D02*
X1147Y397D01*
X1292Y397D02*
X1299Y397D01*
X1Y396D02*
X8Y396D01*
X191Y396D02*
X197Y396D01*
X1142Y396D02*
X1148Y396D01*
X1292Y396D02*
X1299Y396D01*
X1Y395D02*
X8Y395D01*
X190Y395D02*
X196Y395D01*
X1143Y395D02*
X1149Y395D01*
X1292Y395D02*
X1299Y395D01*
X1Y394D02*
X8Y394D01*
X189Y394D02*
X195Y394D01*
X1144Y394D02*
X1150Y394D01*
X1292Y394D02*
X1299Y394D01*
X1Y393D02*
X8Y393D01*
X188Y393D02*
X194Y393D01*
X1145Y393D02*
X1151Y393D01*
X1292Y393D02*
X1299Y393D01*
X1Y392D02*
X8Y392D01*
X187Y392D02*
X193Y392D01*
X1146Y392D02*
X1152Y392D01*
X1292Y392D02*
X1299Y392D01*
X1Y391D02*
X8Y391D01*
X186Y391D02*
X191Y391D01*
X1148Y391D02*
X1153Y391D01*
X1292Y391D02*
X1299Y391D01*
X1Y390D02*
X8Y390D01*
X185Y390D02*
X190Y390D01*
X1149Y390D02*
X1154Y390D01*
X1292Y390D02*
X1299Y390D01*
X1Y389D02*
X8Y389D01*
X184Y389D02*
X189Y389D01*
X1150Y389D02*
X1155Y389D01*
X1292Y389D02*
X1299Y389D01*
X1Y388D02*
X8Y388D01*
X183Y388D02*
X188Y388D01*
X1151Y388D02*
X1156Y388D01*
X1292Y388D02*
X1299Y388D01*
X1Y387D02*
X8Y387D01*
X182Y387D02*
X187Y387D01*
X1152Y387D02*
X1157Y387D01*
X1292Y387D02*
X1299Y387D01*
X1Y386D02*
X8Y386D01*
X181Y386D02*
X186Y386D01*
X1153Y386D02*
X1158Y386D01*
X1292Y386D02*
X1299Y386D01*
X1Y385D02*
X8Y385D01*
X180Y385D02*
X185Y385D01*
X1154Y385D02*
X1159Y385D01*
X1292Y385D02*
X1299Y385D01*
X1Y384D02*
X8Y384D01*
X179Y384D02*
X185Y384D01*
X1154Y384D02*
X1160Y384D01*
X1292Y384D02*
X1299Y384D01*
X1Y383D02*
X8Y383D01*
X178Y383D02*
X184Y383D01*
X1155Y383D02*
X1161Y383D01*
X1292Y383D02*
X1299Y383D01*
X1Y382D02*
X8Y382D01*
X177Y382D02*
X183Y382D01*
X1156Y382D02*
X1162Y382D01*
X1292Y382D02*
X1299Y382D01*
X1Y381D02*
X8Y381D01*
X176Y381D02*
X182Y381D01*
X1157Y381D02*
X1163Y381D01*
X1292Y381D02*
X1299Y381D01*
X1Y380D02*
X8Y380D01*
X175Y380D02*
X181Y380D01*
X1158Y380D02*
X1164Y380D01*
X1292Y380D02*
X1299Y380D01*
X1Y379D02*
X8Y379D01*
X174Y379D02*
X180Y379D01*
X1159Y379D02*
X1165Y379D01*
X1292Y379D02*
X1299Y379D01*
X1Y378D02*
X8Y378D01*
X173Y378D02*
X179Y378D01*
X1160Y378D02*
X1166Y378D01*
X1292Y378D02*
X1299Y378D01*
X1Y377D02*
X8Y377D01*
X172Y377D02*
X178Y377D01*
X1161Y377D02*
X1167Y377D01*
X1292Y377D02*
X1299Y377D01*
X1Y376D02*
X8Y376D01*
X171Y376D02*
X177Y376D01*
X1162Y376D02*
X1168Y376D01*
X1292Y376D02*
X1299Y376D01*
X1Y375D02*
X8Y375D01*
X170Y375D02*
X176Y375D01*
X1163Y375D02*
X1169Y375D01*
X1292Y375D02*
X1299Y375D01*
X1Y374D02*
X8Y374D01*
X169Y374D02*
X175Y374D01*
X1164Y374D02*
X1170Y374D01*
X1292Y374D02*
X1299Y374D01*
X1Y373D02*
X8Y373D01*
X169Y373D02*
X174Y373D01*
X1165Y373D02*
X1170Y373D01*
X1292Y373D02*
X1299Y373D01*
X1Y372D02*
X8Y372D01*
X170Y372D02*
X173Y372D01*
X1166Y372D02*
X1169Y372D01*
X1292Y372D02*
X1299Y372D01*
X1Y371D02*
X8Y371D01*
X171Y371D02*
X172Y371D01*
X1167Y371D02*
X1168Y371D01*
X1292Y371D02*
X1299Y371D01*
X1Y370D02*
X8Y370D01*
X128Y370D02*
X143Y370D01*
X1292Y370D02*
X1299Y370D01*
X1Y369D02*
X8Y369D01*
X125Y369D02*
X144Y369D01*
X1292Y369D02*
X1299Y369D01*
X1Y368D02*
X8Y368D01*
X123Y368D02*
X145Y368D01*
X1292Y368D02*
X1299Y368D01*
X1Y367D02*
X8Y367D01*
X120Y367D02*
X145Y367D01*
X1292Y367D02*
X1299Y367D01*
X1Y366D02*
X8Y366D01*
X118Y366D02*
X145Y366D01*
X1292Y366D02*
X1299Y366D01*
X1Y365D02*
X8Y365D01*
X115Y365D02*
X144Y365D01*
X1292Y365D02*
X1299Y365D01*
X1Y364D02*
X8Y364D01*
X113Y364D02*
X143Y364D01*
X1292Y364D02*
X1299Y364D01*
X1Y363D02*
X8Y363D01*
X110Y363D02*
X129Y363D01*
X1292Y363D02*
X1299Y363D01*
X1Y362D02*
X8Y362D01*
X107Y362D02*
X126Y362D01*
X1292Y362D02*
X1299Y362D01*
X1Y361D02*
X8Y361D01*
X105Y361D02*
X123Y361D01*
X1292Y361D02*
X1299Y361D01*
X1Y360D02*
X8Y360D01*
X102Y360D02*
X121Y360D01*
X1292Y360D02*
X1299Y360D01*
X1Y359D02*
X8Y359D01*
X100Y359D02*
X118Y359D01*
X1292Y359D02*
X1299Y359D01*
X1Y358D02*
X8Y358D01*
X97Y358D02*
X116Y358D01*
X1292Y358D02*
X1299Y358D01*
X1Y357D02*
X8Y357D01*
X95Y357D02*
X113Y357D01*
X1292Y357D02*
X1299Y357D01*
X1Y356D02*
X8Y356D01*
X93Y356D02*
X111Y356D01*
X1292Y356D02*
X1299Y356D01*
X1Y355D02*
X8Y355D01*
X92Y355D02*
X108Y355D01*
X1292Y355D02*
X1299Y355D01*
X1Y354D02*
X8Y354D01*
X92Y354D02*
X106Y354D01*
X1292Y354D02*
X1299Y354D01*
X1Y353D02*
X8Y353D01*
X92Y353D02*
X105Y353D01*
X1292Y353D02*
X1299Y353D01*
X1Y352D02*
X8Y352D01*
X92Y352D02*
X108Y352D01*
X1292Y352D02*
X1299Y352D01*
X1Y351D02*
X8Y351D01*
X93Y351D02*
X110Y351D01*
X1292Y351D02*
X1299Y351D01*
X1Y350D02*
X8Y350D01*
X94Y350D02*
X113Y350D01*
X1292Y350D02*
X1299Y350D01*
X1Y349D02*
X8Y349D01*
X97Y349D02*
X115Y349D01*
X1292Y349D02*
X1299Y349D01*
X1Y348D02*
X8Y348D01*
X99Y348D02*
X118Y348D01*
X1292Y348D02*
X1299Y348D01*
X1Y347D02*
X8Y347D01*
X102Y347D02*
X120Y347D01*
X1292Y347D02*
X1299Y347D01*
X1Y346D02*
X8Y346D01*
X105Y346D02*
X123Y346D01*
X1292Y346D02*
X1299Y346D01*
X1Y345D02*
X8Y345D01*
X107Y345D02*
X125Y345D01*
X1292Y345D02*
X1299Y345D01*
X1Y344D02*
X8Y344D01*
X110Y344D02*
X128Y344D01*
X1292Y344D02*
X1299Y344D01*
X1Y343D02*
X8Y343D01*
X112Y343D02*
X142Y343D01*
X1292Y343D02*
X1299Y343D01*
X1Y342D02*
X8Y342D01*
X115Y342D02*
X144Y342D01*
X1292Y342D02*
X1299Y342D01*
X1Y341D02*
X8Y341D01*
X117Y341D02*
X145Y341D01*
X1292Y341D02*
X1299Y341D01*
X1Y340D02*
X8Y340D01*
X120Y340D02*
X145Y340D01*
X1292Y340D02*
X1299Y340D01*
X1Y339D02*
X8Y339D01*
X122Y339D02*
X145Y339D01*
X1292Y339D02*
X1299Y339D01*
X1Y338D02*
X8Y338D01*
X125Y338D02*
X144Y338D01*
X1292Y338D02*
X1299Y338D01*
X1Y337D02*
X8Y337D01*
X128Y337D02*
X144Y337D01*
X1292Y337D02*
X1299Y337D01*
X1Y336D02*
X8Y336D01*
X1292Y336D02*
X1299Y336D01*
X1Y335D02*
X8Y335D01*
X1292Y335D02*
X1299Y335D01*
X1Y334D02*
X8Y334D01*
X1292Y334D02*
X1299Y334D01*
X1Y333D02*
X8Y333D01*
X1292Y333D02*
X1299Y333D01*
X1Y332D02*
X8Y332D01*
X1292Y332D02*
X1299Y332D01*
X1Y331D02*
X8Y331D01*
X1292Y331D02*
X1299Y331D01*
X1Y330D02*
X8Y330D01*
X1292Y330D02*
X1299Y330D01*
X1Y329D02*
X8Y329D01*
X1292Y329D02*
X1299Y329D01*
X1Y328D02*
X8Y328D01*
X1292Y328D02*
X1299Y328D01*
X1Y327D02*
X8Y327D01*
X1292Y327D02*
X1299Y327D01*
X1Y326D02*
X8Y326D01*
X1292Y326D02*
X1299Y326D01*
X1Y325D02*
X8Y325D01*
X1292Y325D02*
X1299Y325D01*
X1Y324D02*
X8Y324D01*
X1292Y324D02*
X1299Y324D01*
X1Y323D02*
X8Y323D01*
X1292Y323D02*
X1299Y323D01*
X1Y322D02*
X8Y322D01*
X1292Y322D02*
X1299Y322D01*
X1Y321D02*
X8Y321D01*
X1292Y321D02*
X1299Y321D01*
X1Y320D02*
X8Y320D01*
X93Y320D02*
X96Y320D01*
X140Y320D02*
X143Y320D01*
X1292Y320D02*
X1299Y320D01*
X1Y319D02*
X8Y319D01*
X92Y319D02*
X97Y319D01*
X139Y319D02*
X144Y319D01*
X1292Y319D02*
X1299Y319D01*
X1Y318D02*
X8Y318D01*
X92Y318D02*
X98Y318D01*
X139Y318D02*
X145Y318D01*
X1292Y318D02*
X1299Y318D01*
X1Y317D02*
X8Y317D01*
X92Y317D02*
X98Y317D01*
X139Y317D02*
X145Y317D01*
X1292Y317D02*
X1299Y317D01*
X1Y316D02*
X8Y316D01*
X92Y316D02*
X98Y316D01*
X139Y316D02*
X145Y316D01*
X1292Y316D02*
X1299Y316D01*
X1Y315D02*
X8Y315D01*
X92Y315D02*
X98Y315D01*
X139Y315D02*
X145Y315D01*
X1292Y315D02*
X1299Y315D01*
X1Y314D02*
X8Y314D01*
X92Y314D02*
X98Y314D01*
X139Y314D02*
X145Y314D01*
X1292Y314D02*
X1299Y314D01*
X1Y313D02*
X8Y313D01*
X92Y313D02*
X98Y313D01*
X139Y313D02*
X145Y313D01*
X1292Y313D02*
X1299Y313D01*
X1Y312D02*
X8Y312D01*
X92Y312D02*
X98Y312D01*
X139Y312D02*
X145Y312D01*
X1292Y312D02*
X1299Y312D01*
X1Y311D02*
X8Y311D01*
X92Y311D02*
X98Y311D01*
X139Y311D02*
X145Y311D01*
X1292Y311D02*
X1299Y311D01*
X1Y310D02*
X8Y310D01*
X92Y310D02*
X98Y310D01*
X139Y310D02*
X145Y310D01*
X1292Y310D02*
X1299Y310D01*
X1Y309D02*
X8Y309D01*
X92Y309D02*
X98Y309D01*
X139Y309D02*
X145Y309D01*
X1292Y309D02*
X1299Y309D01*
X1Y308D02*
X8Y308D01*
X92Y308D02*
X98Y308D01*
X139Y308D02*
X145Y308D01*
X1136Y308D02*
X1136Y308D01*
X1292Y308D02*
X1299Y308D01*
X1Y307D02*
X8Y307D01*
X92Y307D02*
X98Y307D01*
X138Y307D02*
X145Y307D01*
X1135Y307D02*
X1137Y307D01*
X1292Y307D02*
X1299Y307D01*
X1Y306D02*
X8Y306D01*
X92Y306D02*
X145Y306D01*
X1134Y306D02*
X1138Y306D01*
X1292Y306D02*
X1299Y306D01*
X1Y305D02*
X8Y305D01*
X92Y305D02*
X145Y305D01*
X1133Y305D02*
X1139Y305D01*
X1292Y305D02*
X1299Y305D01*
X1Y304D02*
X8Y304D01*
X92Y304D02*
X145Y304D01*
X1134Y304D02*
X1140Y304D01*
X1292Y304D02*
X1299Y304D01*
X1Y303D02*
X8Y303D01*
X92Y303D02*
X145Y303D01*
X1135Y303D02*
X1141Y303D01*
X1292Y303D02*
X1299Y303D01*
X1Y302D02*
X8Y302D01*
X92Y302D02*
X145Y302D01*
X1136Y302D02*
X1142Y302D01*
X1292Y302D02*
X1299Y302D01*
X1Y301D02*
X8Y301D01*
X92Y301D02*
X145Y301D01*
X1137Y301D02*
X1143Y301D01*
X1292Y301D02*
X1299Y301D01*
X1Y300D02*
X8Y300D01*
X92Y300D02*
X145Y300D01*
X1138Y300D02*
X1144Y300D01*
X1292Y300D02*
X1299Y300D01*
X1Y299D02*
X8Y299D01*
X92Y299D02*
X98Y299D01*
X139Y299D02*
X145Y299D01*
X1139Y299D02*
X1145Y299D01*
X1292Y299D02*
X1299Y299D01*
X1Y298D02*
X8Y298D01*
X92Y298D02*
X98Y298D01*
X139Y298D02*
X145Y298D01*
X1140Y298D02*
X1146Y298D01*
X1292Y298D02*
X1299Y298D01*
X1Y297D02*
X8Y297D01*
X92Y297D02*
X98Y297D01*
X139Y297D02*
X145Y297D01*
X1141Y297D02*
X1147Y297D01*
X1292Y297D02*
X1299Y297D01*
X1Y296D02*
X8Y296D01*
X92Y296D02*
X98Y296D01*
X139Y296D02*
X145Y296D01*
X1142Y296D02*
X1148Y296D01*
X1292Y296D02*
X1299Y296D01*
X1Y295D02*
X8Y295D01*
X92Y295D02*
X98Y295D01*
X139Y295D02*
X145Y295D01*
X1143Y295D02*
X1149Y295D01*
X1292Y295D02*
X1299Y295D01*
X1Y294D02*
X8Y294D01*
X92Y294D02*
X98Y294D01*
X139Y294D02*
X145Y294D01*
X1144Y294D02*
X1150Y294D01*
X1292Y294D02*
X1299Y294D01*
X1Y293D02*
X8Y293D01*
X92Y293D02*
X98Y293D01*
X139Y293D02*
X145Y293D01*
X1145Y293D02*
X1151Y293D01*
X1292Y293D02*
X1299Y293D01*
X1Y292D02*
X8Y292D01*
X92Y292D02*
X98Y292D01*
X139Y292D02*
X145Y292D01*
X1146Y292D02*
X1152Y292D01*
X1292Y292D02*
X1299Y292D01*
X1Y291D02*
X8Y291D01*
X92Y291D02*
X98Y291D01*
X139Y291D02*
X145Y291D01*
X1148Y291D02*
X1153Y291D01*
X1292Y291D02*
X1299Y291D01*
X1Y290D02*
X8Y290D01*
X92Y290D02*
X98Y290D01*
X139Y290D02*
X145Y290D01*
X1149Y290D02*
X1154Y290D01*
X1292Y290D02*
X1299Y290D01*
X1Y289D02*
X8Y289D01*
X92Y289D02*
X98Y289D01*
X139Y289D02*
X145Y289D01*
X1150Y289D02*
X1155Y289D01*
X1292Y289D02*
X1299Y289D01*
X1Y288D02*
X8Y288D01*
X92Y288D02*
X97Y288D01*
X139Y288D02*
X144Y288D01*
X1151Y288D02*
X1156Y288D01*
X1292Y288D02*
X1299Y288D01*
X1Y287D02*
X8Y287D01*
X93Y287D02*
X96Y287D01*
X140Y287D02*
X144Y287D01*
X1152Y287D02*
X1157Y287D01*
X1292Y287D02*
X1299Y287D01*
X1Y286D02*
X8Y286D01*
X1153Y286D02*
X1158Y286D01*
X1292Y286D02*
X1299Y286D01*
X1Y285D02*
X8Y285D01*
X1154Y285D02*
X1159Y285D01*
X1292Y285D02*
X1299Y285D01*
X1Y284D02*
X8Y284D01*
X1155Y284D02*
X1160Y284D01*
X1292Y284D02*
X1299Y284D01*
X1Y283D02*
X8Y283D01*
X1155Y283D02*
X1161Y283D01*
X1292Y283D02*
X1299Y283D01*
X1Y282D02*
X8Y282D01*
X1156Y282D02*
X1162Y282D01*
X1292Y282D02*
X1299Y282D01*
X1Y281D02*
X8Y281D01*
X1157Y281D02*
X1163Y281D01*
X1292Y281D02*
X1299Y281D01*
X1Y280D02*
X8Y280D01*
X1158Y280D02*
X1164Y280D01*
X1292Y280D02*
X1299Y280D01*
X1Y279D02*
X8Y279D01*
X1159Y279D02*
X1165Y279D01*
X1292Y279D02*
X1299Y279D01*
X1Y278D02*
X8Y278D01*
X1160Y278D02*
X1166Y278D01*
X1292Y278D02*
X1299Y278D01*
X1Y277D02*
X8Y277D01*
X1161Y277D02*
X1167Y277D01*
X1292Y277D02*
X1299Y277D01*
X1Y276D02*
X8Y276D01*
X1162Y276D02*
X1168Y276D01*
X1292Y276D02*
X1299Y276D01*
X1Y275D02*
X8Y275D01*
X1163Y275D02*
X1169Y275D01*
X1292Y275D02*
X1299Y275D01*
X1Y274D02*
X8Y274D01*
X1164Y274D02*
X1170Y274D01*
X1292Y274D02*
X1299Y274D01*
X1Y273D02*
X8Y273D01*
X1165Y273D02*
X1170Y273D01*
X1292Y273D02*
X1299Y273D01*
X1Y272D02*
X8Y272D01*
X1166Y272D02*
X1169Y272D01*
X1292Y272D02*
X1299Y272D01*
X1Y271D02*
X8Y271D01*
X1167Y271D02*
X1168Y271D01*
X1292Y271D02*
X1299Y271D01*
X1Y270D02*
X8Y270D01*
X93Y270D02*
X129Y270D01*
X1292Y270D02*
X1299Y270D01*
X1Y269D02*
X8Y269D01*
X92Y269D02*
X130Y269D01*
X1292Y269D02*
X1299Y269D01*
X1Y268D02*
X8Y268D01*
X92Y268D02*
X130Y268D01*
X1292Y268D02*
X1299Y268D01*
X1Y267D02*
X8Y267D01*
X92Y267D02*
X130Y267D01*
X1292Y267D02*
X1299Y267D01*
X1Y266D02*
X8Y266D01*
X92Y266D02*
X130Y266D01*
X1292Y266D02*
X1299Y266D01*
X1Y265D02*
X8Y265D01*
X93Y265D02*
X129Y265D01*
X1292Y265D02*
X1299Y265D01*
X1Y264D02*
X8Y264D01*
X94Y264D02*
X128Y264D01*
X1292Y264D02*
X1299Y264D01*
X1Y263D02*
X8Y263D01*
X117Y263D02*
X125Y263D01*
X1292Y263D02*
X1299Y263D01*
X1Y262D02*
X8Y262D01*
X118Y262D02*
X125Y262D01*
X1292Y262D02*
X1299Y262D01*
X1Y261D02*
X8Y261D01*
X119Y261D02*
X126Y261D01*
X1292Y261D02*
X1299Y261D01*
X1Y260D02*
X8Y260D01*
X119Y260D02*
X127Y260D01*
X1292Y260D02*
X1299Y260D01*
X1Y259D02*
X8Y259D01*
X120Y259D02*
X127Y259D01*
X1292Y259D02*
X1299Y259D01*
X1Y258D02*
X8Y258D01*
X121Y258D02*
X128Y258D01*
X1292Y258D02*
X1299Y258D01*
X1Y257D02*
X8Y257D01*
X121Y257D02*
X128Y257D01*
X1292Y257D02*
X1299Y257D01*
X1Y256D02*
X8Y256D01*
X122Y256D02*
X129Y256D01*
X1292Y256D02*
X1299Y256D01*
X1Y255D02*
X8Y255D01*
X122Y255D02*
X129Y255D01*
X1292Y255D02*
X1299Y255D01*
X1Y254D02*
X8Y254D01*
X123Y254D02*
X130Y254D01*
X1292Y254D02*
X1299Y254D01*
X1Y253D02*
X8Y253D01*
X124Y253D02*
X130Y253D01*
X1292Y253D02*
X1299Y253D01*
X1Y252D02*
X8Y252D01*
X124Y252D02*
X130Y252D01*
X1292Y252D02*
X1299Y252D01*
X1Y251D02*
X8Y251D01*
X124Y251D02*
X130Y251D01*
X1292Y251D02*
X1299Y251D01*
X1Y250D02*
X8Y250D01*
X124Y250D02*
X130Y250D01*
X1292Y250D02*
X1299Y250D01*
X1Y249D02*
X8Y249D01*
X124Y249D02*
X130Y249D01*
X1292Y249D02*
X1299Y249D01*
X1Y248D02*
X8Y248D01*
X124Y248D02*
X130Y248D01*
X1292Y248D02*
X1299Y248D01*
X1Y247D02*
X8Y247D01*
X124Y247D02*
X130Y247D01*
X1292Y247D02*
X1299Y247D01*
X1Y246D02*
X8Y246D01*
X124Y246D02*
X130Y246D01*
X1292Y246D02*
X1299Y246D01*
X1Y245D02*
X8Y245D01*
X123Y245D02*
X130Y245D01*
X1292Y245D02*
X1299Y245D01*
X1Y244D02*
X8Y244D01*
X120Y244D02*
X130Y244D01*
X1292Y244D02*
X1299Y244D01*
X1Y243D02*
X8Y243D01*
X94Y243D02*
X129Y243D01*
X1292Y243D02*
X1299Y243D01*
X1Y242D02*
X8Y242D01*
X93Y242D02*
X129Y242D01*
X1292Y242D02*
X1299Y242D01*
X1Y241D02*
X8Y241D01*
X92Y241D02*
X128Y241D01*
X1292Y241D02*
X1299Y241D01*
X1Y240D02*
X8Y240D01*
X92Y240D02*
X127Y240D01*
X1292Y240D02*
X1299Y240D01*
X1Y239D02*
X8Y239D01*
X92Y239D02*
X126Y239D01*
X1292Y239D02*
X1299Y239D01*
X1Y238D02*
X8Y238D01*
X92Y238D02*
X124Y238D01*
X1292Y238D02*
X1299Y238D01*
X1Y237D02*
X8Y237D01*
X93Y237D02*
X120Y237D01*
X1292Y237D02*
X1299Y237D01*
X1Y236D02*
X8Y236D01*
X1292Y236D02*
X1299Y236D01*
X1Y235D02*
X8Y235D01*
X1292Y235D02*
X1299Y235D01*
X1Y234D02*
X8Y234D01*
X1292Y234D02*
X1299Y234D01*
X1Y233D02*
X8Y233D01*
X1292Y233D02*
X1299Y233D01*
X1Y232D02*
X8Y232D01*
X1292Y232D02*
X1299Y232D01*
X1Y231D02*
X8Y231D01*
X1292Y231D02*
X1299Y231D01*
X1Y230D02*
X8Y230D01*
X1292Y230D02*
X1299Y230D01*
X1Y229D02*
X8Y229D01*
X1292Y229D02*
X1299Y229D01*
X1Y228D02*
X8Y228D01*
X1292Y228D02*
X1299Y228D01*
X1Y227D02*
X8Y227D01*
X1292Y227D02*
X1299Y227D01*
X1Y226D02*
X8Y226D01*
X1292Y226D02*
X1299Y226D01*
X1Y225D02*
X8Y225D01*
X1292Y225D02*
X1299Y225D01*
X1Y224D02*
X8Y224D01*
X1292Y224D02*
X1299Y224D01*
X1Y223D02*
X8Y223D01*
X1292Y223D02*
X1299Y223D01*
X1Y222D02*
X8Y222D01*
X1292Y222D02*
X1299Y222D01*
X1Y221D02*
X8Y221D01*
X1292Y221D02*
X1299Y221D01*
X1Y220D02*
X8Y220D01*
X1292Y220D02*
X1299Y220D01*
X1Y219D02*
X8Y219D01*
X1292Y219D02*
X1299Y219D01*
X1Y218D02*
X8Y218D01*
X1292Y218D02*
X1299Y218D01*
X1Y217D02*
X8Y217D01*
X1292Y217D02*
X1299Y217D01*
X1Y216D02*
X8Y216D01*
X1292Y216D02*
X1299Y216D01*
X1Y215D02*
X8Y215D01*
X1292Y215D02*
X1299Y215D01*
X1Y214D02*
X8Y214D01*
X1292Y214D02*
X1299Y214D01*
X1Y213D02*
X8Y213D01*
X1292Y213D02*
X1299Y213D01*
X1Y212D02*
X8Y212D01*
X1292Y212D02*
X1299Y212D01*
X1Y211D02*
X8Y211D01*
X1292Y211D02*
X1299Y211D01*
X1Y210D02*
X8Y210D01*
X1292Y210D02*
X1299Y210D01*
X1Y209D02*
X8Y209D01*
X1292Y209D02*
X1299Y209D01*
X1Y208D02*
X8Y208D01*
X1136Y208D02*
X1136Y208D01*
X1292Y208D02*
X1299Y208D01*
X1Y207D02*
X8Y207D01*
X1135Y207D02*
X1137Y207D01*
X1292Y207D02*
X1299Y207D01*
X1Y206D02*
X8Y206D01*
X1134Y206D02*
X1138Y206D01*
X1292Y206D02*
X1299Y206D01*
X1Y205D02*
X8Y205D01*
X1133Y205D02*
X1139Y205D01*
X1292Y205D02*
X1299Y205D01*
X1Y204D02*
X8Y204D01*
X1134Y204D02*
X1140Y204D01*
X1292Y204D02*
X1299Y204D01*
X1Y203D02*
X8Y203D01*
X1135Y203D02*
X1141Y203D01*
X1292Y203D02*
X1299Y203D01*
X1Y202D02*
X8Y202D01*
X1136Y202D02*
X1142Y202D01*
X1292Y202D02*
X1299Y202D01*
X1Y201D02*
X8Y201D01*
X1137Y201D02*
X1143Y201D01*
X1292Y201D02*
X1299Y201D01*
X1Y200D02*
X8Y200D01*
X1138Y200D02*
X1144Y200D01*
X1292Y200D02*
X1299Y200D01*
X1Y199D02*
X8Y199D01*
X1139Y199D02*
X1145Y199D01*
X1292Y199D02*
X1299Y199D01*
X1Y198D02*
X8Y198D01*
X1140Y198D02*
X1146Y198D01*
X1292Y198D02*
X1299Y198D01*
X1Y197D02*
X8Y197D01*
X1141Y197D02*
X1147Y197D01*
X1292Y197D02*
X1299Y197D01*
X1Y196D02*
X8Y196D01*
X1142Y196D02*
X1148Y196D01*
X1292Y196D02*
X1299Y196D01*
X1Y195D02*
X8Y195D01*
X1143Y195D02*
X1149Y195D01*
X1292Y195D02*
X1299Y195D01*
X1Y194D02*
X8Y194D01*
X1144Y194D02*
X1150Y194D01*
X1292Y194D02*
X1299Y194D01*
X1Y193D02*
X8Y193D01*
X1145Y193D02*
X1151Y193D01*
X1292Y193D02*
X1299Y193D01*
X1Y192D02*
X8Y192D01*
X1146Y192D02*
X1152Y192D01*
X1292Y192D02*
X1299Y192D01*
X1Y191D02*
X8Y191D01*
X1148Y191D02*
X1153Y191D01*
X1292Y191D02*
X1299Y191D01*
X1Y190D02*
X8Y190D01*
X1149Y190D02*
X1154Y190D01*
X1292Y190D02*
X1299Y190D01*
X1Y189D02*
X8Y189D01*
X1150Y189D02*
X1155Y189D01*
X1292Y189D02*
X1299Y189D01*
X1Y188D02*
X8Y188D01*
X1151Y188D02*
X1156Y188D01*
X1292Y188D02*
X1299Y188D01*
X1Y187D02*
X8Y187D01*
X1152Y187D02*
X1157Y187D01*
X1292Y187D02*
X1299Y187D01*
X1Y186D02*
X8Y186D01*
X1153Y186D02*
X1158Y186D01*
X1292Y186D02*
X1299Y186D01*
X1Y185D02*
X8Y185D01*
X1154Y185D02*
X1159Y185D01*
X1292Y185D02*
X1299Y185D01*
X1Y184D02*
X8Y184D01*
X1155Y184D02*
X1160Y184D01*
X1292Y184D02*
X1299Y184D01*
X1Y183D02*
X8Y183D01*
X1155Y183D02*
X1161Y183D01*
X1292Y183D02*
X1299Y183D01*
X1Y182D02*
X8Y182D01*
X1156Y182D02*
X1162Y182D01*
X1292Y182D02*
X1299Y182D01*
X1Y181D02*
X8Y181D01*
X1157Y181D02*
X1163Y181D01*
X1292Y181D02*
X1299Y181D01*
X1Y180D02*
X8Y180D01*
X1158Y180D02*
X1164Y180D01*
X1292Y180D02*
X1299Y180D01*
X1Y179D02*
X8Y179D01*
X1159Y179D02*
X1165Y179D01*
X1292Y179D02*
X1299Y179D01*
X1Y178D02*
X8Y178D01*
X1160Y178D02*
X1166Y178D01*
X1292Y178D02*
X1299Y178D01*
X1Y177D02*
X8Y177D01*
X1161Y177D02*
X1167Y177D01*
X1292Y177D02*
X1299Y177D01*
X1Y176D02*
X8Y176D01*
X1162Y176D02*
X1168Y176D01*
X1292Y176D02*
X1299Y176D01*
X1Y175D02*
X8Y175D01*
X1163Y175D02*
X1169Y175D01*
X1292Y175D02*
X1299Y175D01*
X1Y174D02*
X8Y174D01*
X1164Y174D02*
X1170Y174D01*
X1292Y174D02*
X1299Y174D01*
X1Y173D02*
X8Y173D01*
X1165Y173D02*
X1170Y173D01*
X1292Y173D02*
X1299Y173D01*
X1Y172D02*
X8Y172D01*
X1166Y172D02*
X1169Y172D01*
X1292Y172D02*
X1299Y172D01*
X1Y171D02*
X8Y171D01*
X1167Y171D02*
X1168Y171D01*
X1292Y171D02*
X1299Y171D01*
X1Y170D02*
X8Y170D01*
X1292Y170D02*
X1299Y170D01*
X1Y169D02*
X8Y169D01*
X1292Y169D02*
X1299Y169D01*
X1Y168D02*
X8Y168D01*
X1292Y168D02*
X1299Y168D01*
X1Y167D02*
X8Y167D01*
X1292Y167D02*
X1299Y167D01*
X1Y166D02*
X8Y166D01*
X1292Y166D02*
X1299Y166D01*
X1Y165D02*
X8Y165D01*
X1292Y165D02*
X1299Y165D01*
X1Y164D02*
X8Y164D01*
X1292Y164D02*
X1299Y164D01*
X1Y163D02*
X8Y163D01*
X1292Y163D02*
X1299Y163D01*
X1Y162D02*
X8Y162D01*
X1292Y162D02*
X1299Y162D01*
X1Y161D02*
X8Y161D01*
X1292Y161D02*
X1299Y161D01*
X1Y160D02*
X8Y160D01*
X1292Y160D02*
X1299Y160D01*
X1Y159D02*
X8Y159D01*
X1292Y159D02*
X1299Y159D01*
X1Y158D02*
X8Y158D01*
X1292Y158D02*
X1299Y158D01*
X1Y157D02*
X8Y157D01*
X1292Y157D02*
X1299Y157D01*
X1Y156D02*
X8Y156D01*
X1292Y156D02*
X1299Y156D01*
X1Y155D02*
X8Y155D01*
X1292Y155D02*
X1299Y155D01*
X1Y154D02*
X8Y154D01*
X1292Y154D02*
X1299Y154D01*
X1Y153D02*
X8Y153D01*
X1292Y153D02*
X1299Y153D01*
X1Y152D02*
X8Y152D01*
X1292Y152D02*
X1299Y152D01*
X1Y151D02*
X8Y151D01*
X1292Y151D02*
X1299Y151D01*
X1Y150D02*
X8Y150D01*
X1292Y150D02*
X1299Y150D01*
X1Y149D02*
X8Y149D01*
X1292Y149D02*
X1299Y149D01*
X1Y148D02*
X8Y148D01*
X1292Y148D02*
X1299Y148D01*
X1Y147D02*
X8Y147D01*
X1292Y147D02*
X1299Y147D01*
X1Y146D02*
X8Y146D01*
X1292Y146D02*
X1299Y146D01*
X1Y145D02*
X8Y145D01*
X1292Y145D02*
X1299Y145D01*
X1Y144D02*
X8Y144D01*
X1292Y144D02*
X1299Y144D01*
X1Y143D02*
X8Y143D01*
X1292Y143D02*
X1299Y143D01*
X1Y142D02*
X8Y142D01*
X1292Y142D02*
X1299Y142D01*
X1Y141D02*
X8Y141D01*
X1292Y141D02*
X1299Y141D01*
X1Y140D02*
X8Y140D01*
X1292Y140D02*
X1299Y140D01*
X1Y139D02*
X8Y139D01*
X1292Y139D02*
X1299Y139D01*
X1Y138D02*
X8Y138D01*
X1292Y138D02*
X1299Y138D01*
X1Y137D02*
X8Y137D01*
X1292Y137D02*
X1299Y137D01*
X1Y136D02*
X8Y136D01*
X1292Y136D02*
X1299Y136D01*
X1Y135D02*
X8Y135D01*
X1292Y135D02*
X1299Y135D01*
X1Y134D02*
X8Y134D01*
X1292Y134D02*
X1299Y134D01*
X1Y133D02*
X8Y133D01*
X1292Y133D02*
X1299Y133D01*
X1Y132D02*
X8Y132D01*
X1292Y132D02*
X1299Y132D01*
X1Y131D02*
X8Y131D01*
X1292Y131D02*
X1299Y131D01*
X1Y130D02*
X8Y130D01*
X1292Y130D02*
X1299Y130D01*
X1Y129D02*
X8Y129D01*
X1292Y129D02*
X1299Y129D01*
X1Y128D02*
X8Y128D01*
X1292Y128D02*
X1299Y128D01*
X1Y127D02*
X8Y127D01*
X1292Y127D02*
X1299Y127D01*
X1Y126D02*
X8Y126D01*
X1292Y126D02*
X1299Y126D01*
X1Y125D02*
X8Y125D01*
X1292Y125D02*
X1299Y125D01*
X1Y124D02*
X8Y124D01*
X1292Y124D02*
X1299Y124D01*
X1Y123D02*
X8Y123D01*
X1292Y123D02*
X1299Y123D01*
X1Y122D02*
X8Y122D01*
X1292Y122D02*
X1299Y122D01*
X1Y121D02*
X8Y121D01*
X1292Y121D02*
X1299Y121D01*
X1Y120D02*
X8Y120D01*
X1292Y120D02*
X1299Y120D01*
X1Y119D02*
X8Y119D01*
X1292Y119D02*
X1299Y119D01*
X1Y118D02*
X8Y118D01*
X1292Y118D02*
X1299Y118D01*
X1Y117D02*
X8Y117D01*
X1292Y117D02*
X1299Y117D01*
X1Y116D02*
X8Y116D01*
X1292Y116D02*
X1299Y116D01*
X1Y115D02*
X8Y115D01*
X1292Y115D02*
X1299Y115D01*
X1Y114D02*
X8Y114D01*
X1292Y114D02*
X1299Y114D01*
X1Y113D02*
X8Y113D01*
X1292Y113D02*
X1299Y113D01*
X1Y112D02*
X8Y112D01*
X1292Y112D02*
X1299Y112D01*
X1Y111D02*
X8Y111D01*
X1292Y111D02*
X1299Y111D01*
X1Y110D02*
X8Y110D01*
X1292Y110D02*
X1299Y110D01*
X1Y109D02*
X8Y109D01*
X1292Y109D02*
X1299Y109D01*
X1Y108D02*
X8Y108D01*
X1292Y108D02*
X1299Y108D01*
X1Y107D02*
X8Y107D01*
X1292Y107D02*
X1299Y107D01*
X1Y106D02*
X8Y106D01*
X1292Y106D02*
X1299Y106D01*
X1Y105D02*
X8Y105D01*
X1292Y105D02*
X1299Y105D01*
X1Y104D02*
X8Y104D01*
X1292Y104D02*
X1299Y104D01*
X1Y103D02*
X8Y103D01*
X1292Y103D02*
X1299Y103D01*
X1Y102D02*
X8Y102D01*
X1292Y102D02*
X1299Y102D01*
X1Y101D02*
X8Y101D01*
X1292Y101D02*
X1299Y101D01*
X1Y100D02*
X8Y100D01*
X1292Y100D02*
X1299Y100D01*
X1Y99D02*
X8Y99D01*
X1292Y99D02*
X1299Y99D01*
X1Y98D02*
X8Y98D01*
X1292Y98D02*
X1299Y98D01*
X1Y97D02*
X8Y97D01*
X1292Y97D02*
X1299Y97D01*
X1Y96D02*
X8Y96D01*
X1292Y96D02*
X1299Y96D01*
X1Y95D02*
X8Y95D01*
X1292Y95D02*
X1299Y95D01*
X1Y94D02*
X8Y94D01*
X1292Y94D02*
X1299Y94D01*
X1Y93D02*
X8Y93D01*
X1292Y93D02*
X1299Y93D01*
X1Y92D02*
X8Y92D01*
X1292Y92D02*
X1299Y92D01*
X1Y91D02*
X8Y91D01*
X1292Y91D02*
X1299Y91D01*
X1Y90D02*
X8Y90D01*
X1292Y90D02*
X1299Y90D01*
X1Y89D02*
X8Y89D01*
X1292Y89D02*
X1299Y89D01*
X1Y88D02*
X8Y88D01*
X1292Y88D02*
X1299Y88D01*
X1Y87D02*
X8Y87D01*
X1292Y87D02*
X1299Y87D01*
X1Y86D02*
X8Y86D01*
X1292Y86D02*
X1299Y86D01*
X1Y85D02*
X8Y85D01*
X1292Y85D02*
X1299Y85D01*
X1Y84D02*
X8Y84D01*
X1292Y84D02*
X1299Y84D01*
X1Y83D02*
X8Y83D01*
X1292Y83D02*
X1299Y83D01*
X1Y82D02*
X8Y82D01*
X1292Y82D02*
X1299Y82D01*
X1Y81D02*
X8Y81D01*
X1292Y81D02*
X1299Y81D01*
X1Y80D02*
X8Y80D01*
X1292Y80D02*
X1299Y80D01*
X1Y79D02*
X8Y79D01*
X1292Y79D02*
X1299Y79D01*
X1Y78D02*
X8Y78D01*
X1292Y78D02*
X1299Y78D01*
X1Y77D02*
X8Y77D01*
X1292Y77D02*
X1299Y77D01*
X1Y76D02*
X8Y76D01*
X1292Y76D02*
X1299Y76D01*
X1Y75D02*
X8Y75D01*
X1292Y75D02*
X1299Y75D01*
X1Y74D02*
X8Y74D01*
X1292Y74D02*
X1299Y74D01*
X1Y73D02*
X8Y73D01*
X1292Y73D02*
X1299Y73D01*
X1Y72D02*
X8Y72D01*
X1292Y72D02*
X1299Y72D01*
X1Y71D02*
X8Y71D01*
X1292Y71D02*
X1299Y71D01*
X1Y70D02*
X8Y70D01*
X1292Y70D02*
X1299Y70D01*
X1Y69D02*
X8Y69D01*
X1292Y69D02*
X1299Y69D01*
X1Y68D02*
X8Y68D01*
X1292Y68D02*
X1299Y68D01*
X1Y67D02*
X8Y67D01*
X1292Y67D02*
X1299Y67D01*
X1Y66D02*
X8Y66D01*
X1292Y66D02*
X1299Y66D01*
X1Y65D02*
X8Y65D01*
X1292Y65D02*
X1299Y65D01*
X1Y64D02*
X8Y64D01*
X1292Y64D02*
X1299Y64D01*
X1Y63D02*
X8Y63D01*
X1292Y63D02*
X1299Y63D01*
X1Y62D02*
X8Y62D01*
X1292Y62D02*
X1299Y62D01*
X1Y61D02*
X8Y61D01*
X1292Y61D02*
X1299Y61D01*
X1Y60D02*
X8Y60D01*
X1292Y60D02*
X1299Y60D01*
X1Y59D02*
X8Y59D01*
X1292Y59D02*
X1299Y59D01*
X1Y58D02*
X8Y58D01*
X1292Y58D02*
X1299Y58D01*
X1Y57D02*
X8Y57D01*
X1292Y57D02*
X1299Y57D01*
X1Y56D02*
X8Y56D01*
X1292Y56D02*
X1299Y56D01*
X1Y55D02*
X8Y55D01*
X1292Y55D02*
X1299Y55D01*
X1Y54D02*
X8Y54D01*
X1292Y54D02*
X1299Y54D01*
X1Y53D02*
X8Y53D01*
X1292Y53D02*
X1299Y53D01*
X1Y52D02*
X8Y52D01*
X1292Y52D02*
X1299Y52D01*
X1Y51D02*
X8Y51D01*
X1292Y51D02*
X1299Y51D01*
X1Y50D02*
X8Y50D01*
X1292Y50D02*
X1299Y50D01*
X1Y49D02*
X8Y49D01*
X1292Y49D02*
X1299Y49D01*
X1Y48D02*
X8Y48D01*
X1292Y48D02*
X1299Y48D01*
X1Y47D02*
X8Y47D01*
X1292Y47D02*
X1299Y47D01*
X1Y46D02*
X8Y46D01*
X1292Y46D02*
X1299Y46D01*
X1Y45D02*
X8Y45D01*
X1292Y45D02*
X1299Y45D01*
X1Y44D02*
X8Y44D01*
X1292Y44D02*
X1299Y44D01*
X1Y43D02*
X8Y43D01*
X1292Y43D02*
X1299Y43D01*
X1Y42D02*
X8Y42D01*
X1292Y42D02*
X1299Y42D01*
X1Y41D02*
X8Y41D01*
X1292Y41D02*
X1299Y41D01*
X1Y40D02*
X8Y40D01*
X1292Y40D02*
X1299Y40D01*
X1Y39D02*
X8Y39D01*
X1292Y39D02*
X1299Y39D01*
X1Y38D02*
X8Y38D01*
X1292Y38D02*
X1299Y38D01*
X1Y37D02*
X8Y37D01*
X1292Y37D02*
X1299Y37D01*
X1Y36D02*
X8Y36D01*
X1292Y36D02*
X1299Y36D01*
X1Y35D02*
X8Y35D01*
X1292Y35D02*
X1299Y35D01*
X1Y34D02*
X8Y34D01*
X1292Y34D02*
X1299Y34D01*
X1Y33D02*
X8Y33D01*
X1292Y33D02*
X1299Y33D01*
X1Y32D02*
X8Y32D01*
X1292Y32D02*
X1299Y32D01*
X1Y31D02*
X8Y31D01*
X1292Y31D02*
X1299Y31D01*
X1Y30D02*
X8Y30D01*
X1292Y30D02*
X1299Y30D01*
X1Y29D02*
X8Y29D01*
X1292Y29D02*
X1299Y29D01*
X1Y28D02*
X8Y28D01*
X1292Y28D02*
X1299Y28D01*
X1Y27D02*
X8Y27D01*
X1292Y27D02*
X1299Y27D01*
X1Y26D02*
X8Y26D01*
X1292Y26D02*
X1299Y26D01*
X1Y25D02*
X8Y25D01*
X1292Y25D02*
X1299Y25D01*
X1Y24D02*
X8Y24D01*
X1292Y24D02*
X1299Y24D01*
X1Y23D02*
X8Y23D01*
X1292Y23D02*
X1299Y23D01*
X1Y22D02*
X8Y22D01*
X1292Y22D02*
X1299Y22D01*
X1Y21D02*
X8Y21D01*
X1292Y21D02*
X1299Y21D01*
X1Y20D02*
X8Y20D01*
X1292Y20D02*
X1299Y20D01*
X1Y19D02*
X8Y19D01*
X1292Y19D02*
X1299Y19D01*
X1Y18D02*
X8Y18D01*
X1292Y18D02*
X1299Y18D01*
X1Y17D02*
X8Y17D01*
X1292Y17D02*
X1299Y17D01*
X1Y16D02*
X8Y16D01*
X1292Y16D02*
X1299Y16D01*
X1Y15D02*
X8Y15D01*
X1292Y15D02*
X1299Y15D01*
X1Y14D02*
X8Y14D01*
X1292Y14D02*
X1299Y14D01*
X1Y13D02*
X8Y13D01*
X1292Y13D02*
X1299Y13D01*
X1Y12D02*
X8Y12D01*
X1292Y12D02*
X1299Y12D01*
X1Y11D02*
X8Y11D01*
X1292Y11D02*
X1299Y11D01*
X1Y10D02*
X8Y10D01*
X1292Y10D02*
X1299Y10D01*
X1Y9D02*
X8Y9D01*
X1292Y9D02*
X1299Y9D01*
X1Y8D02*
X1299Y8D01*
X1Y7D02*
X1299Y7D01*
X1Y6D02*
X1299Y6D01*
X1Y5D02*
X1299Y5D01*
X1Y4D02*
X1299Y4D01*
X1Y3D02*
X1299Y3D01*
X1Y2D02*
X1299Y2D01*
X1Y1D02*
X1299Y1D01*
D02*
G04 End of Silk1*
M02*