; NON-PLATED HOLES START AT T1
; THROUGH (PLATED) HOLES START AT T100
M48
INCH
T100C0.035000
T101C0.030000
T102C0.038000
T103C0.042000
T104C0.035433
T105C0.100000
%
T100
X002191Y012564
X002191Y013564
T101
X004191Y008064
X004191Y007062
T102
X009191Y005064
X006191Y001564
X008191Y002564
X004191Y001564
X008191Y012564
X006191Y014564
X009191Y014564
X005191Y013564
X010191Y003564
X002191Y002564
X007191Y002564
X011191Y001564
X005191Y002564
X009191Y013564
X004191Y011064
X011191Y005064
X004191Y005064
X005191Y011064
X007191Y012564
X008191Y001564
X008191Y005064
X004191Y003564
X009191Y003564
X011191Y002564
X011191Y003564
X006191Y002564
X004191Y014564
X007191Y003564
X007191Y001564
X008191Y013564
X007191Y014564
X007191Y011064
X011191Y013564
X005191Y012564
X007191Y005064
X010191Y002564
X009191Y012564
X011191Y011064
X002191Y003564
X010191Y012564
X010191Y014564
X010191Y001564
X006191Y011064
X005191Y014564
X004191Y013564
X010191Y005064
X010191Y013564
X009191Y011064
X011191Y012564
X009191Y001564
X008191Y011064
X007191Y013564
X011191Y014564
X006191Y005064
X004191Y002564
X008191Y014564
X010191Y011064
X006191Y012564
X005191Y003564
X009191Y002564
X004191Y012564
X008191Y003564
X006191Y013564
X006191Y003564
X005191Y005064
X005191Y001564
T103
X002191Y009064
X002191Y007064
X002191Y008064
T104
X003191Y010064
X011191Y010064
T105
X008891Y007664
X007691Y009564
X006491Y007664
T00
M30
