G04 MADE WITH FRITZING*
G04 WWW.FRITZING.ORG*
G04 DOUBLE SIDED*
G04 HOLES PLATED*
G04 CONTOUR ON CENTER OF CONTOUR VECTOR*
%ASAXBY*%
%FSLAX23Y23*%
%MOIN*%
%OFA0B0*%
%SFA1.0B1.0*%
%ADD10C,0.075433*%
%ADD11C,0.140000*%
%ADD12C,0.082000*%
%ADD13C,0.070000*%
%ADD14C,0.075000*%
%ADD15C,0.078000*%
%ADD16R,0.082000X0.082000*%
%ADD17R,0.075000X0.075000*%
%ADD18C,0.024000*%
%LNCOPPER0*%
G90*
G70*
G54D10*
X319Y1006D03*
X1119Y1006D03*
G54D11*
X649Y766D03*
X889Y766D03*
X769Y956D03*
G54D12*
X219Y706D03*
X219Y806D03*
X219Y906D03*
G54D13*
X419Y706D03*
X419Y806D03*
G54D14*
X219Y1356D03*
X219Y1256D03*
G54D15*
X1119Y1256D03*
X1019Y1256D03*
X919Y1256D03*
X819Y1256D03*
X719Y1256D03*
X619Y1256D03*
X519Y1256D03*
X419Y1256D03*
X1119Y356D03*
X1019Y356D03*
X919Y356D03*
X819Y356D03*
X719Y356D03*
X619Y356D03*
X519Y356D03*
X419Y356D03*
X1119Y1356D03*
X1019Y1356D03*
X919Y1356D03*
X819Y1356D03*
X719Y1356D03*
X619Y1356D03*
X519Y1356D03*
X419Y1356D03*
X1119Y256D03*
X1019Y256D03*
X919Y256D03*
X819Y256D03*
X719Y256D03*
X619Y256D03*
X519Y256D03*
X419Y256D03*
X1119Y1456D03*
X1019Y1456D03*
X919Y1456D03*
X819Y1456D03*
X719Y1456D03*
X619Y1456D03*
X519Y1456D03*
X419Y1456D03*
X1119Y156D03*
X1019Y156D03*
X919Y156D03*
X819Y156D03*
X719Y156D03*
X619Y156D03*
X519Y156D03*
X419Y156D03*
X1119Y1106D03*
X1019Y1106D03*
X919Y1106D03*
X819Y1106D03*
X719Y1106D03*
X619Y1106D03*
X519Y1106D03*
X419Y1106D03*
X1119Y506D03*
X1019Y506D03*
X919Y506D03*
X819Y506D03*
X719Y506D03*
X619Y506D03*
X519Y506D03*
X419Y506D03*
X219Y356D03*
X219Y256D03*
G54D16*
X219Y706D03*
G54D17*
X219Y1356D03*
G54D18*
X900Y256D02*
X838Y256D01*
D02*
X919Y175D02*
X919Y237D01*
D02*
X1019Y337D02*
X1019Y275D01*
D02*
X1019Y237D02*
X1019Y175D01*
D02*
X1119Y337D02*
X1119Y275D01*
D02*
X1119Y175D02*
X1119Y237D01*
D02*
X319Y156D02*
X400Y156D01*
D02*
X219Y156D02*
X319Y156D01*
D02*
X219Y237D02*
X219Y156D01*
D02*
X119Y806D02*
X119Y1357D01*
D02*
X119Y256D02*
X119Y806D01*
D02*
X119Y1357D02*
X202Y1357D01*
D02*
X200Y256D02*
X119Y256D01*
D02*
X420Y957D02*
X719Y957D01*
D02*
X419Y821D02*
X420Y957D01*
D02*
X119Y806D02*
X198Y806D01*
D02*
X1019Y375D02*
X1019Y487D01*
D02*
X419Y487D02*
X419Y375D01*
D02*
X519Y487D02*
X519Y375D01*
D02*
X619Y487D02*
X619Y375D01*
D02*
X719Y487D02*
X719Y375D01*
D02*
X819Y487D02*
X819Y375D01*
D02*
X1119Y375D02*
X1119Y487D01*
D02*
X419Y1125D02*
X419Y1237D01*
D02*
X519Y1125D02*
X519Y1237D01*
D02*
X619Y1125D02*
X619Y1237D01*
D02*
X719Y1125D02*
X719Y1237D01*
D02*
X819Y1125D02*
X819Y1237D01*
D02*
X1019Y1125D02*
X1019Y1237D01*
D02*
X1119Y1125D02*
X1119Y1237D01*
D02*
X919Y337D02*
X919Y275D01*
D02*
X919Y137D02*
X920Y57D01*
D02*
X920Y57D02*
X1218Y57D01*
D02*
X1218Y57D02*
X1218Y1357D01*
D02*
X1218Y1357D02*
X1138Y1357D01*
D02*
X919Y375D02*
X919Y487D01*
D02*
X919Y1125D02*
X919Y1237D01*
D02*
X1019Y607D02*
X1019Y525D01*
D02*
X318Y607D02*
X1019Y607D01*
D02*
X319Y156D02*
X318Y607D01*
D02*
X219Y927D02*
X219Y1239D01*
D02*
X1119Y989D02*
X1119Y525D01*
D02*
X318Y906D02*
X319Y989D01*
D02*
X240Y906D02*
X318Y906D01*
D02*
X862Y809D02*
X796Y914D01*
D02*
X569Y707D02*
X609Y737D01*
D02*
X434Y706D02*
X569Y707D01*
D02*
X240Y706D02*
X404Y706D01*
D02*
X404Y806D02*
X240Y806D01*
D02*
X600Y1356D02*
X538Y1356D01*
D02*
X638Y1356D02*
X700Y1356D01*
D02*
X738Y1356D02*
X800Y1356D01*
D02*
X838Y1356D02*
X900Y1356D01*
D02*
X938Y1356D02*
X1000Y1356D01*
D02*
X1038Y1356D02*
X1100Y1356D01*
D02*
X500Y1356D02*
X438Y1356D01*
D02*
X438Y1456D02*
X500Y1456D01*
D02*
X219Y1457D02*
X400Y1456D01*
D02*
X219Y1374D02*
X219Y1457D01*
D02*
X538Y1456D02*
X600Y1456D01*
D02*
X638Y1456D02*
X700Y1456D01*
D02*
X738Y1456D02*
X800Y1456D01*
D02*
X838Y1456D02*
X900Y1456D01*
D02*
X938Y1456D02*
X1000Y1456D01*
D02*
X1038Y1456D02*
X1100Y1456D01*
D02*
X438Y256D02*
X500Y256D01*
D02*
X538Y256D02*
X600Y256D01*
D02*
X638Y256D02*
X700Y256D01*
D02*
X738Y256D02*
X800Y256D01*
D02*
X500Y156D02*
X438Y156D01*
D02*
X600Y156D02*
X538Y156D01*
D02*
X700Y156D02*
X638Y156D01*
D02*
X800Y156D02*
X738Y156D01*
D02*
X219Y685D02*
X219Y375D01*
G04 End of Copper0*
M02*